  0
SECTION
  2
HEADER
  9
$ACADVER
  1
AC1015
  0
ENDSEC
  0
SECTION
  2
TABLES
  0
TABLE
  2
LAYER
  0
LAYER
  2
A-SITE-BNDR
 70
0
 62
7
  6
Continuous
  0
LAYER
  2
E-UTIL-POWR
 70
0
 62
7
  6
Continuous
  0
LAYER
  2
P-UTIL-WATR
 70
0
 62
7
  6
Continuous
  0
LAYER
  2
T-RAIL
 70
0
 62
7
  6
Continuous
  0
LAYER
  2
Z-SITE-SOLR
 70
0
 62
7
  6
Continuous
  0
LAYER
  2
Z-ZONE-EXPN
 70
0
 62
7
  6
Continuous
  0
LAYER
  2
C-ROAD-DRWY
 70
0
 62
7
  6
Continuous
  0
LAYER
  2
A-BLDG-PROD
 70
0
 62
7
  6
Continuous
  0
LAYER
  2
A-BLDG-UTIL
 70
0
 62
7
  6
Continuous
  0
ENDTAB
  0
ENDSEC
  0
SECTION
  2
ENTITIES
  0
LWPOLYLINE
  8
A-SITE-BNDR
 90
5
 70
1
 10
0.000
 20
0.000
 10
4500.000
 20
0.000
 10
4500.000
 20
4356.000
 10
0.000
 20
4356.000
 10
0.000
 20
0.000
  0
LINE
  8
E-UTIL-POWR
 10
0.0
 20
0.0
 30
0.0
 11
2250.0
 21
2178.0
 31
0.0
  0
LINE
  8
P-UTIL-WATR
 10
450.0
 20
2178.0
 30
0.0
 11
4050.0
 21
2178.0
 31
0.0
  0
LINE
  8
T-RAIL
 10
0.0
 20
871.2
 30
0.0
 11
4500.0
 21
871.2
 31
0.0
  0
LWPOLYLINE
  8
Z-SITE-SOLR
 90
5
 70
1
 10
2700.00
 20
2613.60
 10
4275.00
 20
2613.60
 10
4275.00
 20
4138.20
 10
2700.00
 20
4138.20
 10
2700.00
 20
2613.60
  0
LWPOLYLINE
  8
Z-ZONE-EXPN
 90
5
 70
1
 10
225.00
 20
2613.60
 10
2025.00
 20
2613.60
 10
2025.00
 20
4138.20
 10
225.00
 20
4138.20
 10
225.00
 20
2613.60
  0
LINE
  8
C-ROAD-DRWY
 10
1800.0
 20
0.0
 30
0.0
 11
1800.0
 21
1306.8
 31
0.0
  0
LWPOLYLINE
  8
A-BLDG-PROD
 90
5
 70
1
 10
675.00
 20
1089.00
 10
2025.00
 20
1089.00
 10
2025.00
 20
2178.00
 10
675.00
 20
2178.00
 10
675.00
 20
1089.00
  0
LWPOLYLINE
  8
A-BLDG-UTIL
 90
5
 70
1
 10
2700.00
 20
1089.00
 10
3240.00
 20
1089.00
 10
3240.00
 20
1611.72
 10
2700.00
 20
1611.72
 10
2700.00
 20
1089.00
  0
TEXT
  8
A-SITE-BNDR
 10
2250.0
 20
2178.0
 30
0.0
 40
80.0
  1
Denver Logistics Hub
  0
ENDSEC
  0
EOF