999
dxfrw 0.6.3
  0
SECTION
  2
HEADER
  9
$ACADVER
  1
AC1021
  9
$DWGCODEPAGE
  3
ANSI_1252
  9
$INSBASE
 10
0
 20
0
 30
0
  9
$EXTMIN
 10
-30
 20
-30
 30
0
  9
$EXTMAX
 10
4171.666664546646
 20
3605.555555555556
 30
0
  9
$LIMMIN
 10
0
 20
0
  9
$LIMMAX
 10
420
 20
297
  9
$ORTHOMODE
 70
    0
  9
$REGENMODE
 70
    1
  9
$FILLMODE
 70
    1
  9
$QTEXTMODE
 70
    0
  9
$MIRRTEXT
 70
    1
  9
$LTSCALE
 40
1
  9
$ATTMODE
 70
    1
  9
$TEXTSIZE
 40
2.5
  9
$TRACEWID
 40
1
  9
$TEXTSTYLE
  7
Standard
  9
$CLAYER
  8
0
  9
$CELTYPE
  6
ByLayer
  9
$CECOLOR
 62
  256
  9
$CELTSCALE
 40
1
  9
$DISPSILH
 70
    0
  9
$DIMSCALE
 40
1
  9
$DIMASZ
 40
2.5
  9
$DIMEXO
 40
0.625
  9
$DIMDLI
 40
3.75
  9
$DIMRND
 40
0
  9
$DIMDLE
 40
0
  9
$DIMEXE
 40
1.25
  9
$DIMTP
 40
0
  9
$DIMTM
 40
0
  9
$DIMTXT
 40
2.5
  9
$DIMCEN
 40
2.5
  9
$DIMTSZ
 40
0
  9
$DIMTOL
 70
    0
  9
$DIMLIM
 70
    0
  9
$DIMTIH
 70
    0
  9
$DIMTOH
 70
    0
  9
$DIMSE1
 70
    0
  9
$DIMSE2
 70
    0
  9
$DIMTAD
 70
    1
  9
$DIMZIN
 70
    8
  9
$DIMBLK
  1

  9
$DIMASO
 70
    1
  9
$DIMSHO
 70
    1
  9
$DIMPOST
  1

  9
$DIMAPOST
  1

  9
$DIMALT
 70
    0
  9
$DIMALTD
 70
    3
  9
$DIMALTF
 40
0.03937007874
  9
$DIMLFAC
 40
1
  9
$DIMTOFL
 70
    1
  9
$DIMTVP
 40
0
  9
$DIMTIX
 70
    0
  9
$DIMSOXD
 70
    0
  9
$DIMSAH
 70
    0
  9
$DIMBLK1
  1

  9
$DIMBLK2
  1

  9
$DIMSTYLE
  2
ISO-25
  9
$DIMCLRD
 70
    0
  9
$DIMCLRE
 70
    0
  9
$DIMCLRT
 70
    0
  9
$DIMTFAC
 40
1
  9
$DIMGAP
 40
0.625
  9
$DIMJUST
 70
    0
  9
$DIMSD1
 70
    0
  9
$DIMSD2
 70
    0
  9
$DIMTOLJ
 70
    0
  9
$DIMTZIN
 70
    8
  9
$DIMALTZ
 70
    0
  9
$DIMALTTZ
 70
    0
  9
$DIMUPT
 70
    0
  9
$DIMDEC
 70
    2
  9
$DIMTDEC
 70
    2
  9
$DIMALTU
 70
    2
  9
$DIMALTTD
 70
    3
  9
$DIMTXSTY
  7
Standard
  9
$DIMAUNIT
 70
    0
  9
$DIMADEC
 70
    0
  9
$DIMALTRND
 40
0
  9
$DIMAZIN
 70
    0
  9
$DIMDSEP
 70
   44
  9
$DIMATFIT
 70
    3
  9
$DIMFRAC
 70
    0
  9
$DIMLDRBLK
  1

  9
$DIMLUNIT
 70
    2
  9
$DIMLWD
 70
   -2
  9
$DIMLWE
 70
   -2
  9
$DIMTMOVE
 70
    0
  9
$DIMFXL
 40
1
  9
$DIMFXLON
 70
    0
  9
$DIMJOGANG
 40
0.785398163397
  9
$DIMTFILL
 70
    0
  9
$DIMTFILLCLR
 70
    0
  9
$DIMARCSYM
 70
    0
  9
$DIMLTYPE
  6

  9
$DIMLTEX1
  6

  9
$DIMLTEX2
  6

  9
$LUNITS
 70
    2
  9
$LUPREC
 70
    4
  9
$SKETCHINC
 40
1
  9
$FILLETRAD
 40
10
  9
$AUNITS
 70
    0
  9
$AUPREC
 70
    2
  9
$MENU
  1
.
  9
$ELEVATION
 40
0
  9
$PELEVATION
 40
0
  9
$THICKNESS
 40
0
  9
$LIMCHECK
 70
    0
  9
$CHAMFERA
 40
0
  9
$CHAMFERB
 40
0
  9
$CHAMFERC
 40
0
  9
$CHAMFERD
 40
0
  9
$SKPOLY
 70
    0
  9
$USRTIMER
 70
    1
  9
$ANGBASE
 50
0
  9
$ANGDIR
 70
    0
  9
$PDMODE
 70
    0
  9
$PDSIZE
 40
0
  9
$PLINEWID
 40
0
  9
$SPLFRAME
 70
    0
  9
$SPLINETYPE
 70
    6
  9
$SPLINESEGS
 70
    8
  9
$HANDSEED
  5
20000
  9
$SURFTAB1
 70
    6
  9
$SURFTAB2
 70
    6
  9
$SURFTYPE
 70
    6
  9
$SURFU
 70
    6
  9
$SURFV
 70
    6
  9
$UCSBASE
  2

  9
$UCSNAME
  2

  9
$UCSORG
 10
0
 20
0
 30
0
  9
$UCSXDIR
 10
1
 20
0
 30
0
  9
$UCSYDIR
 10
0
 20
1
 30
0
  9
$UCSORTHOREF
  2

  9
$UCSORTHOVIEW
 70
    0
  9
$UCSORGTOP
 10
0
 20
0
 30
0
  9
$UCSORGBOTTOM
 10
0
 20
0
 30
0
  9
$UCSORGLEFT
 10
0
 20
0
 30
0
  9
$UCSORGRIGHT
 10
0
 20
0
 30
0
  9
$UCSORGFRONT
 10
0
 20
0
 30
0
  9
$UCSORGBACK
 10
0
 20
0
 30
0
  9
$PUCSBASE
  2

  9
$PUCSNAME
  2

  9
$PUCSORG
 10
0
 20
0
 30
0
  9
$PUCSXDIR
 10
1
 20
0
 30
0
  9
$PUCSYDIR
 10
0
 20
1
 30
0
  9
$PUCSORTHOREF
  2

  9
$PUCSORTHOVIEW
 70
    0
  9
$PUCSORGTOP
 10
0
 20
0
 30
0
  9
$PUCSORGBOTTOM
 10
0
 20
0
 30
0
  9
$PUCSORGLEFT
 10
0
 20
0
 30
0
  9
$PUCSORGRIGHT
 10
0
 20
0
 30
0
  9
$PUCSORGFRONT
 10
0
 20
0
 30
0
  9
$PUCSORGBACK
 10
0
 20
0
 30
0
  9
$USERI1
 70
    0
  9
$USERI2
 70
    0
  9
$USERI3
 70
    0
  9
$USERI4
 70
    0
  9
$USERI5
 70
    0
  9
$USERR1
 40
0
  9
$USERR2
 40
0
  9
$USERR3
 40
0
  9
$USERR4
 40
0
  9
$USERR5
 40
0
  9
$WORLDVIEW
 70
    1
  9
$SHADEDGE
 70
    3
  9
$SHADEDIF
 70
   70
  9
$TILEMODE
 70
    1
  9
$MAXACTVP
 70
   64
  9
$PINSBASE
 10
0
 20
0
 30
0
  9
$PLIMCHECK
 70
    0
  9
$PEXTMIN
 10
1e+020
 20
1e+020
 30
1e+020
  9
$PEXTMAX
 10
-1e+020
 20
-1e+020
 30
-1e+020
  9
$GRIDMODE
 70
    0
  9
$SNAPSTYLE
 70
    0
  9
$PLIMMIN
 10
0
 20
0
  9
$PLIMMAX
 10
420
 20
297
  9
$UNITMODE
 70
    0
  9
$VISRETAIN
 70
    1
  9
$PLINEGEN
 70
    0
  9
$PSLTSCALE
 70
    1
  9
$TREEDEPTH
 70
 3020
  9
$CMLSTYLE
  2
Standard
  9
$CMLJUST
 70
    0
  9
$CMLSCALE
 40
20
  9
$PROXYGRAPHICS
 70
    1
  9
$MEASUREMENT
 70
    1
  9
$CELWEIGHT
370
   -1
  9
$ENDCAPS
280
    0
  9
$JOINSTYLE
280
    0
  9
$LWDISPLAY
290
    0
  9
$INSUNITS
 70
    0
  9
$HYPERLINKBASE
  1

  9
$STYLESHEET
  1

  9
$XEDIT
290
    1
  9
$CEPSNTYPE
380
    0
  9
$PSTYLEMODE
290
    1
  9
$EXTNAMES
290
    1
  9
$PSVPSCALE
 40
0
  9
$OLESTARTUP
290
    0
  9
$SORTENTS
280
  127
  9
$INDEXCTL
280
    0
  9
$HIDETEXT
280
    1
  9
$XCLIPFRAME
290
    1
  9
$HALOGAP
280
    0
  9
$OBSCOLOR
 70
  257
  9
$OBSLTYPE
280
    0
  9
$INTERSECTIONDISPLAY
280
    0
  9
$INTERSECTIONCOLOR
 70
  257
  9
$DIMASSOC
280
    2
  9
$PROJECTNAME
  1

  9
$CAMERADISPLAY
290
    0
  9
$LENSLENGTH
 40
50
  9
$CAMERAHEIGHT
 40
0
  9
$STEPSPERSEC
 40
24
  9
$STEPSIZE
 40
100
  9
$3DDWFPREC
 40
2
  9
$PSOLWIDTH
 40
0.005
  9
$PSOLHEIGHT
 40
0.08
  9
$LOFTANG1
 40
1.570796326795
  9
$LOFTANG2
 40
1.570796326795
  9
$LOFTMAG1
 40
0
  9
$LOFTMAG2
 40
0
  9
$LOFTPARAM
 70
    7
  9
$LOFTNORMALS
280
    1
  9
$LATITUDE
 40
37.795
  9
$LONGITUDE
 40
-122.394
  9
$NORTHDIRECTION
 40
0
  9
$TIMEZONE
 70
-8000
  9
$LIGHTGLYPHDISPLAY
280
    1
  9
$TILEMODELIGHTSYNCH
280
    1
  9
$SOLIDHIST
280
    0
  9
$SHOWHIST
280
    1
  9
$DWFFRAME
280
    2
  9
$DGNFRAME
280
    2
  9
$REALWORLDSCALE
290
    1
  9
$INTERFERECOLOR
 62
  256
  9
$CSHADOW
280
    0
  9
$SHADOWPLANELOCATION
 40
0
  0
ENDSEC
  0
SECTION
  2
CLASSES
  0
ENDSEC
  0
SECTION
  2
TABLES
  0
TABLE
  2
VPORT
  5
8
330
0
100
AcDbSymbolTable
 70
    1
  0
VPORT
  5
31
330
2
100
AcDbSymbolTableRecord
100
AcDbViewportTableRecord
  2
*ACTIVE
 70
    0
 10
0
 20
0
 11
1
 21
1
 12
961.7097931678314
 22
257.9269144651067
 13
0
 23
0
 14
10
 24
10
 15
10
 25
10
 16
0
 26
0
 36
1
 17
0
 27
0
 37
0
 40
1168.6600018242
 41
2.037760416666667
 42
50
 43
0
 44
0
 50
0
 51
0
 71
    0
 72
  100
 73
    1
 74
    3
 75
    0
 76
    0
 77
    0
 78
    0
281
    0
 65
    1
110
0
120
0
130
0
111
1
121
0
131
0
112
0
122
1
132
0
 79
    0
146
0
348
10020
 60
    7
 61
    5
292
1
282
    1
141
0
142
0
 63
  250
421
3358443
  0
ENDTAB
  0
TABLE
  2
LTYPE
  5
5
330
0
100
AcDbSymbolTable
 70
    4
  0
LTYPE
  5
14
330
5
100
AcDbSymbolTableRecord
100
AcDbLinetypeTableRecord
  2
ByBlock
 70
    0
  3

 72
   65
 73
    0
 40
0
  0
LTYPE
  5
15
330
5
100
AcDbSymbolTableRecord
100
AcDbLinetypeTableRecord
  2
ByLayer
 70
    0
  3

 72
   65
 73
    0
 40
0
  0
LTYPE
  5
16
330
5
100
AcDbSymbolTableRecord
100
AcDbLinetypeTableRecord
  2
Continuous
 70
    0
  3
Solid line
 72
   65
 73
    0
 40
0
  0
LTYPE
  5
32
330
5
100
AcDbSymbolTableRecord
100
AcDbLinetypeTableRecord
  2
DOT
 70
    0
  3
Dot . . . . . . . . . . . . . . . . . . . . . .
 72
   65
 73
    2
 40
6.35
 49
0
 74
    0
 49
-6.35
 74
    0
  0
LTYPE
  5
33
330
5
100
AcDbSymbolTableRecord
100
AcDbLinetypeTableRecord
  2
DOTTINY
 70
    0
  3
Dot (.15x) .....................................
 72
   65
 73
    2
 40
0.9525
 49
0
 74
    0
 49
-0.9525
 74
    0
  0
LTYPE
  5
34
330
5
100
AcDbSymbolTableRecord
100
AcDbLinetypeTableRecord
  2
DOT2
 70
    0
  3
Dot (.5x) .....................................
 72
   65
 73
    2
 40
3.175
 49
0
 74
    0
 49
-3.175
 74
    0
  0
LTYPE
  5
35
330
5
100
AcDbSymbolTableRecord
100
AcDbLinetypeTableRecord
  2
DOTX2
 70
    0
  3
Dot (2x) .  .  .  .  .  .  .  .  .  .  .  .  .
 72
   65
 73
    2
 40
12.7
 49
0
 74
    0
 49
-12.7
 74
    0
  0
LTYPE
  5
36
330
5
100
AcDbSymbolTableRecord
100
AcDbLinetypeTableRecord
  2
DASHED
 70
    0
  3
Dashed _ _ _ _ _ _ _ _ _ _ _ _ _ _ _ _ _
 72
   65
 73
    2
 40
19.05
 49
12.7
 74
    0
 49
-6.35
 74
    0
  0
LTYPE
  5
37
330
5
100
AcDbSymbolTableRecord
100
AcDbLinetypeTableRecord
  2
DASHEDTINY
 70
    0
  3
Dashed (.15x) _ _ _ _ _ _ _ _ _ _ _ _ _ _ _ _ _
 72
   65
 73
    2
 40
2.8575
 49
1.905
 74
    0
 49
-0.9525
 74
    0
  0
LTYPE
  5
38
330
5
100
AcDbSymbolTableRecord
100
AcDbLinetypeTableRecord
  2
DASHED2
 70
    0
  3
Dashed (.5x) _ _ _ _ _ _ _ _ _ _ _ _ _ _ _ _ _
 72
   65
 73
    2
 40
9.524999999999999
 49
6.35
 74
    0
 49
-3.175
 74
    0
  0
LTYPE
  5
39
330
5
100
AcDbSymbolTableRecord
100
AcDbLinetypeTableRecord
  2
DASHEDX2
 70
    0
  3
Dashed (2x) ____  ____  ____  ____  ____  ___
 72
   65
 73
    2
 40
38.09999999999999
 49
25.4
 74
    0
 49
-12.7
 74
    0
  0
LTYPE
  5
3A
330
5
100
AcDbSymbolTableRecord
100
AcDbLinetypeTableRecord
  2
DASHDOT
 70
    0
  3
Dash dot __ . __ . __ . __ . __ . __ . __ . __
 72
   65
 73
    4
 40
25.4
 49
12.7
 74
    0
 49
-6.35
 74
    0
 49
0
 74
    0
 49
-6.35
 74
    0
  0
LTYPE
  5
3B
330
5
100
AcDbSymbolTableRecord
100
AcDbLinetypeTableRecord
  2
DASHDOTTINY
 70
    0
  3
Dash dot (.15x) _._._._._._._._._._._._._._._.
 72
   65
 73
    4
 40
3.81
 49
1.905
 74
    0
 49
-0.9525
 74
    0
 49
0
 74
    0
 49
-0.9525
 74
    0
  0
LTYPE
  5
3C
330
5
100
AcDbSymbolTableRecord
100
AcDbLinetypeTableRecord
  2
DASHDOT2
 70
    0
  3
Dash dot (.5x) _._._._._._._._._._._._._._._.
 72
   65
 73
    4
 40
12.7
 49
6.35
 74
    0
 49
-3.175
 74
    0
 49
0
 74
    0
 49
-3.175
 74
    0
  0
LTYPE
  5
3D
330
5
100
AcDbSymbolTableRecord
100
AcDbLinetypeTableRecord
  2
DASHDOTX2
 70
    0
  3
Dash dot (2x) ____  .  ____  .  ____  .  ___
 72
   65
 73
    4
 40
50.8
 49
25.4
 74
    0
 49
-12.7
 74
    0
 49
0
 74
    0
 49
-12.7
 74
    0
  0
LTYPE
  5
3E
330
5
100
AcDbSymbolTableRecord
100
AcDbLinetypeTableRecord
  2
DIVIDE
 70
    0
  3
Divide ____ . . ____ . . ____ . . ____ . . ____
 72
   65
 73
    6
 40
31.75
 49
12.7
 74
    0
 49
-6.35
 74
    0
 49
0
 74
    0
 49
-6.35
 74
    0
 49
0
 74
    0
 49
-6.35
 74
    0
  0
LTYPE
  5
3F
330
5
100
AcDbSymbolTableRecord
100
AcDbLinetypeTableRecord
  2
DIVIDETINY
 70
    0
  3
Divide (.15x) __..__..__..__..__..__..__..__.._
 72
   65
 73
    6
 40
4.7625
 49
1.905
 74
    0
 49
-0.9525
 74
    0
 49
0
 74
    0
 49
-0.9525
 74
    0
 49
0
 74
    0
 49
-0.9525
 74
    0
  0
LTYPE
  5
40
330
5
100
AcDbSymbolTableRecord
100
AcDbLinetypeTableRecord
  2
DIVIDE2
 70
    0
  3
Divide (.5x) __..__..__..__..__..__..__..__.._
 72
   65
 73
    6
 40
15.875
 49
6.35
 74
    0
 49
-3.175
 74
    0
 49
0
 74
    0
 49
-3.175
 74
    0
 49
0
 74
    0
 49
-3.175
 74
    0
  0
LTYPE
  5
41
330
5
100
AcDbSymbolTableRecord
100
AcDbLinetypeTableRecord
  2
DIVIDEX2
 70
    0
  3
Divide (2x) ________  .  .  ________  .  .  _
 72
   65
 73
    6
 40
63.5
 49
25.4
 74
    0
 49
-12.7
 74
    0
 49
0
 74
    0
 49
-12.7
 74
    0
 49
0
 74
    0
 49
-12.7
 74
    0
  0
LTYPE
  5
42
330
5
100
AcDbSymbolTableRecord
100
AcDbLinetypeTableRecord
  2
BORDER
 70
    0
  3
Border __ __ . __ __ . __ __ . __ __ . __ __ .
 72
   65
 73
    6
 40
44.45
 49
12.7
 74
    0
 49
-6.35
 74
    0
 49
12.7
 74
    0
 49
-6.35
 74
    0
 49
0
 74
    0
 49
-6.35
 74
    0
  0
LTYPE
  5
43
330
5
100
AcDbSymbolTableRecord
100
AcDbLinetypeTableRecord
  2
BORDERTINY
 70
    0
  3
Border (.15x) __.__.__.__.__.__.__.__.__.__.__.
 72
   65
 73
    6
 40
6.6675
 49
1.905
 74
    0
 49
-0.9525
 74
    0
 49
1.905
 74
    0
 49
-0.9525
 74
    0
 49
0
 74
    0
 49
-0.9525
 74
    0
  0
LTYPE
  5
44
330
5
100
AcDbSymbolTableRecord
100
AcDbLinetypeTableRecord
  2
BORDER2
 70
    0
  3
Border (.5x) __.__.__.__.__.__.__.__.__.__.__.
 72
   65
 73
    6
 40
22.225
 49
6.35
 74
    0
 49
-3.175
 74
    0
 49
6.35
 74
    0
 49
-3.175
 74
    0
 49
0
 74
    0
 49
-3.175
 74
    0
  0
LTYPE
  5
45
330
5
100
AcDbSymbolTableRecord
100
AcDbLinetypeTableRecord
  2
BORDERX2
 70
    0
  3
Border (2x) ____  ____  .  ____  ____  .  ___
 72
   65
 73
    6
 40
88.89999999999999
 49
25.4
 74
    0
 49
-12.7
 74
    0
 49
25.4
 74
    0
 49
-12.7
 74
    0
 49
0
 74
    0
 49
-12.7
 74
    0
  0
LTYPE
  5
46
330
5
100
AcDbSymbolTableRecord
100
AcDbLinetypeTableRecord
  2
CENTER
 70
    0
  3
Center ____ _ ____ _ ____ _ ____ _ ____ _ ____
 72
   65
 73
    4
 40
50.8
 49
31.75
 74
    0
 49
-6.35
 74
    0
 49
6.35
 74
    0
 49
-6.35
 74
    0
  0
LTYPE
  5
47
330
5
100
AcDbSymbolTableRecord
100
AcDbLinetypeTableRecord
  2
CENTERTINY
 70
    0
  3
Center (.15x) ___ _ ___ _ ___ _ ___ _ ___ _ ___
 72
   65
 73
    4
 40
7.619999999999999
 49
4.7625
 74
    0
 49
-0.9525
 74
    0
 49
0.9525
 74
    0
 49
-0.9525
 74
    0
  0
LTYPE
  5
48
330
5
100
AcDbSymbolTableRecord
100
AcDbLinetypeTableRecord
  2
CENTER2
 70
    0
  3
Center (.5x) ___ _ ___ _ ___ _ ___ _ ___ _ ___
 72
   65
 73
    4
 40
28.575
 49
19.05
 74
    0
 49
-3.175
 74
    0
 49
3.175
 74
    0
 49
-3.175
 74
    0
  0
LTYPE
  5
49
330
5
100
AcDbSymbolTableRecord
100
AcDbLinetypeTableRecord
  2
CENTERX2
 70
    0
  3
Center (2x) ________  __  ________  __  _____
 72
   65
 73
    4
 40
101.6
 49
63.5
 74
    0
 49
-12.7
 74
    0
 49
12.7
 74
    0
 49
-12.7
 74
    0
  0
ENDTAB
  0
TABLE
  2
LAYER
  5
2
330
0
100
AcDbSymbolTable
 70
    1
  0
LAYER
  5
10
330
2
100
AcDbSymbolTableRecord
100
AcDbLayerTableRecord
  2
0
 70
    0
 62
    7
  6
CONTINUOUS
370
   -3
390
F
  0
LAYER
  5
4A
330
2
100
AcDbSymbolTableRecord
100
AcDbLayerTableRecord
  2
A-BLDG-ADMN
 70
    0
 62
    5
  6
CONTINUOUS
370
   -3
390
F
  0
LAYER
  5
4B
330
2
100
AcDbSymbolTableRecord
100
AcDbLayerTableRecord
  2
A-BLDG-LOGI
 70
    0
 62
    6
  6
CONTINUOUS
370
   -3
390
F
  0
LAYER
  5
4C
330
2
100
AcDbSymbolTableRecord
100
AcDbLayerTableRecord
  2
A-BLDG-PROD
 70
    0
 62
    4
  6
CONTINUOUS
370
   -3
390
F
  0
LAYER
  5
4D
330
2
100
AcDbSymbolTableRecord
100
AcDbLayerTableRecord
  2
A-BLDG-UTIL
 70
    0
 62
    3
  6
CONTINUOUS
370
   -3
390
F
  0
LAYER
  5
4E
330
2
100
AcDbSymbolTableRecord
100
AcDbLayerTableRecord
  2
C-SITE-BOUN
 70
    0
 62
    7
  6
CONTINUOUS
370
   -3
390
F
  0
LAYER
  5
4F
330
2
100
AcDbSymbolTableRecord
100
AcDbLayerTableRecord
  2
C-SITE-BRMF
 70
    0
 62
    1
  6
CONTINUOUS
370
   -3
390
F
  0
LAYER
  5
50
330
2
100
AcDbSymbolTableRecord
100
AcDbLayerTableRecord
  2
C-SITE-ROAD
 70
    0
 62
    8
  6
CONTINUOUS
370
   -3
390
F
  0
LAYER
  5
51
330
2
100
AcDbSymbolTableRecord
100
AcDbLayerTableRecord
  2
C-SITE-STRM
 70
    0
 62
    5
  6
CONTINUOUS
370
   -3
390
F
  0
LAYER
  5
52
330
2
100
AcDbSymbolTableRecord
100
AcDbLayerTableRecord
  2
Defpoints
 70
    0
 62
    7
  6
CONTINUOUS
290
0
370
   -3
390
F
  0
LAYER
  5
53
330
2
100
AcDbSymbolTableRecord
100
AcDbLayerTableRecord
  2
E-UTIL-FIBU
 70
    0
 62
    4
  6
CONTINUOUS
370
   -3
390
F
  0
LAYER
  5
54
330
2
100
AcDbSymbolTableRecord
100
AcDbLayerTableRecord
  2
E-UTIL-POWR
 70
    0
 62
    2
  6
CONTINUOUS
370
   -3
390
F
  0
LAYER
  5
55
330
2
100
AcDbSymbolTableRecord
100
AcDbLayerTableRecord
  2
P-UTIL-SWER
 70
    0
 62
    3
  6
CONTINUOUS
370
   -3
390
F
  0
LAYER
  5
56
330
2
100
AcDbSymbolTableRecord
100
AcDbLayerTableRecord
  2
P-UTIL-WATR
 70
    0
 62
    5
  6
CONTINUOUS
370
   -3
390
F
  0
LAYER
  5
57
330
2
100
AcDbSymbolTableRecord
100
AcDbLayerTableRecord
  2
T-RAIL
 70
    0
 62
    1
  6
CONTINUOUS
370
   -3
390
F
  0
LAYER
  5
58
330
2
100
AcDbSymbolTableRecord
100
AcDbLayerTableRecord
  2
T-ROAD-PUBL
 70
    0
 62
    8
  6
CONTINUOUS
370
   -3
390
F
  0
LAYER
  5
59
330
2
100
AcDbSymbolTableRecord
100
AcDbLayerTableRecord
  2
X-ANNO-DIMS
 70
    0
 62
    4
  6
CONTINUOUS
370
   -3
390
F
  0
LAYER
  5
5A
330
2
100
AcDbSymbolTableRecord
100
AcDbLayerTableRecord
  2
X-ANNO-GRID
 70
    0
 62
    8
  6
CONTINUOUS
370
   -3
390
F
  0
LAYER
  5
5B
330
2
100
AcDbSymbolTableRecord
100
AcDbLayerTableRecord
  2
X-ANNO-TEXT
 70
    0
 62
    7
  6
CONTINUOUS
370
   -3
390
F
  0
LAYER
  5
5C
330
2
100
AcDbSymbolTableRecord
100
AcDbLayerTableRecord
  2
X-ANNO-TITL
 70
    0
 62
    7
  6
CONTINUOUS
370
   -3
390
F
  0
LAYER
  5
5D
330
2
100
AcDbSymbolTableRecord
100
AcDbLayerTableRecord
  2
Z-SITE-SOLR
 70
    0
 62
    2
  6
CONTINUOUS
370
   -3
390
F
  0
LAYER
  5
5E
330
2
100
AcDbSymbolTableRecord
100
AcDbLayerTableRecord
  2
Z-ZONE-ENVR
 70
    0
 62
    3
  6
CONTINUOUS
370
   -3
390
F
  0
LAYER
  5
5F
330
2
100
AcDbSymbolTableRecord
100
AcDbLayerTableRecord
  2
Z-ZONE-EXPN
 70
    0
 62
    6
  6
CONTINUOUS
370
   -3
390
F
  0
LAYER
  5
60
330
2
100
AcDbSymbolTableRecord
100
AcDbLayerTableRecord
  2
Z-ZONE-SECU
 70
    0
 62
    1
  6
CONTINUOUS
370
   -3
390
F
  0
ENDTAB
  0
TABLE
  2
STYLE
  5
3
330
0
100
AcDbSymbolTable
 70
    3
  0
STYLE
  5
61
330
2
100
AcDbSymbolTableRecord
100
AcDbTextStyleTableRecord
  2
ENGINEERING
 70
    0
 40
0
 41
1
 50
0
 71
    0
 42
1
  3
ENGINEERING
  4

  0
STYLE
  5
62
330
2
100
AcDbSymbolTableRecord
100
AcDbTextStyleTableRecord
  2
TITLE
 70
    0
 40
0
 41
1
 50
0
 71
    0
 42
1
  3
TITLE
  4

  0
STYLE
  5
63
330
2
100
AcDbSymbolTableRecord
100
AcDbTextStyleTableRecord
  2
Standard
 70
    0
 40
0
 41
1
 50
0
 71
    0
 42
1
  3
txt
  4

  0
ENDTAB
  0
TABLE
  2
VIEW
  5
6
330
0
100
AcDbSymbolTable
 70
    0
  0
ENDTAB
  0
TABLE
  2
UCS
  5
7
330
0
100
AcDbSymbolTable
 70
    0
  0
ENDTAB
  0
TABLE
  2
APPID
  5
9
330
0
100
AcDbSymbolTable
 70
    1
  0
APPID
  5
12
330
9
100
AcDbSymbolTableRecord
100
AcDbRegAppTableRecord
  2
ACAD
 70
    0
  0
APPID
  5
64
330
9
100
AcDbSymbolTableRecord
100
AcDbRegAppTableRecord
  2
LibreCad
 70
    0
  0
ENDTAB
  0
TABLE
  2
DIMSTYLE
  5
A
330
0
100
AcDbSymbolTable
 70
    1
100
AcDbDimStyleTable
 71
    1
  0
DIMSTYLE
105
65
330
A
100
AcDbSymbolTableRecord
100
AcDbDimStyleTableRecord
  2
Standard
 70
    0
 40
1
 41
2.5
 42
0.625
 43
0.38
 44
1.25
 45
0
 46
0
 47
0
 48
0
 49
1
140
2.5
141
0.09
142
0
143
25.4
144
1
145
0
146
1
147
0.625
148
0
 71
    0
 72
    0
 73
    0
 74
    1
 75
    0
 76
    0
 77
    0
 78
    8
 79
    0
170
    0
171
    2
172
    0
173
    0
174
    0
175
    0
176
    0
177
    0
178
    0
179
    0
271
    2
272
    4
273
    2
274
    2
275
    0
276
    0
277
    2
278
   44
279
    0
280
    0
281
    0
282
    0
283
    1
284
    0
285
    0
286
    0
288
    0
289
    3
340
Standard
341

371
   -2
372
   -2
  0
ENDTAB
  0
TABLE
  2
BLOCK_RECORD
  5
1
330
0
100
AcDbSymbolTable
 70
    2
  0
BLOCK_RECORD
  5
1F
330
1
100
AcDbSymbolTableRecord
100
AcDbBlockTableRecord
  2
*Model_Space
 70
    0
280
    1
281
    0
  0
BLOCK_RECORD
  5
1E
330
1
100
AcDbSymbolTableRecord
100
AcDbBlockTableRecord
  2
*Paper_Space
 70
    0
280
    1
281
    0
  0
ENDTAB
  0
ENDSEC
  0
SECTION
  2
BLOCKS
  0
BLOCK
  5
20
330
1F
100
AcDbEntity
  8
0
100
AcDbBlockBegin
  2
*Model_Space
 70
    0
 10
0
 20
0
 30
0
  3
*Model_Space
  1

  0
ENDBLK
  5
21
330
1F
100
AcDbEntity
  8
0
100
AcDbBlockEnd
  0
BLOCK
  5
1C
330
1B
100
AcDbEntity
  8
0
100
AcDbBlockBegin
  2
*Paper_Space
 70
    0
 10
0
 20
0
 30
0
  3
*Paper_Space
  1

  0
ENDBLK
  5
1D
330
1F
100
AcDbEntity
  8
0
100
AcDbBlockEnd
  0
ENDSEC
  0
SECTION
  2
ENTITIES
  0
LWPOLYLINE
  5
66
100
AcDbEntity
  8
C-SITE-BOUN
  6
ByLayer
 62
  256
370
   -1
100
AcDbPolyline
 90
    5
 70
    0
 43
0
 10
50
 20
50
 10
4010
 20
50
 10
4010
 20
3570
 10
50
 20
3570
 10
50
 20
50
  0
TEXT
  5
67
100
AcDbEntity
  8
X-ANNO-TEXT
  6
ByLayer
 62
  256
370
   -1
100
AcDbText
 10
1910
 20
3590
 30
0
 40
14
  1
TACOMA INDUSTRIAL PARK — SITE BOUNDARY (320 AC)
 50
0
 41
1
 51
0
  7
TITLE
 71
    0
210
0
220
0
230
1
100
AcDbText
  0
LINE
  5
68
100
AcDbEntity
  8
X-ANNO-GRID
  6
ByLayer
 62
  256
370
   -1
100
AcDbLine
 10
50
 20
50
 11
50
 21
3570
  0
LINE
  5
69
100
AcDbEntity
  8
X-ANNO-GRID
  6
ByLayer
 62
  256
370
   -1
100
AcDbLine
 10
450
 20
50
 11
450
 21
3570
  0
TEXT
  5
6A
100
AcDbEntity
  8
X-ANNO-GRID
  6
ByLayer
 62
  256
370
   -1
100
AcDbText
 10
440
 20
20
 30
0
 40
7
  1
400
 50
0
 41
1
 51
0
  7
ENGINEERING
 71
    0
210
0
220
0
230
1
100
AcDbText
  0
LINE
  5
6B
100
AcDbEntity
  8
X-ANNO-GRID
  6
ByLayer
 62
  256
370
   -1
100
AcDbLine
 10
850
 20
50
 11
850
 21
3570
  0
TEXT
  5
6C
100
AcDbEntity
  8
X-ANNO-GRID
  6
ByLayer
 62
  256
370
   -1
100
AcDbText
 10
840
 20
20
 30
0
 40
7
  1
800
 50
0
 41
1
 51
0
  7
ENGINEERING
 71
    0
210
0
220
0
230
1
100
AcDbText
  0
LINE
  5
6D
100
AcDbEntity
  8
X-ANNO-GRID
  6
ByLayer
 62
  256
370
   -1
100
AcDbLine
 10
1250
 20
50
 11
1250
 21
3570
  0
TEXT
  5
6E
100
AcDbEntity
  8
X-ANNO-GRID
  6
ByLayer
 62
  256
370
   -1
100
AcDbText
 10
1240
 20
20
 30
0
 40
7
  1
1200
 50
0
 41
1
 51
0
  7
ENGINEERING
 71
    0
210
0
220
0
230
1
100
AcDbText
  0
LINE
  5
6F
100
AcDbEntity
  8
X-ANNO-GRID
  6
ByLayer
 62
  256
370
   -1
100
AcDbLine
 10
1650
 20
50
 11
1650
 21
3570
  0
TEXT
  5
70
100
AcDbEntity
  8
X-ANNO-GRID
  6
ByLayer
 62
  256
370
   -1
100
AcDbText
 10
1640
 20
20
 30
0
 40
7
  1
1600
 50
0
 41
1
 51
0
  7
ENGINEERING
 71
    0
210
0
220
0
230
1
100
AcDbText
  0
LINE
  5
71
100
AcDbEntity
  8
X-ANNO-GRID
  6
ByLayer
 62
  256
370
   -1
100
AcDbLine
 10
2050
 20
50
 11
2050
 21
3570
  0
TEXT
  5
72
100
AcDbEntity
  8
X-ANNO-GRID
  6
ByLayer
 62
  256
370
   -1
100
AcDbText
 10
2040
 20
20
 30
0
 40
7
  1
2000
 50
0
 41
1
 51
0
  7
ENGINEERING
 71
    0
210
0
220
0
230
1
100
AcDbText
  0
LINE
  5
73
100
AcDbEntity
  8
X-ANNO-GRID
  6
ByLayer
 62
  256
370
   -1
100
AcDbLine
 10
2450
 20
50
 11
2450
 21
3570
  0
TEXT
  5
74
100
AcDbEntity
  8
X-ANNO-GRID
  6
ByLayer
 62
  256
370
   -1
100
AcDbText
 10
2440
 20
20
 30
0
 40
7
  1
2400
 50
0
 41
1
 51
0
  7
ENGINEERING
 71
    0
210
0
220
0
230
1
100
AcDbText
  0
LINE
  5
75
100
AcDbEntity
  8
X-ANNO-GRID
  6
ByLayer
 62
  256
370
   -1
100
AcDbLine
 10
2850
 20
50
 11
2850
 21
3570
  0
TEXT
  5
76
100
AcDbEntity
  8
X-ANNO-GRID
  6
ByLayer
 62
  256
370
   -1
100
AcDbText
 10
2840
 20
20
 30
0
 40
7
  1
2800
 50
0
 41
1
 51
0
  7
ENGINEERING
 71
    0
210
0
220
0
230
1
100
AcDbText
  0
LINE
  5
77
100
AcDbEntity
  8
X-ANNO-GRID
  6
ByLayer
 62
  256
370
   -1
100
AcDbLine
 10
3250
 20
50
 11
3250
 21
3570
  0
TEXT
  5
78
100
AcDbEntity
  8
X-ANNO-GRID
  6
ByLayer
 62
  256
370
   -1
100
AcDbText
 10
3240
 20
20
 30
0
 40
7
  1
3200
 50
0
 41
1
 51
0
  7
ENGINEERING
 71
    0
210
0
220
0
230
1
100
AcDbText
  0
LINE
  5
79
100
AcDbEntity
  8
X-ANNO-GRID
  6
ByLayer
 62
  256
370
   -1
100
AcDbLine
 10
3650
 20
50
 11
3650
 21
3570
  0
TEXT
  5
7A
100
AcDbEntity
  8
X-ANNO-GRID
  6
ByLayer
 62
  256
370
   -1
100
AcDbText
 10
3640
 20
20
 30
0
 40
7
  1
3600
 50
0
 41
1
 51
0
  7
ENGINEERING
 71
    0
210
0
220
0
230
1
100
AcDbText
  0
LINE
  5
7B
100
AcDbEntity
  8
X-ANNO-GRID
  6
ByLayer
 62
  256
370
   -1
100
AcDbLine
 10
50
 20
50
 11
4010
 21
50
  0
LINE
  5
7C
100
AcDbEntity
  8
X-ANNO-GRID
  6
ByLayer
 62
  256
370
   -1
100
AcDbLine
 10
50
 20
450
 11
4010
 21
450
  0
TEXT
  5
7D
100
AcDbEntity
  8
X-ANNO-GRID
  6
ByLayer
 62
  256
370
   -1
100
AcDbText
 10
10
 20
445
 30
0
 40
7
  1
400
 50
0
 41
1
 51
0
  7
ENGINEERING
 71
    0
210
0
220
0
230
1
100
AcDbText
  0
LINE
  5
7E
100
AcDbEntity
  8
X-ANNO-GRID
  6
ByLayer
 62
  256
370
   -1
100
AcDbLine
 10
50
 20
850
 11
4010
 21
850
  0
TEXT
  5
7F
100
AcDbEntity
  8
X-ANNO-GRID
  6
ByLayer
 62
  256
370
   -1
100
AcDbText
 10
10
 20
845
 30
0
 40
7
  1
800
 50
0
 41
1
 51
0
  7
ENGINEERING
 71
    0
210
0
220
0
230
1
100
AcDbText
  0
LINE
  5
80
100
AcDbEntity
  8
X-ANNO-GRID
  6
ByLayer
 62
  256
370
   -1
100
AcDbLine
 10
50
 20
1250
 11
4010
 21
1250
  0
TEXT
  5
81
100
AcDbEntity
  8
X-ANNO-GRID
  6
ByLayer
 62
  256
370
   -1
100
AcDbText
 10
10
 20
1245
 30
0
 40
7
  1
1200
 50
0
 41
1
 51
0
  7
ENGINEERING
 71
    0
210
0
220
0
230
1
100
AcDbText
  0
LINE
  5
82
100
AcDbEntity
  8
X-ANNO-GRID
  6
ByLayer
 62
  256
370
   -1
100
AcDbLine
 10
50
 20
1650
 11
4010
 21
1650
  0
TEXT
  5
83
100
AcDbEntity
  8
X-ANNO-GRID
  6
ByLayer
 62
  256
370
   -1
100
AcDbText
 10
10
 20
1645
 30
0
 40
7
  1
1600
 50
0
 41
1
 51
0
  7
ENGINEERING
 71
    0
210
0
220
0
230
1
100
AcDbText
  0
LINE
  5
84
100
AcDbEntity
  8
X-ANNO-GRID
  6
ByLayer
 62
  256
370
   -1
100
AcDbLine
 10
50
 20
2050
 11
4010
 21
2050
  0
TEXT
  5
85
100
AcDbEntity
  8
X-ANNO-GRID
  6
ByLayer
 62
  256
370
   -1
100
AcDbText
 10
10
 20
2045
 30
0
 40
7
  1
2000
 50
0
 41
1
 51
0
  7
ENGINEERING
 71
    0
210
0
220
0
230
1
100
AcDbText
  0
LINE
  5
86
100
AcDbEntity
  8
X-ANNO-GRID
  6
ByLayer
 62
  256
370
   -1
100
AcDbLine
 10
50
 20
2450
 11
4010
 21
2450
  0
TEXT
  5
87
100
AcDbEntity
  8
X-ANNO-GRID
  6
ByLayer
 62
  256
370
   -1
100
AcDbText
 10
10
 20
2445
 30
0
 40
7
  1
2400
 50
0
 41
1
 51
0
  7
ENGINEERING
 71
    0
210
0
220
0
230
1
100
AcDbText
  0
LINE
  5
88
100
AcDbEntity
  8
X-ANNO-GRID
  6
ByLayer
 62
  256
370
   -1
100
AcDbLine
 10
50
 20
2850
 11
4010
 21
2850
  0
TEXT
  5
89
100
AcDbEntity
  8
X-ANNO-GRID
  6
ByLayer
 62
  256
370
   -1
100
AcDbText
 10
10
 20
2845
 30
0
 40
7
  1
2800
 50
0
 41
1
 51
0
  7
ENGINEERING
 71
    0
210
0
220
0
230
1
100
AcDbText
  0
LINE
  5
8A
100
AcDbEntity
  8
X-ANNO-GRID
  6
ByLayer
 62
  256
370
   -1
100
AcDbLine
 10
50
 20
3250
 11
4010
 21
3250
  0
TEXT
  5
8B
100
AcDbEntity
  8
X-ANNO-GRID
  6
ByLayer
 62
  256
370
   -1
100
AcDbText
 10
10
 20
3245
 30
0
 40
7
  1
3200
 50
0
 41
1
 51
0
  7
ENGINEERING
 71
    0
210
0
220
0
230
1
100
AcDbText
  0
LWPOLYLINE
  5
8C
100
AcDbEntity
  8
T-ROAD-PUBL
  6
ByLayer
 62
  256
370
   -1
100
AcDbPolyline
 90
    5
 70
    0
 43
0
 10
-30
 20
-30
 10
4090
 20
-30
 10
4090
 20
50
 10
-30
 20
50
 10
-30
 20
-30
  0
TEXT
  5
8D
100
AcDbEntity
  8
X-ANNO-TEXT
  6
ByLayer
 62
  256
370
   -1
100
AcDbText
 10
1830
 20
-5
 30
0
 40
10
  1
PACIFIC AVENUE / SR-509 CORRIDOR
 50
0
 41
1
 51
0
  7
ENGINEERING
 71
    0
210
0
220
0
230
1
100
AcDbText
  0
LWPOLYLINE
  5
8E
100
AcDbEntity
  8
C-SITE-ROAD
  6
ByLayer
 62
  256
370
   -1
100
AcDbPolyline
 90
    5
 70
    0
 43
0
 10
50
 20
1528.4
 10
4010
 20
1528.4
 10
4010
 20
1608.4
 10
50
 20
1608.4
 10
50
 20
1528.4
  0
TEXT
  5
8F
100
AcDbEntity
  8
X-ANNO-TEXT
  6
ByLayer
 62
  256
370
   -1
100
AcDbText
 10
70
 20
1556.4
 30
0
 40
8
  1
MAIN HAUL ROAD — 100,000 LB AXLE LOAD
 50
0
 41
1
 51
0
  7
ENGINEERING
 71
    0
210
0
220
0
230
1
100
AcDbText
  0
LWPOLYLINE
  5
90
100
AcDbEntity
  8
C-SITE-ROAD
  6
ByLayer
 62
  256
370
   -1
100
AcDbPolyline
 90
    5
 70
    0
 43
0
 10
1950.8
 20
50
 10
2010.8
 20
50
 10
2010.8
 20
3570
 10
1950.8
 20
3570
 10
1950.8
 20
50
  0
LINE
  5
91
100
AcDbEntity
  8
T-RAIL
  6
ByLayer
 62
  256
370
   -1
100
AcDbLine
 10
4050
 20
150
 11
2228
 21
1282
  0
LINE
  5
92
100
AcDbEntity
  8
T-RAIL
  6
ByLayer
 62
  256
370
   -1
100
AcDbLine
 10
4050
 20
164
 11
2228
 21
1296
  0
TEXT
  5
93
100
AcDbEntity
  8
X-ANNO-TEXT
  6
ByLayer
 62
  256
370
   -1
100
AcDbText
 10
2822
 20
824.4
 30
0
 40
9
  1
BNSF RAIL SPUR — TRACK 1 (2,400 LF)
 50
0
 41
1
 51
0
  7
ENGINEERING
 71
    0
210
0
220
0
230
1
100
AcDbText
  0
LINE
  5
94
100
AcDbEntity
  8
T-RAIL
  6
ByLayer
 62
  256
370
   -1
100
AcDbLine
 10
4050
 20
190
 11
2228
 21
1310
  0
LINE
  5
95
100
AcDbEntity
  8
T-RAIL
  6
ByLayer
 62
  256
370
   -1
100
AcDbLine
 10
4050
 20
204
 11
2228
 21
1324
  0
TEXT
  5
96
100
AcDbEntity
  8
X-ANNO-TEXT
  6
ByLayer
 62
  256
370
   -1
100
AcDbText
 10
2822
 20
683.6
 30
0
 40
9
  1
BNSF RAIL SPUR — TRACK 2 (STORAGE)
 50
0
 41
1
 51
0
  7
ENGINEERING
 71
    0
210
0
220
0
230
1
100
AcDbText
  0
TEXT
  5
97
100
AcDbEntity
  8
X-ANNO-TEXT
  6
ByLayer
 62
  256
370
   -1
100
AcDbText
 10
4060
 20
170
 30
0
 40
10
  1
BNSF MAINLINE →
 50
0
 41
1
 51
0
  7
TITLE
 71
    0
210
0
220
0
230
1
100
AcDbText
  0
LWPOLYLINE
  5
98
100
AcDbEntity
  8
E-UTIL-POWR
  6
ByLayer
 62
  256
370
   -1
100
AcDbPolyline
 90
    5
 70
    0
 43
0
 10
170
 20
2890
 10
510
 20
2890
 10
510
 20
3310
 10
170
 20
3310
 10
170
 20
2890
  0
TEXT
  5
99
100
AcDbEntity
  8
X-ANNO-TEXT
  6
ByLayer
 62
  256
370
   -1
100
AcDbText
 10
190
 20
3290
 30
0
 40
11
  1
MAIN SUBSTATION
 50
0
 41
1
 51
0
  7
TITLE
 71
    0
210
0
220
0
230
1
100
AcDbText
  0
TEXT
  5
9A
100
AcDbEntity
  8
X-ANNO-TEXT
  6
ByLayer
 62
  256
370
   -1
100
AcDbText
 10
190
 20
3270
 30
0
 40
8
  1
34.5kV SWITCHYARD
 50
0
 41
1
 51
0
  7
ENGINEERING
 71
    0
210
0
220
0
230
1
100
AcDbText
  0
TEXT
  5
9B
100
AcDbEntity
  8
X-ANNO-TEXT
  6
ByLayer
 62
  256
370
   -1
100
AcDbText
 10
190
 20
3250
 30
0
 40
8
  1
T1+T2: 2×50 MVA
 50
0
 41
1
 51
0
  7
ENGINEERING
 71
    0
210
0
220
0
230
1
100
AcDbText
  0
TEXT
  5
9C
100
AcDbEntity
  8
X-ANNO-TEXT
  6
ByLayer
 62
  256
370
   -1
100
AcDbText
 10
190
 20
3230
 30
0
 40
8
  1
CAPEX: $4.1M
 50
0
 41
1
 51
0
  7
ENGINEERING
 71
    0
210
0
220
0
230
1
100
AcDbText
  0
LINE
  5
9D
100
AcDbEntity
  8
E-UTIL-POWR
  6
ByLayer
 62
  256
370
   -1
100
AcDbLine
 10
340
 20
3570
 11
340
 21
3690
  0
LINE
  5
9E
100
AcDbEntity
  8
E-UTIL-POWR
  6
ByLayer
 62
  256
370
   -1
100
AcDbLine
 10
340
 20
3690
 11
-30
 21
3690
  0
TEXT
  5
9F
100
AcDbEntity
  8
X-ANNO-TEXT
  6
ByLayer
 62
  256
370
   -1
100
AcDbText
 10
150
 20
3700
 30
0
 40
9
  1
PSE 115kV PRIMARY FEED →
 50
0
 41
1
 51
0
  7
ENGINEERING
 71
    0
210
0
220
0
230
1
100
AcDbText
  0
LWPOLYLINE
  5
A0
100
AcDbEntity
  8
E-UTIL-POWR
  6
ByLayer
 62
  256
370
   -1
100
AcDbPolyline
 90
    5
 70
    0
 43
0
 10
610
 20
3110
 10
770
 20
3110
 10
770
 20
3230
 10
610
 20
3230
 10
610
 20
3110
  0
TEXT
  5
A1
100
AcDbEntity
  8
X-ANNO-TEXT
  6
ByLayer
 62
  256
370
   -1
100
AcDbText
 10
615
 20
3205
 30
0
 40
8
  1
XFMR BANK
 50
0
 41
1
 51
0
  7
ENGINEERING
 71
    0
210
0
220
0
230
1
100
AcDbText
  0
TEXT
  5
A2
100
AcDbEntity
  8
X-ANNO-TEXT
  6
ByLayer
 62
  256
370
   -1
100
AcDbText
 10
615
 20
3192
 30
0
 40
8
  1
4.16kV
 50
0
 41
1
 51
0
  7
ENGINEERING
 71
    0
210
0
220
0
230
1
100
AcDbText
  0
LWPOLYLINE
  5
A3
100
AcDbEntity
  8
E-UTIL-POWR
  6
ByLayer
 62
  256
370
   -1
100
AcDbPolyline
 90
    5
 70
    0
 43
0
 10
690
 20
3170
 10
690
 20
2338
 10
1250
 20
2338
 10
2650
 20
2338
 10
3250
 20
2338
  0
TEXT
  5
A4
100
AcDbEntity
  8
X-ANNO-TEXT
  6
ByLayer
 62
  256
370
   -1
100
AcDbText
 10
850
 20
2353
 30
0
 40
8
  1
4.16kV DISTRIBUTION DUCT BANK (2,800 LF UNDERGROUND)
 50
0
 41
1
 51
0
  7
ENGINEERING
 71
    0
210
0
220
0
230
1
100
AcDbText
  0
LWPOLYLINE
  5
A5
100
AcDbEntity
  8
A-BLDG-UTIL
  6
ByLayer
 62
  256
370
   -1
100
AcDbPolyline
 90
    5
 70
    0
 43
0
 10
870
 20
3010
 10
1350
 20
3010
 10
1350
 20
3330
 10
870
 20
3330
 10
870
 20
3010
  0
TEXT
  5
A6
100
AcDbEntity
  8
X-ANNO-TEXT
  6
ByLayer
 62
  256
370
   -1
100
AcDbText
 10
890
 20
3305
 30
0
 40
11
  1
WATER TREATMENT
 50
0
 41
1
 51
0
  7
TITLE
 71
    0
210
0
220
0
230
1
100
AcDbText
  0
TEXT
  5
A7
100
AcDbEntity
  8
X-ANNO-TEXT
  6
ByLayer
 62
  256
370
   -1
100
AcDbText
 10
890
 20
3285
 30
0
 40
8
  1
RO + CARBON FILTRATION
 50
0
 41
1
 51
0
  7
ENGINEERING
 71
    0
210
0
220
0
230
1
100
AcDbText
  0
TEXT
  5
A8
100
AcDbEntity
  8
X-ANNO-TEXT
  6
ByLayer
 62
  256
370
   -1
100
AcDbText
 10
890
 20
3265
 30
0
 40
8
  1
CAPACITY: 12 MGD / 450 GPM
 50
0
 41
1
 51
0
  7
ENGINEERING
 71
    0
210
0
220
0
230
1
100
AcDbText
  0
TEXT
  5
A9
100
AcDbEntity
  8
X-ANNO-TEXT
  6
ByLayer
 62
  256
370
   -1
100
AcDbText
 10
890
 20
3245
 30
0
 40
8
  1
FIRE RESERVE: 100,000 GAL
 50
0
 41
1
 51
0
  7
ENGINEERING
 71
    0
210
0
220
0
230
1
100
AcDbText
  0
LINE
  5
AA
100
AcDbEntity
  8
P-UTIL-WATR
  6
ByLayer
 62
  256
370
   -1
100
AcDbLine
 10
1110
 20
50
 11
1110
 21
3010
  0
TEXT
  5
AB
100
AcDbEntity
  8
X-ANNO-TEXT
  6
ByLayer
 62
  256
370
   -1
100
AcDbText
 10
1120
 20
150
 30
0
 40
8
  1
16-IN WATER MAIN (CITY OF TACOMA)
 50
0
 41
1
 51
0
  7
ENGINEERING
 71
    0
210
0
220
0
230
1
100
AcDbText
  0
LWPOLYLINE
  5
AC
100
AcDbEntity
  8
C-SITE-STRM
  6
ByLayer
 62
  256
370
   -1
100
AcDbPolyline
 90
    5
 70
    0
 43
0
 10
170
 20
1608.4
 10
1490
 20
1608.4
 10
1490
 20
2568.4
 10
170
 20
2568.4
 10
170
 20
1608.4
  0
HATCH
  5
AD
100
AcDbEntity
  8
C-SITE-STRM
  6
ByLayer
 62
    7
370
   -1
100
AcDbHatch
 10
0
 20
0
 30
0
210
0
220
0
230
1
  2
AR-HBONE
 70
    0
 71
    0
 91
    1
 92
    0
 93
    4
 72
    1
 10
170
 20
1608.4
 11
1490
 21
1608.4
 72
    1
 10
1490
 20
1608.4
 11
1490
 21
2568.4
 72
    1
 10
1490
 20
2568.4
 11
170
 21
2568.4
 72
    1
 10
170
 20
2568.4
 11
170
 21
1608.4
 97
    0
 75
    0
 76
    1
 52
0
 41
12
 77
    0
 78
    0
 98
    0
  0
TEXT
  5
AE
100
AcDbEntity
  8
X-ANNO-TEXT
  6
ByLayer
 62
  256
370
   -1
100
AcDbText
 10
250
 20
2408.4
 30
0
 40
11
  1
STORMWATER RETENTION BASIN
 50
0
 41
1
 51
0
  7
TITLE
 71
    0
210
0
220
0
230
1
100
AcDbText
  0
TEXT
  5
AF
100
AcDbEntity
  8
X-ANNO-TEXT
  6
ByLayer
 62
  256
370
   -1
100
AcDbText
 10
250
 20
2383.4
 30
0
 40
8
  1
2.4 ACRES — NPDES PERMITTED OUTFALL
 50
0
 41
1
 51
0
  7
ENGINEERING
 71
    0
210
0
220
0
230
1
100
AcDbText
  0
TEXT
  5
B0
100
AcDbEntity
  8
X-ANNO-TEXT
  6
ByLayer
 62
  256
370
   -1
100
AcDbText
 10
250
 20
2363.4
 30
0
 40
8
  1
BIOSWALE INLET: 400 LF
 50
0
 41
1
 51
0
  7
ENGINEERING
 71
    0
210
0
220
0
230
1
100
AcDbText
  0
LWPOLYLINE
  5
B1
100
AcDbEntity
  8
A-BLDG-PROD
  6
ByLayer
 62
  256
370
   -1
100
AcDbPolyline
 90
    5
 70
    0
 43
0
 10
1650
 20
1608.4
 10
3450
 20
1608.4
 10
3450
 20
3208.4
 10
1650
 20
3208.4
 10
1650
 20
1608.4
  0
HATCH
  5
B2
100
AcDbEntity
  8
A-BLDG-PROD
  6
ByLayer
 62
    7
370
   -1
100
AcDbHatch
 10
0
 20
0
 30
0
210
0
220
0
230
1
  2
ANSI31
 70
    0
 71
    0
 91
    1
 92
    0
 93
    4
 72
    1
 10
1650
 20
1608.4
 11
3450
 21
1608.4
 72
    1
 10
3450
 20
1608.4
 11
3450
 21
3208.4
 72
    1
 10
3450
 20
3208.4
 11
1650
 21
3208.4
 72
    1
 10
1650
 20
3208.4
 11
1650
 21
1608.4
 97
    0
 75
    0
 76
    1
 52
0
 41
10
 77
    0
 78
    0
 98
    0
  0
TEXT
  5
B3
100
AcDbEntity
  8
X-ANNO-TEXT
  6
ByLayer
 62
  256
370
   -1
100
AcDbText
 10
1690
 20
3088.4
 30
0
 40
18
  1
ASSEMBLY BLOCK A
 50
0
 41
1
 51
0
  7
TITLE
 71
    0
210
0
220
0
230
1
100
AcDbText
  0
TEXT
  5
B4
100
AcDbEntity
  8
X-ANNO-TEXT
  6
ByLayer
 62
  256
370
   -1
100
AcDbText
 10
1690
 20
3048.4
 30
0
 40
10
  1
180,000 SQFT · 450 × 400 ft
 50
0
 41
1
 51
0
  7
ENGINEERING
 71
    0
210
0
220
0
230
1
100
AcDbText
  0
TEXT
  5
B5
100
AcDbEntity
  8
X-ANNO-TEXT
  6
ByLayer
 62
  256
370
   -1
100
AcDbText
 10
1690
 20
3023.4
 30
0
 40
9
  1
42 FT CLEAR HEIGHT
 50
0
 41
1
 51
0
  7
ENGINEERING
 71
    0
210
0
220
0
230
1
100
AcDbText
  0
TEXT
  5
B6
100
AcDbEntity
  8
X-ANNO-TEXT
  6
ByLayer
 62
  256
370
   -1
100
AcDbText
 10
1690
 20
2998.4
 30
0
 40
9
  1
50-TON OVERHEAD CRANE (2 BAYS)
 50
0
 41
1
 51
0
  7
ENGINEERING
 71
    0
210
0
220
0
230
1
100
AcDbText
  0
TEXT
  5
B7
100
AcDbEntity
  8
X-ANNO-TEXT
  6
ByLayer
 62
  256
370
   -1
100
AcDbText
 10
1690
 20
2973.4
 30
0
 40
9
  1
PHASE 1 · CAPEX: $22M
 50
0
 41
1
 51
0
  7
ENGINEERING
 71
    0
210
0
220
0
230
1
100
AcDbText
  0
LWPOLYLINE
  5
B8
100
AcDbEntity
  8
A-BLDG-PROD
  6
ByLayer
 62
  256
370
   -1
100
AcDbPolyline
 90
    5
 70
    0
 43
0
 10
1650
 20
226
 10
3150
 20
226
 10
3150
 20
1506
 10
1650
 20
1506
 10
1650
 20
226
  0
HATCH
  5
B9
100
AcDbEntity
  8
A-BLDG-PROD
  6
ByLayer
 62
    7
370
   -1
100
AcDbHatch
 10
0
 20
0
 30
0
210
0
220
0
230
1
  2
ANSI31
 70
    0
 71
    0
 91
    1
 92
    0
 93
    4
 72
    1
 10
1650
 20
226
 11
3150
 21
226
 72
    1
 10
3150
 20
226
 11
3150
 21
1506
 72
    1
 10
3150
 20
1506
 11
1650
 21
1506
 72
    1
 10
1650
 20
1506
 11
1650
 21
226
 97
    0
 75
    0
 76
    1
 52
0
 41
10
 77
    0
 78
    0
 98
    0
  0
TEXT
  5
BA
100
AcDbEntity
  8
X-ANNO-TEXT
  6
ByLayer
 62
  256
370
   -1
100
AcDbText
 10
1690
 20
1466
 30
0
 40
16
  1
ASSEMBLY BLOCK B
 50
0
 41
1
 51
0
  7
TITLE
 71
    0
210
0
220
0
230
1
100
AcDbText
  0
TEXT
  5
BB
100
AcDbEntity
  8
X-ANNO-TEXT
  6
ByLayer
 62
  256
370
   -1
100
AcDbText
 10
1690
 20
1426
 30
0
 40
9
  1
120,000 SQFT · 375 × 320 ft
 50
0
 41
1
 51
0
  7
ENGINEERING
 71
    0
210
0
220
0
230
1
100
AcDbText
  0
TEXT
  5
BC
100
AcDbEntity
  8
X-ANNO-TEXT
  6
ByLayer
 62
  256
370
   -1
100
AcDbText
 10
1690
 20
1401
 30
0
 40
9
  1
36 FT CLEAR HEIGHT · 30T CRANE
 50
0
 41
1
 51
0
  7
ENGINEERING
 71
    0
210
0
220
0
230
1
100
AcDbText
  0
TEXT
  5
BD
100
AcDbEntity
  8
X-ANNO-TEXT
  6
ByLayer
 62
  256
370
   -1
100
AcDbText
 10
1690
 20
1376
 30
0
 40
9
  1
PHASE 2 · CAPEX: $18M
 50
0
 41
1
 51
0
  7
ENGINEERING
 71
    0
210
0
220
0
230
1
100
AcDbText
  0
LWPOLYLINE
  5
BE
100
AcDbEntity
  8
A-BLDG-PROD
  6
ByLayer
 62
  256
370
   -1
100
AcDbPolyline
 90
    5
 70
    0
 43
0
 10
3530
 20
1608.4
 10
4810
 20
1608.4
 10
4810
 20
2608.4
 10
3530
 20
2608.4
 10
3530
 20
1608.4
  0
HATCH
  5
BF
100
AcDbEntity
  8
A-BLDG-PROD
  6
ByLayer
 62
    7
370
   -1
100
AcDbHatch
 10
0
 20
0
 30
0
210
0
220
0
230
1
  2
ANSI31
 70
    0
 71
    0
 91
    1
 92
    0
 93
    4
 72
    1
 10
3530
 20
1608.4
 11
4810
 21
1608.4
 72
    1
 10
4810
 20
1608.4
 11
4810
 21
2608.4
 72
    1
 10
4810
 20
2608.4
 11
3530
 21
2608.4
 72
    1
 10
3530
 20
2608.4
 11
3530
 21
1608.4
 97
    0
 75
    0
 76
    1
 52
0
 41
10
 77
    0
 78
    0
 98
    0
  0
TEXT
  5
C0
100
AcDbEntity
  8
X-ANNO-TEXT
  6
ByLayer
 62
  256
370
   -1
100
AcDbText
 10
3570
 20
2488.4
 30
0
 40
14
  1
INTEGRATION HALL
 50
0
 41
1
 51
0
  7
TITLE
 71
    0
210
0
220
0
230
1
100
AcDbText
  0
TEXT
  5
C1
100
AcDbEntity
  8
X-ANNO-TEXT
  6
ByLayer
 62
  256
370
   -1
100
AcDbText
 10
3570
 20
2458.4
 30
0
 40
9
  1
80,000 SQFT · 320 × 250 ft
 50
0
 41
1
 51
0
  7
ENGINEERING
 71
    0
210
0
220
0
230
1
100
AcDbText
  0
TEXT
  5
C2
100
AcDbEntity
  8
X-ANNO-TEXT
  6
ByLayer
 62
  256
370
   -1
100
AcDbText
 10
3570
 20
2433.4
 30
0
 40
9
  1
48 FT CLEAR · 75T CRANE
 50
0
 41
1
 51
0
  7
ENGINEERING
 71
    0
210
0
220
0
230
1
100
AcDbText
  0
TEXT
  5
C3
100
AcDbEntity
  8
X-ANNO-TEXT
  6
ByLayer
 62
  256
370
   -1
100
AcDbText
 10
3570
 20
2408.4
 30
0
 40
9
  1
PHASE 2 · CAPEX: $14M
 50
0
 41
1
 51
0
  7
ENGINEERING
 71
    0
210
0
220
0
230
1
100
AcDbText
  0
LWPOLYLINE
  5
C4
100
AcDbEntity
  8
A-BLDG-LOGI
  6
ByLayer
 62
  256
370
   -1
100
AcDbPolyline
 90
    5
 70
    0
 43
0
 10
1650
 20
3090
 10
3150
 20
3090
 10
3150
 20
3570
 10
1650
 20
3570
 10
1650
 20
3090
  0
TEXT
  5
C5
100
AcDbEntity
  8
X-ANNO-TEXT
  6
ByLayer
 62
  256
370
   -1
100
AcDbText
 10
1690
 20
3470
 30
0
 40
10
  1
TRUCK DOCK COMPLEX — 16 DOORS
 50
0
 41
1
 51
0
  7
TITLE
 71
    0
210
0
220
0
230
1
100
AcDbText
  0
TEXT
  5
C6
100
AcDbEntity
  8
X-ANNO-TEXT
  6
ByLayer
 62
  256
370
   -1
100
AcDbText
 10
1690
 20
3450
 30
0
 40
8
  1
45,000 SQFT · PHASE 2 · CAPEX: $3.4M
 50
0
 41
1
 51
0
  7
ENGINEERING
 71
    0
210
0
220
0
230
1
100
AcDbText
  0
LWPOLYLINE
  5
C7
100
AcDbEntity
  8
A-BLDG-ADMN
  6
ByLayer
 62
  256
370
   -1
100
AcDbPolyline
 90
    5
 70
    0
 43
0
 10
170
 20
728.3999999999999
 10
970
 20
728.3999999999999
 10
970
 20
1328.4
 10
170
 20
1328.4
 10
170
 20
728.3999999999999
  0
TEXT
  5
C8
100
AcDbEntity
  8
X-ANNO-TEXT
  6
ByLayer
 62
  256
370
   -1
100
AcDbText
 10
190
 20
1308.4
 30
0
 40
10
  1
ADMIN / OFFICE
 50
0
 41
1
 51
0
  7
TITLE
 71
    0
210
0
220
0
230
1
100
AcDbText
  0
TEXT
  5
C9
100
AcDbEntity
  8
X-ANNO-TEXT
  6
ByLayer
 62
  256
370
   -1
100
AcDbText
 10
190
 20
1283.4
 30
0
 40
8
  1
24,000 SQFT · 4 STORY · LEED SILVER
 50
0
 41
1
 51
0
  7
ENGINEERING
 71
    0
210
0
220
0
230
1
100
AcDbText
  0
TEXT
  5
CA
100
AcDbEntity
  8
X-ANNO-TEXT
  6
ByLayer
 62
  256
370
   -1
100
AcDbText
 10
190
 20
1263.4
 30
0
 40
8
  1
300 OCCUPANTS · PHASE 1 · $3.2M
 50
0
 41
1
 51
0
  7
ENGINEERING
 71
    0
210
0
220
0
230
1
100
AcDbText
  0
LWPOLYLINE
  5
CB
100
AcDbEntity
  8
Z-SITE-SOLR
  6
ByLayer
 62
  256
370
   -1
100
AcDbPolyline
 90
    5
 70
    0
 43
0
 10
3550
 20
226
 10
4830
 20
226
 10
4830
 20
1626
 10
3550
 20
1626
 10
3550
 20
226
  0
TEXT
  5
CC
100
AcDbEntity
  8
X-ANNO-TEXT
  6
ByLayer
 62
  256
370
   -1
100
AcDbText
 10
3580
 20
1576
 30
0
 40
12
  1
SOLAR CANOPY ARRAY
 50
0
 41
1
 51
0
  7
TITLE
 71
    0
210
0
220
0
230
1
100
AcDbText
  0
TEXT
  5
CD
100
AcDbEntity
  8
X-ANNO-TEXT
  6
ByLayer
 62
  256
370
   -1
100
AcDbText
 10
3580
 20
1546
 30
0
 40
9
  1
2.8 MW DC · 6,800 PANELS (410W)
 50
0
 41
1
 51
0
  7
ENGINEERING
 71
    0
210
0
220
0
230
1
100
AcDbText
  0
TEXT
  5
CE
100
AcDbEntity
  8
X-ANNO-TEXT
  6
ByLayer
 62
  256
370
   -1
100
AcDbText
 10
3580
 20
1521
 30
0
 40
9
  1
ROOF + PARKING CANOPY · PHASE 3
 50
0
 41
1
 51
0
  7
ENGINEERING
 71
    0
210
0
220
0
230
1
100
AcDbText
  0
LWPOLYLINE
  5
CF
100
AcDbEntity
  8
Z-ZONE-EXPN
  6
ByLayer
 62
  256
370
   -1
100
AcDbPolyline
 90
    5
 70
    0
 43
0
 10
4130
 20
50
 10
4930
 20
50
 10
4930
 20
3570
 10
4130
 20
3570
 10
4130
 20
50
  0
TEXT
  5
D0
100
AcDbEntity
  8
X-ANNO-TEXT
  6
ByLayer
 62
  256
370
   -1
100
AcDbText
 10
4150
 20
1810
 30
0
 40
14
  1
EXPANSION
 50
0
 41
1
 51
0
  7
TITLE
 71
    0
210
0
220
0
230
1
100
AcDbText
  0
TEXT
  5
D1
100
AcDbEntity
  8
X-ANNO-TEXT
  6
ByLayer
 62
  256
370
   -1
100
AcDbText
 10
4150
 20
1780
 30
0
 40
14
  1
RESERVE
 50
0
 41
1
 51
0
  7
TITLE
 71
    0
210
0
220
0
230
1
100
AcDbText
  0
TEXT
  5
D2
100
AcDbEntity
  8
X-ANNO-TEXT
  6
ByLayer
 62
  256
370
   -1
100
AcDbText
 10
4150
 20
1750
 30
0
 40
10
  1
180 ACRES
 50
0
 41
1
 51
0
  7
ENGINEERING
 71
    0
210
0
220
0
230
1
100
AcDbText
  0
TEXT
  5
D3
100
AcDbEntity
  8
X-ANNO-TEXT
  6
ByLayer
 62
  256
370
   -1
100
AcDbText
 10
4150
 20
1725
 30
0
 40
10
  1
PHASE 4+
 50
0
 41
1
 51
0
  7
ENGINEERING
 71
    0
210
0
220
0
230
1
100
AcDbText
  0
LWPOLYLINE
  5
D4
100
AcDbEntity
  8
Z-ZONE-SECU
  6
ByLayer
 62
  256
370
   -1
100
AcDbPolyline
 90
    4
 70
    1
 43
0
 10
30
 20
30
 10
4030
 20
30
 10
4030
 20
3590
 10
30
 20
3590
  0
LINE
  5
D5
100
AcDbEntity
  8
X-ANNO-TEXT
  6
ByLayer
 62
  256
370
   -1
100
AcDbLine
 10
3930
 20
3770
 11
3930
 21
3800
  0
SOLID
  5
D6
100
AcDbEntity
  8
X-ANNO-TEXT
  6
ByLayer
 62
  256
370
   -1
100
AcDbTrace
 10
3925.5
 20
3791
 30
0
 11
3930
 21
3800
 31
0
 12
3934.5
 22
3791
 32
0
 13
3930
 23
3794
 33
0
  0
TEXT
  5
D7
100
AcDbEntity
  8
X-ANNO-TEXT
  6
ByLayer
 62
  256
370
   -1
100
AcDbText
 10
3924
 20
3805
 30
0
 40
16
  1
N
 50
0
 41
1
 51
0
  7
TITLE
 71
    0
210
0
220
0
230
1
100
AcDbText
  0
CIRCLE
  5
D8
100
AcDbEntity
  8
X-ANNO-TEXT
  6
ByLayer
 62
  256
370
   -1
100
AcDbCircle
 10
3930
 20
3785
 40
12
  0
LWPOLYLINE
  5
D9
100
AcDbEntity
  8
X-ANNO-TITL
  6
ByLayer
 62
  256
370
   -1
100
AcDbPolyline
 90
    5
 70
    0
 43
0
 10
4510
 20
3270
 10
4750
 20
3270
 10
4750
 20
3478
 10
4510
 20
3478
 10
4510
 20
3270
  0
TEXT
  5
DA
100
AcDbEntity
  8
X-ANNO-TEXT
  6
ByLayer
 62
  256
370
   -1
100
AcDbText
 10
4520
 20
3462
 30
0
 40
10
  1
LAYER LEGEND
 50
0
 41
1
 51
0
  7
TITLE
 71
    0
210
0
220
0
230
1
100
AcDbText
  0
SOLID
  5
DB
100
AcDbEntity
  8
X-ANNO-TEXT
  6
ByLayer
 62
    4
370
   -1
100
AcDbTrace
 10
4518
 20
3444
 30
0
 11
4534
 21
3444
 31
0
 12
4534
 22
3456
 32
0
 13
4518
 23
3456
 33
0
  0
TEXT
  5
DC
100
AcDbEntity
  8
X-ANNO-TEXT
  6
ByLayer
 62
  256
370
   -1
100
AcDbText
 10
4540
 20
3446
 30
0
 40
8
  1
Production / Manufacturing Buildings
 50
0
 41
1
 51
0
  7
ENGINEERING
 71
    0
210
0
220
0
230
1
100
AcDbText
  0
SOLID
  5
DD
100
AcDbEntity
  8
X-ANNO-TEXT
  6
ByLayer
 62
    3
370
   -1
100
AcDbTrace
 10
4518
 20
3426
 30
0
 11
4534
 21
3426
 31
0
 12
4534
 22
3438
 32
0
 13
4518
 23
3438
 33
0
  0
TEXT
  5
DE
100
AcDbEntity
  8
X-ANNO-TEXT
  6
ByLayer
 62
  256
370
   -1
100
AcDbText
 10
4540
 20
3428
 30
0
 40
8
  1
Utility & Service Buildings
 50
0
 41
1
 51
0
  7
ENGINEERING
 71
    0
210
0
220
0
230
1
100
AcDbText
  0
SOLID
  5
DF
100
AcDbEntity
  8
X-ANNO-TEXT
  6
ByLayer
 62
    5
370
   -1
100
AcDbTrace
 10
4518
 20
3408
 30
0
 11
4534
 21
3408
 31
0
 12
4534
 22
3420
 32
0
 13
4518
 23
3420
 33
0
  0
TEXT
  5
E0
100
AcDbEntity
  8
X-ANNO-TEXT
  6
ByLayer
 62
  256
370
   -1
100
AcDbText
 10
4540
 20
3410
 30
0
 40
8
  1
Admin / Office Buildings
 50
0
 41
1
 51
0
  7
ENGINEERING
 71
    0
210
0
220
0
230
1
100
AcDbText
  0
SOLID
  5
E1
100
AcDbEntity
  8
X-ANNO-TEXT
  6
ByLayer
 62
    6
370
   -1
100
AcDbTrace
 10
4518
 20
3390
 30
0
 11
4534
 21
3390
 31
0
 12
4534
 22
3402
 32
0
 13
4518
 23
3402
 33
0
  0
TEXT
  5
E2
100
AcDbEntity
  8
X-ANNO-TEXT
  6
ByLayer
 62
  256
370
   -1
100
AcDbText
 10
4540
 20
3392
 30
0
 40
8
  1
Logistics / Storage Buildings
 50
0
 41
1
 51
0
  7
ENGINEERING
 71
    0
210
0
220
0
230
1
100
AcDbText
  0
SOLID
  5
E3
100
AcDbEntity
  8
X-ANNO-TEXT
  6
ByLayer
 62
    2
370
   -1
100
AcDbTrace
 10
4518
 20
3372
 30
0
 11
4534
 21
3372
 31
0
 12
4534
 22
3384
 32
0
 13
4518
 23
3384
 33
0
  0
TEXT
  5
E4
100
AcDbEntity
  8
X-ANNO-TEXT
  6
ByLayer
 62
  256
370
   -1
100
AcDbText
 10
4540
 20
3374
 30
0
 40
8
  1
Power Infrastructure / Solar
 50
0
 41
1
 51
0
  7
ENGINEERING
 71
    0
210
0
220
0
230
1
100
AcDbText
  0
SOLID
  5
E5
100
AcDbEntity
  8
X-ANNO-TEXT
  6
ByLayer
 62
    1
370
   -1
100
AcDbTrace
 10
4518
 20
3354
 30
0
 11
4534
 21
3354
 31
0
 12
4534
 22
3366
 32
0
 13
4518
 23
3366
 33
0
  0
TEXT
  5
E6
100
AcDbEntity
  8
X-ANNO-TEXT
  6
ByLayer
 62
  256
370
   -1
100
AcDbText
 10
4540
 20
3356
 30
0
 40
8
  1
Rail Infrastructure
 50
0
 41
1
 51
0
  7
ENGINEERING
 71
    0
210
0
220
0
230
1
100
AcDbText
  0
SOLID
  5
E7
100
AcDbEntity
  8
X-ANNO-TEXT
  6
ByLayer
 62
    8
370
   -1
100
AcDbTrace
 10
4518
 20
3336
 30
0
 11
4534
 21
3336
 31
0
 12
4534
 22
3348
 32
0
 13
4518
 23
3348
 33
0
  0
TEXT
  5
E8
100
AcDbEntity
  8
X-ANNO-TEXT
  6
ByLayer
 62
  256
370
   -1
100
AcDbText
 10
4540
 20
3338
 30
0
 40
8
  1
Roads & Paving
 50
0
 41
1
 51
0
  7
ENGINEERING
 71
    0
210
0
220
0
230
1
100
AcDbText
  0
SOLID
  5
E9
100
AcDbEntity
  8
X-ANNO-TEXT
  6
ByLayer
 62
    4
370
   -1
100
AcDbTrace
 10
4518
 20
3318
 30
0
 11
4534
 21
3318
 31
0
 12
4534
 22
3330
 32
0
 13
4518
 23
3330
 33
0
  0
TEXT
  5
EA
100
AcDbEntity
  8
X-ANNO-TEXT
  6
ByLayer
 62
  256
370
   -1
100
AcDbText
 10
4540
 20
3320
 30
0
 40
8
  1
Environmental / Stormwater Zone
 50
0
 41
1
 51
0
  7
ENGINEERING
 71
    0
210
0
220
0
230
1
100
AcDbText
  0
SOLID
  5
EB
100
AcDbEntity
  8
X-ANNO-TEXT
  6
ByLayer
 62
    6
370
   -1
100
AcDbTrace
 10
4518
 20
3300
 30
0
 11
4534
 21
3300
 31
0
 12
4534
 22
3312
 32
0
 13
4518
 23
3312
 33
0
  0
TEXT
  5
EC
100
AcDbEntity
  8
X-ANNO-TEXT
  6
ByLayer
 62
  256
370
   -1
100
AcDbText
 10
4540
 20
3302
 30
0
 40
8
  1
Expansion Reserve Zone
 50
0
 41
1
 51
0
  7
ENGINEERING
 71
    0
210
0
220
0
230
1
100
AcDbText
  0
SOLID
  5
ED
100
AcDbEntity
  8
X-ANNO-TEXT
  6
ByLayer
 62
    1
370
   -1
100
AcDbTrace
 10
4518
 20
3282
 30
0
 11
4534
 21
3282
 31
0
 12
4534
 22
3294
 32
0
 13
4518
 23
3294
 33
0
  0
TEXT
  5
EE
100
AcDbEntity
  8
X-ANNO-TEXT
  6
ByLayer
 62
  256
370
   -1
100
AcDbText
 10
4540
 20
3284
 30
0
 40
8
  1
Security Perimeter
 50
0
 41
1
 51
0
  7
ENGINEERING
 71
    0
210
0
220
0
230
1
100
AcDbText
  0
LWPOLYLINE
  5
EF
100
AcDbEntity
  8
X-ANNO-TITL
  6
ByLayer
 62
  256
370
   -1
100
AcDbPolyline
 90
    5
 70
    0
 43
0
 10
0
 20
-120
 10
1200
 20
-120
 10
1200
 20
0
 10
0
 20
0
 10
0
 20
-120
  0
LINE
  5
F0
100
AcDbEntity
  8
X-ANNO-TITL
  6
ByLayer
 62
  256
370
   -1
100
AcDbLine
 10
800
 20
-120
 11
800
 21
0
  0
LINE
  5
F1
100
AcDbEntity
  8
X-ANNO-TITL
  6
ByLayer
 62
  256
370
   -1
100
AcDbLine
 10
1000
 20
-120
 11
1000
 21
0
  0
LINE
  5
F2
100
AcDbEntity
  8
X-ANNO-TITL
  6
ByLayer
 62
  256
370
   -1
100
AcDbLine
 10
800
 20
-60
 11
1000
 21
-60
  0
LINE
  5
F3
100
AcDbEntity
  8
X-ANNO-TITL
  6
ByLayer
 62
  256
370
   -1
100
AcDbLine
 10
800
 20
-90
 11
800
 21
-90
  0
LINE
  5
F4
100
AcDbEntity
  8
X-ANNO-TITL
  6
ByLayer
 62
  256
370
   -1
100
AcDbLine
 10
0
 20
-80
 11
800
 21
-80
  0
LINE
  5
F5
100
AcDbEntity
  8
X-ANNO-TITL
  6
ByLayer
 62
  256
370
   -1
100
AcDbLine
 10
0
 20
-50
 11
800
 21
-50
  0
LINE
  5
F6
100
AcDbEntity
  8
X-ANNO-TITL
  6
ByLayer
 62
  256
370
   -1
100
AcDbLine
 10
0
 20
-30
 11
800
 21
-30
  0
TEXT
  5
F7
100
AcDbEntity
  8
X-ANNO-TEXT
  6
ByLayer
 62
  256
370
   -1
100
AcDbText
 10
10
 20
-25
 30
0
 40
11
  1
MIP PLATFORM — MANUFACTURING INFRASTRUCTURE MASTERPLAN
 50
0
 41
1
 51
0
  7
TITLE
 71
    0
210
0
220
0
230
1
100
AcDbText
  0
TEXT
  5
F8
100
AcDbEntity
  8
X-ANNO-TEXT
  6
ByLayer
 62
  256
370
   -1
100
AcDbText
 10
10
 20
-45
 30
0
 40
14
  1
SITE: TACOMA INDUSTRIAL PARK
 50
0
 41
1
 51
0
  7
TITLE
 71
    0
210
0
220
0
230
1
100
AcDbText
  0
TEXT
  5
F9
100
AcDbEntity
  8
X-ANNO-TEXT
  6
ByLayer
 62
  256
370
   -1
100
AcDbText
 10
10
 20
-70
 30
0
 40
9
  1
County: Pierce County, WA  ·  Site Area: 320 Acres  ·  Site ID: TACOMA
 50
0
 41
1
 51
0
  7
ENGINEERING
 71
    0
210
0
220
0
230
1
100
AcDbText
  0
TEXT
  5
FA
100
AcDbEntity
  8
X-ANNO-TEXT
  6
ByLayer
 62
  256
370
   -1
100
AcDbText
 10
10
 20
-100
 30
0
 40
8
  1
PRELIMINARY MASTERPLAN — PRE-CONSTRUCTION BLUEPRINT INTELLIGENCE PLATFORM
 50
0
 41
1
 51
0
  7
ENGINEERING
 71
    0
210
0
220
0
230
1
100
AcDbText
  0
TEXT
  5
FB
100
AcDbEntity
  8
X-ANNO-TEXT
  6
ByLayer
 62
  256
370
   -1
100
AcDbText
 10
10
 20
-112
 30
0
 40
7
  1
FOR PLANNING PURPOSES ONLY — NOT FOR CONSTRUCTION
 50
0
 41
1
 51
0
  7
ENGINEERING
 71
    0
210
0
220
0
230
1
100
AcDbText
  0
TEXT
  5
FC
100
AcDbEntity
  8
X-ANNO-TEXT
  6
ByLayer
 62
  256
370
   -1
100
AcDbText
 10
810
 20
-20
 30
0
 40
8
  1
SCALE:
 50
0
 41
1
 51
0
  7
ENGINEERING
 71
    0
210
0
220
0
230
1
100
AcDbText
  0
TEXT
  5
FD
100
AcDbEntity
  8
X-ANNO-TEXT
  6
ByLayer
 62
  256
370
   -1
100
AcDbText
 10
810
 20
-32
 30
0
 40
10
  1
1:2400 (1" = 200')
 50
0
 41
1
 51
0
  7
TITLE
 71
    0
210
0
220
0
230
1
100
AcDbText
  0
TEXT
  5
FE
100
AcDbEntity
  8
X-ANNO-TEXT
  6
ByLayer
 62
  256
370
   -1
100
AcDbText
 10
810
 20
-48
 30
0
 40
7
  1
DRAWN BY:
 50
0
 41
1
 51
0
  7
ENGINEERING
 71
    0
210
0
220
0
230
1
100
AcDbText
  0
TEXT
  5
FF
100
AcDbEntity
  8
X-ANNO-TEXT
  6
ByLayer
 62
  256
370
   -1
100
AcDbText
 10
810
 20
-60
 30
0
 40
8
  1
MIP AI Platform
 50
0
 41
1
 51
0
  7
ENGINEERING
 71
    0
210
0
220
0
230
1
100
AcDbText
  0
TEXT
  5
100
100
AcDbEntity
  8
X-ANNO-TEXT
  6
ByLayer
 62
  256
370
   -1
100
AcDbText
 10
810
 20
-75
 30
0
 40
7
  1
CHECKED:
 50
0
 41
1
 51
0
  7
ENGINEERING
 71
    0
210
0
220
0
230
1
100
AcDbText
  0
TEXT
  5
101
100
AcDbEntity
  8
X-ANNO-TEXT
  6
ByLayer
 62
  256
370
   -1
100
AcDbText
 10
810
 20
-87
 30
0
 40
8
  1
Engineering Review
 50
0
 41
1
 51
0
  7
ENGINEERING
 71
    0
210
0
220
0
230
1
100
AcDbText
  0
TEXT
  5
102
100
AcDbEntity
  8
X-ANNO-TEXT
  6
ByLayer
 62
  256
370
   -1
100
AcDbText
 10
810
 20
-100
 30
0
 40
7
  1
DATE:
 50
0
 41
1
 51
0
  7
ENGINEERING
 71
    0
210
0
220
0
230
1
100
AcDbText
  0
TEXT
  5
103
100
AcDbEntity
  8
X-ANNO-TEXT
  6
ByLayer
 62
  256
370
   -1
100
AcDbText
 10
810
 20
-112
 30
0
 40
8
  1
2026-05-25
 50
0
 41
1
 51
0
  7
ENGINEERING
 71
    0
210
0
220
0
230
1
100
AcDbText
  0
TEXT
  5
104
100
AcDbEntity
  8
X-ANNO-TEXT
  6
ByLayer
 62
  256
370
   -1
100
AcDbText
 10
1010
 20
-20
 30
0
 40
8
  1
SHEET:
 50
0
 41
1
 51
0
  7
ENGINEERING
 71
    0
210
0
220
0
230
1
100
AcDbText
  0
TEXT
  5
105
100
AcDbEntity
  8
X-ANNO-TEXT
  6
ByLayer
 62
  256
370
   -1
100
AcDbText
 10
1010
 20
-40
 30
0
 40
20
  1
TAC-M-001
 50
0
 41
1
 51
0
  7
TITLE
 71
    0
210
0
220
0
230
1
100
AcDbText
  0
TEXT
  5
106
100
AcDbEntity
  8
X-ANNO-TEXT
  6
ByLayer
 62
  256
370
   -1
100
AcDbText
 10
1010
 20
-65
 30
0
 40
8
  1
REV:
 50
0
 41
1
 51
0
  7
ENGINEERING
 71
    0
210
0
220
0
230
1
100
AcDbText
  0
TEXT
  5
107
100
AcDbEntity
  8
X-ANNO-TEXT
  6
ByLayer
 62
  256
370
   -1
100
AcDbText
 10
1010
 20
-85
 30
0
 40
14
  1
A
 50
0
 41
1
 51
0
  7
TITLE
 71
    0
210
0
220
0
230
1
100
AcDbText
  0
TEXT
  5
108
100
AcDbEntity
  8
X-ANNO-TEXT
  6
ByLayer
 62
  256
370
   -1
100
AcDbText
 10
1010
 20
-105
 30
0
 40
8
  1
PRELIMINARY
 50
0
 41
1
 51
0
  7
ENGINEERING
 71
    0
210
0
220
0
230
1
100
AcDbText
  0
ENDSEC
  0
SECTION
  2
OBJECTS
  0
DICTIONARY
  5
C
330
0
100
AcDbDictionary
281
    1
  3
ACAD_GROUP
350
D
  0
DICTIONARY
  5
D
330
C
100
AcDbDictionary
281
    1
  0
PLOTSETTINGS
  5
109
100
AcDbPlotSettings
  6
1x1
 40
0
 41
0
 42
0
 43
0
  0
ENDSEC
  0
EOF
