  0
SECTION
  2
HEADER
  9
$ACADVER
  1
AC1032
  9
$ACADMAINTVER
 90
4
  9
$DWGCODEPAGE
  3
ANSI_1252
  9
$LASTSAVEDBY
  1
ezdxf
  9
$REQUIREDVERSIONS
160
0
  9
$INSBASE
 10
0.0
 20
0.0
 30
0.0
  9
$EXTMIN
 10
1e+20
 20
1e+20
 30
1e+20
  9
$EXTMAX
 10
-1e+20
 20
-1e+20
 30
-1e+20
  9
$LIMMIN
 10
0.0
 20
0.0
  9
$LIMMAX
 10
420.0
 20
297.0
  9
$ORTHOMODE
 70
0
  9
$REGENMODE
 70
1
  9
$FILLMODE
 70
1
  9
$QTEXTMODE
 70
0
  9
$MIRRTEXT
 70
1
  9
$LTSCALE
 40
1.0
  9
$ATTMODE
 70
1
  9
$TEXTSIZE
 40
2.5
  9
$TRACEWID
 40
1.0
  9
$TEXTSTYLE
  7
Standard
  9
$CLAYER
  8
0
  9
$CELTYPE
  6
ByLayer
  9
$CECOLOR
 62
256
  9
$CELTSCALE
 40
1.0
  9
$DISPSILH
 70
0
  9
$DIMSCALE
 40
1.0
  9
$DIMASZ
 40
2.5
  9
$DIMEXO
 40
0.625
  9
$DIMDLI
 40
3.75
  9
$DIMRND
 40
0.0
  9
$DIMDLE
 40
0.0
  9
$DIMEXE
 40
1.25
  9
$DIMTP
 40
0.0
  9
$DIMTM
 40
0.0
  9
$DIMTXT
 40
2.5
  9
$DIMCEN
 40
2.5
  9
$DIMTSZ
 40
0.0
  9
$DIMTOL
 70
0
  9
$DIMLIM
 70
0
  9
$DIMTIH
 70
0
  9
$DIMTOH
 70
0
  9
$DIMSE1
 70
0
  9
$DIMSE2
 70
0
  9
$DIMTAD
 70
1
  9
$DIMZIN
 70
8
  9
$DIMBLK
  1

  9
$DIMASO
 70
1
  9
$DIMSHO
 70
1
  9
$DIMPOST
  1

  9
$DIMAPOST
  1

  9
$DIMALT
 70
0
  9
$DIMALTD
 70
3
  9
$DIMALTF
 40
0.03937007874
  9
$DIMLFAC
 40
1.0
  9
$DIMTOFL
 70
1
  9
$DIMTVP
 40
0.0
  9
$DIMTIX
 70
0
  9
$DIMSOXD
 70
0
  9
$DIMSAH
 70
0
  9
$DIMBLK1
  1

  9
$DIMBLK2
  1

  9
$DIMSTYLE
  2
ISO-25
  9
$DIMCLRD
 70
0
  9
$DIMCLRE
 70
0
  9
$DIMCLRT
 70
0
  9
$DIMTFAC
 40
1.0
  9
$DIMGAP
 40
0.625
  9
$DIMJUST
 70
0
  9
$DIMSD1
 70
0
  9
$DIMSD2
 70
0
  9
$DIMTOLJ
 70
0
  9
$DIMTZIN
 70
8
  9
$DIMALTZ
 70
0
  9
$DIMALTTZ
 70
0
  9
$DIMUPT
 70
0
  9
$DIMDEC
 70
2
  9
$DIMTDEC
 70
2
  9
$DIMALTU
 70
2
  9
$DIMALTTD
 70
3
  9
$DIMTXSTY
  7
Standard
  9
$DIMAUNIT
 70
0
  9
$DIMADEC
 70
0
  9
$DIMALTRND
 40
0.0
  9
$DIMAZIN
 70
0
  9
$DIMDSEP
 70
44
  9
$DIMATFIT
 70
3
  9
$DIMFRAC
 70
0
  9
$DIMLDRBLK
  1

  9
$DIMLUNIT
 70
2
  9
$DIMLWD
 70
-2
  9
$DIMLWE
 70
-2
  9
$DIMTMOVE
 70
0
  9
$DIMFXL
 40
1.0
  9
$DIMFXLON
 70
0
  9
$DIMJOGANG
 40
0.785398163397
  9
$DIMTFILL
 70
0
  9
$DIMTFILLCLR
 70
0
  9
$DIMARCSYM
 70
0
  9
$DIMLTYPE
  6

  9
$DIMLTEX1
  6

  9
$DIMLTEX2
  6

  9
$DIMTXTDIRECTION
 70
0
  9
$LUNITS
 70
2
  9
$LUPREC
 70
4
  9
$SKETCHINC
 40
1.0
  9
$FILLETRAD
 40
10.0
  9
$AUNITS
 70
0
  9
$AUPREC
 70
2
  9
$MENU
  1
.
  9
$ELEVATION
 40
0.0
  9
$PELEVATION
 40
0.0
  9
$THICKNESS
 40
0.0
  9
$LIMCHECK
 70
0
  9
$CHAMFERA
 40
0.0
  9
$CHAMFERB
 40
0.0
  9
$CHAMFERC
 40
0.0
  9
$CHAMFERD
 40
0.0
  9
$SKPOLY
 70
0
  9
$TDCREATE
 40
2461186.512523148
  9
$TDUCREATE
 40
2458532.153996898
  9
$TDUPDATE
 40
2461186.512523148
  9
$TDUUPDATE
 40
2458532.1544311
  9
$TDINDWG
 40
0.0
  9
$TDUSRTIMER
 40
0.0
  9
$USRTIMER
 70
1
  9
$ANGBASE
 50
0.0
  9
$ANGDIR
 70
0
  9
$PDMODE
 70
0
  9
$PDSIZE
 40
0.0
  9
$PLINEWID
 40
0.0
  9
$SPLFRAME
 70
0
  9
$SPLINETYPE
 70
6
  9
$SPLINESEGS
 70
8
  9
$HANDSEED
  5
F1
  9
$SURFTAB1
 70
6
  9
$SURFTAB2
 70
6
  9
$SURFTYPE
 70
6
  9
$SURFU
 70
6
  9
$SURFV
 70
6
  9
$UCSBASE
  2

  9
$UCSNAME
  2

  9
$UCSORG
 10
0.0
 20
0.0
 30
0.0
  9
$UCSXDIR
 10
1.0
 20
0.0
 30
0.0
  9
$UCSYDIR
 10
0.0
 20
1.0
 30
0.0
  9
$UCSORTHOREF
  2

  9
$UCSORTHOVIEW
 70
0
  9
$UCSORGTOP
 10
0.0
 20
0.0
 30
0.0
  9
$UCSORGBOTTOM
 10
0.0
 20
0.0
 30
0.0
  9
$UCSORGLEFT
 10
0.0
 20
0.0
 30
0.0
  9
$UCSORGRIGHT
 10
0.0
 20
0.0
 30
0.0
  9
$UCSORGFRONT
 10
0.0
 20
0.0
 30
0.0
  9
$UCSORGBACK
 10
0.0
 20
0.0
 30
0.0
  9
$PUCSBASE
  2

  9
$PUCSNAME
  2

  9
$PUCSORG
 10
0.0
 20
0.0
 30
0.0
  9
$PUCSXDIR
 10
1.0
 20
0.0
 30
0.0
  9
$PUCSYDIR
 10
0.0
 20
1.0
 30
0.0
  9
$PUCSORTHOREF
  2

  9
$PUCSORTHOVIEW
 70
0
  9
$PUCSORGTOP
 10
0.0
 20
0.0
 30
0.0
  9
$PUCSORGBOTTOM
 10
0.0
 20
0.0
 30
0.0
  9
$PUCSORGLEFT
 10
0.0
 20
0.0
 30
0.0
  9
$PUCSORGRIGHT
 10
0.0
 20
0.0
 30
0.0
  9
$PUCSORGFRONT
 10
0.0
 20
0.0
 30
0.0
  9
$PUCSORGBACK
 10
0.0
 20
0.0
 30
0.0
  9
$USERI1
 70
0
  9
$USERI2
 70
0
  9
$USERI3
 70
0
  9
$USERI4
 70
0
  9
$USERI5
 70
0
  9
$USERR1
 40
0.0
  9
$USERR2
 40
0.0
  9
$USERR3
 40
0.0
  9
$USERR4
 40
0.0
  9
$USERR5
 40
0.0
  9
$WORLDVIEW
 70
1
  9
$SHADEDGE
 70
3
  9
$SHADEDIF
 70
70
  9
$TILEMODE
 70
1
  9
$MAXACTVP
 70
64
  9
$PINSBASE
 10
0.0
 20
0.0
 30
0.0
  9
$PLIMCHECK
 70
0
  9
$PEXTMIN
 10
1e+20
 20
1e+20
 30
1e+20
  9
$PEXTMAX
 10
-1e+20
 20
-1e+20
 30
-1e+20
  9
$PLIMMIN
 10
0.0
 20
0.0
  9
$PLIMMAX
 10
420.0
 20
297.0
  9
$UNITMODE
 70
0
  9
$VISRETAIN
 70
1
  9
$PLINEGEN
 70
0
  9
$PSLTSCALE
 70
1
  9
$TREEDEPTH
 70
3020
  9
$CMLSTYLE
  2
Standard
  9
$CMLJUST
 70
0
  9
$CMLSCALE
 40
20.0
  9
$PROXYGRAPHICS
 70
1
  9
$MEASUREMENT
 70
1
  9
$CELWEIGHT
370
-1
  9
$ENDCAPS
280
0
  9
$JOINSTYLE
280
0
  9
$LWDISPLAY
290
0
  9
$INSUNITS
 70
0
  9
$HYPERLINKBASE
  1

  9
$STYLESHEET
  1

  9
$XEDIT
290
1
  9
$CEPSNTYPE
380
0
  9
$PSTYLEMODE
290
1
  9
$FINGERPRINTGUID
  2
{4C0F4590-71D1-425B-8650-26FBAA1D1C07}
  9
$VERSIONGUID
  2
{2B6CC7D9-C348-4F0B-B5BA-949D2ED6C5C2}
  9
$EXTNAMES
290
1
  9
$PSVPSCALE
 40
0.0
  9
$OLESTARTUP
290
0
  9
$SORTENTS
280
127
  9
$INDEXCTL
280
0
  9
$HIDETEXT
280
1
  9
$XCLIPFRAME
280
1
  9
$HALOGAP
280
0
  9
$OBSCOLOR
 70
257
  9
$OBSLTYPE
280
0
  9
$INTERSECTIONDISPLAY
280
0
  9
$INTERSECTIONCOLOR
 70
257
  9
$DIMASSOC
280
2
  9
$PROJECTNAME
  1

  9
$CAMERADISPLAY
290
0
  9
$LENSLENGTH
 40
50.0
  9
$CAMERAHEIGHT
 40
0.0
  9
$STEPSPERSEC
 40
24.0
  9
$STEPSIZE
 40
100.0
  9
$3DDWFPREC
 40
2.0
  9
$PSOLWIDTH
 40
0.005
  9
$PSOLHEIGHT
 40
0.08
  9
$LOFTANG1
 40
1.570796326795
  9
$LOFTANG2
 40
1.570796326795
  9
$LOFTMAG1
 40
0.0
  9
$LOFTMAG2
 40
0.0
  9
$LOFTPARAM
 70
7
  9
$LOFTNORMALS
280
1
  9
$LATITUDE
 40
37.795
  9
$LONGITUDE
 40
-122.394
  9
$NORTHDIRECTION
 40
0.0
  9
$TIMEZONE
 70
-8000
  9
$LIGHTGLYPHDISPLAY
280
1
  9
$TILEMODELIGHTSYNCH
280
1
  9
$CMATERIAL
347
20
  9
$SOLIDHIST
280
0
  9
$SHOWHIST
280
1
  9
$DWFFRAME
280
2
  9
$DGNFRAME
280
2
  9
$REALWORLDSCALE
290
1
  9
$INTERFERECOLOR
 62
256
  9
$CSHADOW
280
0
  9
$SHADOWPLANELOCATION
 40
0.0
  0
ENDSEC
  0
SECTION
  2
CLASSES
  0
CLASS
  1
ACDBDICTIONARYWDFLT
  2
AcDbDictionaryWithDefault
  3
ObjectDBX Classes
 90
0
 91
0
280
0
281
0
  0
CLASS
  1
SUN
  2
AcDbSun
  3
SCENEOE
 90
1153
 91
0
280
0
281
0
  0
CLASS
  1
VISUALSTYLE
  2
AcDbVisualStyle
  3
ObjectDBX Classes
 90
4095
 91
0
280
0
281
0
  0
CLASS
  1
MATERIAL
  2
AcDbMaterial
  3
ObjectDBX Classes
 90
1153
 91
0
280
0
281
0
  0
CLASS
  1
SCALE
  2
AcDbScale
  3
ObjectDBX Classes
 90
1153
 91
0
280
0
281
0
  0
CLASS
  1
TABLESTYLE
  2
AcDbTableStyle
  3
ObjectDBX Classes
 90
4095
 91
0
280
0
281
0
  0
CLASS
  1
MLEADERSTYLE
  2
AcDbMLeaderStyle
  3
ACDB_MLEADERSTYLE_CLASS
 90
4095
 91
0
280
0
281
0
  0
CLASS
  1
DICTIONARYVAR
  2
AcDbDictionaryVar
  3
ObjectDBX Classes
 90
0
 91
0
280
0
281
0
  0
CLASS
  1
CELLSTYLEMAP
  2
AcDbCellStyleMap
  3
ObjectDBX Classes
 90
1152
 91
0
280
0
281
0
  0
CLASS
  1
MENTALRAYRENDERSETTINGS
  2
AcDbMentalRayRenderSettings
  3
SCENEOE
 90
1024
 91
0
280
0
281
0
  0
CLASS
  1
ACDBDETAILVIEWSTYLE
  2
AcDbDetailViewStyle
  3
ObjectDBX Classes
 90
1025
 91
0
280
0
281
0
  0
CLASS
  1
ACDBSECTIONVIEWSTYLE
  2
AcDbSectionViewStyle
  3
ObjectDBX Classes
 90
1025
 91
0
280
0
281
0
  0
CLASS
  1
RASTERVARIABLES
  2
AcDbRasterVariables
  3
ISM
 90
0
 91
0
280
0
281
0
  0
CLASS
  1
LAYOUT
  2
AcDbLayout
  3
ObjectDBX Classes
 90
0
 91
0
280
0
281
0
  0
CLASS
  1
ACDBPLACEHOLDER
  2
AcDbPlaceHolder
  3
ObjectDBX Classes
 90
0
 91
0
280
0
281
0
  0
ENDSEC
  0
SECTION
  2
TABLES
  0
TABLE
  2
VPORT
  5
8
330
0
100
AcDbSymbolTable
 70
1
  0
VPORT
  5
23
330
8
100
AcDbSymbolTableRecord
100
AcDbViewportTableRecord
  2
*Active
 70
0
 10
0.0
 20
0.0
 11
1.0
 21
1.0
 12
0.0
 22
0.0
 13
0.0
 23
0.0
 14
0.5
 24
0.5
 15
0.5
 25
0.5
 16
0.0
 26
0.0
 36
1.0
 17
0.0
 27
0.0
 37
0.0
 40
1000.0
 41
1.34
 42
50.0
 43
0.0
 44
0.0
 50
0.0
 51
0.0
 71
0
 72
1000
 73
1
 74
3
 75
0
 76
0
 77
0
 78
0
281
0
 65
0
146
0.0
  0
ENDTAB
  0
TABLE
  2
LTYPE
  5
2
330
0
100
AcDbSymbolTable
 70
3
  0
LTYPE
  5
24
330
2
100
AcDbSymbolTableRecord
100
AcDbLinetypeTableRecord
  2
ByBlock
 70
0
  3

 72
65
 73
0
 40
0.0
  0
LTYPE
  5
25
330
2
100
AcDbSymbolTableRecord
100
AcDbLinetypeTableRecord
  2
ByLayer
 70
0
  3

 72
65
 73
0
 40
0.0
  0
LTYPE
  5
26
330
2
100
AcDbSymbolTableRecord
100
AcDbLinetypeTableRecord
  2
Continuous
 70
0
  3

 72
65
 73
0
 40
0.0
  0
ENDTAB
  0
TABLE
  2
LAYER
  5
1
330
0
100
AcDbSymbolTable
 70
24
  0
LAYER
  5
27
330
1
100
AcDbSymbolTableRecord
100
AcDbLayerTableRecord
  2
0
 70
0
 62
7
  6
Continuous
370
-3
390
13
347
21
  0
LAYER
  5
28
330
1
100
AcDbSymbolTableRecord
100
AcDbLayerTableRecord
  2
Defpoints
 70
0
 62
7
  6
Continuous
290
0
370
-3
390
13
347
21
  0
LAYER
  5
2F
330
1
100
AcDbSymbolTableRecord
100
AcDbLayerTableRecord
  2
A-BLDG-PROD
 70
0
 62
4
  6
Continuous
370
-3
390
13
347
21
  0
LAYER
  5
30
330
1
100
AcDbSymbolTableRecord
100
AcDbLayerTableRecord
  2
A-BLDG-UTIL
 70
0
 62
3
  6
Continuous
370
-3
390
13
347
21
  0
LAYER
  5
31
330
1
100
AcDbSymbolTableRecord
100
AcDbLayerTableRecord
  2
A-BLDG-ADMN
 70
0
 62
5
  6
Continuous
370
-3
390
13
347
21
  0
LAYER
  5
32
330
1
100
AcDbSymbolTableRecord
100
AcDbLayerTableRecord
  2
A-BLDG-LOGI
 70
0
 62
6
  6
Continuous
370
-3
390
13
347
21
  0
LAYER
  5
33
330
1
100
AcDbSymbolTableRecord
100
AcDbLayerTableRecord
  2
C-SITE-BOUN
 70
0
 62
7
  6
Continuous
370
-3
390
13
347
21
  0
LAYER
  5
34
330
1
100
AcDbSymbolTableRecord
100
AcDbLayerTableRecord
  2
C-SITE-ROAD
 70
0
 62
8
  6
Continuous
370
-3
390
13
347
21
  0
LAYER
  5
35
330
1
100
AcDbSymbolTableRecord
100
AcDbLayerTableRecord
  2
C-SITE-STRM
 70
0
 62
5
  6
Continuous
370
-3
390
13
347
21
  0
LAYER
  5
36
330
1
100
AcDbSymbolTableRecord
100
AcDbLayerTableRecord
  2
C-SITE-BRMF
 70
0
 62
1
  6
Continuous
370
-3
390
13
347
21
  0
LAYER
  5
37
330
1
100
AcDbSymbolTableRecord
100
AcDbLayerTableRecord
  2
E-UTIL-POWR
 70
0
 62
2
  6
Continuous
370
-3
390
13
347
21
  0
LAYER
  5
38
330
1
100
AcDbSymbolTableRecord
100
AcDbLayerTableRecord
  2
E-UTIL-FIBU
 70
0
 62
4
  6
Continuous
370
-3
390
13
347
21
  0
LAYER
  5
39
330
1
100
AcDbSymbolTableRecord
100
AcDbLayerTableRecord
  2
P-UTIL-WATR
 70
0
 62
5
  6
Continuous
370
-3
390
13
347
21
  0
LAYER
  5
3A
330
1
100
AcDbSymbolTableRecord
100
AcDbLayerTableRecord
  2
P-UTIL-SWER
 70
0
 62
3
  6
Continuous
370
-3
390
13
347
21
  0
LAYER
  5
3B
330
1
100
AcDbSymbolTableRecord
100
AcDbLayerTableRecord
  2
T-RAIL
 70
0
 62
1
  6
Continuous
370
-3
390
13
347
21
  0
LAYER
  5
3C
330
1
100
AcDbSymbolTableRecord
100
AcDbLayerTableRecord
  2
T-ROAD-PUBL
 70
0
 62
8
  6
Continuous
370
-3
390
13
347
21
  0
LAYER
  5
3D
330
1
100
AcDbSymbolTableRecord
100
AcDbLayerTableRecord
  2
Z-ZONE-ENVR
 70
0
 62
3
  6
Continuous
370
-3
390
13
347
21
  0
LAYER
  5
3E
330
1
100
AcDbSymbolTableRecord
100
AcDbLayerTableRecord
  2
Z-ZONE-EXPN
 70
0
 62
6
  6
Continuous
370
-3
390
13
347
21
  0
LAYER
  5
3F
330
1
100
AcDbSymbolTableRecord
100
AcDbLayerTableRecord
  2
Z-ZONE-SECU
 70
0
 62
1
  6
Continuous
370
-3
390
13
347
21
  0
LAYER
  5
40
330
1
100
AcDbSymbolTableRecord
100
AcDbLayerTableRecord
  2
Z-SITE-SOLR
 70
0
 62
2
  6
Continuous
370
-3
390
13
347
21
  0
LAYER
  5
41
330
1
100
AcDbSymbolTableRecord
100
AcDbLayerTableRecord
  2
X-ANNO-TEXT
 70
0
 62
7
  6
Continuous
370
-3
390
13
347
21
  0
LAYER
  5
42
330
1
100
AcDbSymbolTableRecord
100
AcDbLayerTableRecord
  2
X-ANNO-DIMS
 70
0
 62
4
  6
Continuous
370
-3
390
13
347
21
  0
LAYER
  5
43
330
1
100
AcDbSymbolTableRecord
100
AcDbLayerTableRecord
  2
X-ANNO-TITL
 70
0
 62
7
  6
Continuous
370
-3
390
13
347
21
  0
LAYER
  5
44
330
1
100
AcDbSymbolTableRecord
100
AcDbLayerTableRecord
  2
X-ANNO-GRID
 70
0
 62
8
  6
Continuous
370
-3
390
13
347
21
  0
ENDTAB
  0
TABLE
  2
STYLE
  5
5
330
0
100
AcDbSymbolTable
 70
3
  0
STYLE
  5
29
330
5
100
AcDbSymbolTableRecord
100
AcDbTextStyleTableRecord
  2
Standard
 70
0
 40
0.0
 41
1.0
 50
0.0
 71
0
 42
2.5
  3
txt
  4

  0
STYLE
  5
45
330
5
100
AcDbSymbolTableRecord
100
AcDbTextStyleTableRecord
  2
ENGINEERING
 70
0
 40
0.0
 41
1.0
 50
0.0
 71
0
 42
2.5
  3
romans.shx
  4

  0
STYLE
  5
46
330
5
100
AcDbSymbolTableRecord
100
AcDbTextStyleTableRecord
  2
TITLE
 70
0
 40
0.0
 41
1.0
 50
0.0
 71
0
 42
2.5
  3
romand.shx
  4

  0
ENDTAB
  0
TABLE
  2
VIEW
  5
7
330
0
100
AcDbSymbolTable
 70
0
  0
ENDTAB
  0
TABLE
  2
UCS
  5
6
330
0
100
AcDbSymbolTable
 70
0
  0
ENDTAB
  0
TABLE
  2
APPID
  5
3
330
0
100
AcDbSymbolTable
 70
3
  0
APPID
  5
2A
330
3
100
AcDbSymbolTableRecord
100
AcDbRegAppTableRecord
  2
ACAD
 70
0
  0
APPID
  5
EE
330
3
100
AcDbSymbolTableRecord
100
AcDbRegAppTableRecord
  2
HATCHBACKGROUNDCOLOR
 70
0
  0
APPID
  5
EF
330
3
100
AcDbSymbolTableRecord
100
AcDbRegAppTableRecord
  2
EZDXF
 70
0
  0
ENDTAB
  0
TABLE
  2
DIMSTYLE
  5
4
330
0
100
AcDbSymbolTable
 70
1
100
AcDbDimStyleTable
  0
DIMSTYLE
105
2B
330
4
100
AcDbSymbolTableRecord
100
AcDbDimStyleTableRecord
  2
Standard
 70
0
 40
1.0
 41
2.5
 42
0.625
 43
3.75
 44
1.25
 45
0.0
 46
0.0
 47
0.0
 48
0.0
 49
2.5
140
2.5
141
2.5
142
0.0
143
0.03937007874
144
1.0
145
0.0
146
1.0
147
0.625
148
0.0
 69
0
 70
0
 71
0
 72
0
 73
0
 74
0
 75
0
 76
0
 77
1
 78
8
 79
3
170
0
171
3
172
1
173
0
174
0
175
0
176
0
177
0
178
0
179
2
271
2
272
2
273
2
274
3
275
0
276
0
277
2
278
44
279
0
280
0
281
0
282
0
283
0
284
8
285
0
286
0
288
0
289
3
290
0
371
-2
372
-2
  0
ENDTAB
  0
TABLE
  2
BLOCK_RECORD
  5
9
330
0
100
AcDbSymbolTable
 70
2
  0
BLOCK_RECORD
  5
17
330
9
100
AcDbSymbolTableRecord
100
AcDbBlockTableRecord
  2
*Model_Space
340
1A
 70
0
280
1
281
0
  0
BLOCK_RECORD
  5
1B
330
9
100
AcDbSymbolTableRecord
100
AcDbBlockTableRecord
  2
*Paper_Space
340
1E
 70
0
280
1
281
0
  0
ENDTAB
  0
ENDSEC
  0
SECTION
  2
BLOCKS
  0
BLOCK
  5
18
330
17
100
AcDbEntity
  8
0
100
AcDbBlockBegin
  2
*Model_Space
 70
0
 10
0.0
 20
0.0
 30
0.0
  3
*Model_Space
  1

  0
ENDBLK
  5
19
330
17
100
AcDbEntity
  8
0
100
AcDbBlockEnd
  0
BLOCK
  5
1C
330
1B
100
AcDbEntity
  8
0
100
AcDbBlockBegin
  2
*Paper_Space
 70
0
 10
0.0
 20
0.0
 30
0.0
  3
*Paper_Space
  1

  0
ENDBLK
  5
1D
330
1B
100
AcDbEntity
  8
0
100
AcDbBlockEnd
  0
ENDSEC
  0
SECTION
  2
ENTITIES
  0
LWPOLYLINE
  5
47
330
17
100
AcDbEntity
  8
C-SITE-BOUN
100
AcDbPolyline
 90
5
 70
0
 10
50.0
 20
50.0
 10
4010.0
 20
50.0
 10
4010.0
 20
3570.0
 10
50.0
 20
3570.0
 10
50.0
 20
50.0
  0
TEXT
  5
48
330
17
100
AcDbEntity
  8
X-ANNO-TEXT
100
AcDbText
 10
1910.0
 20
3590.0
 30
0.0
 40
14.0
  1
TACOMA INDUSTRIAL PARK — SITE BOUNDARY (320 AC)
  7
TITLE
 11
1910.0
 21
3590.0
 31
0.0
100
AcDbText
  0
LINE
  5
49
330
17
100
AcDbEntity
  8
X-ANNO-GRID
100
AcDbLine
 10
50.0
 20
50.0
 30
0.0
 11
50.0
 21
3570.0
 31
0.0
  0
LINE
  5
4A
330
17
100
AcDbEntity
  8
X-ANNO-GRID
100
AcDbLine
 10
450.0
 20
50.0
 30
0.0
 11
450.0
 21
3570.0
 31
0.0
  0
TEXT
  5
4B
330
17
100
AcDbEntity
  8
X-ANNO-GRID
100
AcDbText
 10
440.0
 20
20.0
 30
0.0
 40
7.0
  1
400
  7
ENGINEERING
 11
440.0
 21
20.0
 31
0.0
100
AcDbText
  0
LINE
  5
4C
330
17
100
AcDbEntity
  8
X-ANNO-GRID
100
AcDbLine
 10
850.0
 20
50.0
 30
0.0
 11
850.0
 21
3570.0
 31
0.0
  0
TEXT
  5
4D
330
17
100
AcDbEntity
  8
X-ANNO-GRID
100
AcDbText
 10
840.0
 20
20.0
 30
0.0
 40
7.0
  1
800
  7
ENGINEERING
 11
840.0
 21
20.0
 31
0.0
100
AcDbText
  0
LINE
  5
4E
330
17
100
AcDbEntity
  8
X-ANNO-GRID
100
AcDbLine
 10
1250.0
 20
50.0
 30
0.0
 11
1250.0
 21
3570.0
 31
0.0
  0
TEXT
  5
4F
330
17
100
AcDbEntity
  8
X-ANNO-GRID
100
AcDbText
 10
1240.0
 20
20.0
 30
0.0
 40
7.0
  1
1200
  7
ENGINEERING
 11
1240.0
 21
20.0
 31
0.0
100
AcDbText
  0
LINE
  5
50
330
17
100
AcDbEntity
  8
X-ANNO-GRID
100
AcDbLine
 10
1650.0
 20
50.0
 30
0.0
 11
1650.0
 21
3570.0
 31
0.0
  0
TEXT
  5
51
330
17
100
AcDbEntity
  8
X-ANNO-GRID
100
AcDbText
 10
1640.0
 20
20.0
 30
0.0
 40
7.0
  1
1600
  7
ENGINEERING
 11
1640.0
 21
20.0
 31
0.0
100
AcDbText
  0
LINE
  5
52
330
17
100
AcDbEntity
  8
X-ANNO-GRID
100
AcDbLine
 10
2050.0
 20
50.0
 30
0.0
 11
2050.0
 21
3570.0
 31
0.0
  0
TEXT
  5
53
330
17
100
AcDbEntity
  8
X-ANNO-GRID
100
AcDbText
 10
2040.0
 20
20.0
 30
0.0
 40
7.0
  1
2000
  7
ENGINEERING
 11
2040.0
 21
20.0
 31
0.0
100
AcDbText
  0
LINE
  5
54
330
17
100
AcDbEntity
  8
X-ANNO-GRID
100
AcDbLine
 10
2450.0
 20
50.0
 30
0.0
 11
2450.0
 21
3570.0
 31
0.0
  0
TEXT
  5
55
330
17
100
AcDbEntity
  8
X-ANNO-GRID
100
AcDbText
 10
2440.0
 20
20.0
 30
0.0
 40
7.0
  1
2400
  7
ENGINEERING
 11
2440.0
 21
20.0
 31
0.0
100
AcDbText
  0
LINE
  5
56
330
17
100
AcDbEntity
  8
X-ANNO-GRID
100
AcDbLine
 10
2850.0
 20
50.0
 30
0.0
 11
2850.0
 21
3570.0
 31
0.0
  0
TEXT
  5
57
330
17
100
AcDbEntity
  8
X-ANNO-GRID
100
AcDbText
 10
2840.0
 20
20.0
 30
0.0
 40
7.0
  1
2800
  7
ENGINEERING
 11
2840.0
 21
20.0
 31
0.0
100
AcDbText
  0
LINE
  5
58
330
17
100
AcDbEntity
  8
X-ANNO-GRID
100
AcDbLine
 10
3250.0
 20
50.0
 30
0.0
 11
3250.0
 21
3570.0
 31
0.0
  0
TEXT
  5
59
330
17
100
AcDbEntity
  8
X-ANNO-GRID
100
AcDbText
 10
3240.0
 20
20.0
 30
0.0
 40
7.0
  1
3200
  7
ENGINEERING
 11
3240.0
 21
20.0
 31
0.0
100
AcDbText
  0
LINE
  5
5A
330
17
100
AcDbEntity
  8
X-ANNO-GRID
100
AcDbLine
 10
3650.0
 20
50.0
 30
0.0
 11
3650.0
 21
3570.0
 31
0.0
  0
TEXT
  5
5B
330
17
100
AcDbEntity
  8
X-ANNO-GRID
100
AcDbText
 10
3640.0
 20
20.0
 30
0.0
 40
7.0
  1
3600
  7
ENGINEERING
 11
3640.0
 21
20.0
 31
0.0
100
AcDbText
  0
LINE
  5
5C
330
17
100
AcDbEntity
  8
X-ANNO-GRID
100
AcDbLine
 10
50.0
 20
50.0
 30
0.0
 11
4010.0
 21
50.0
 31
0.0
  0
LINE
  5
5D
330
17
100
AcDbEntity
  8
X-ANNO-GRID
100
AcDbLine
 10
50.0
 20
450.0
 30
0.0
 11
4010.0
 21
450.0
 31
0.0
  0
TEXT
  5
5E
330
17
100
AcDbEntity
  8
X-ANNO-GRID
100
AcDbText
 10
10.0
 20
445.0
 30
0.0
 40
7.0
  1
400
  7
ENGINEERING
 11
10.0
 21
445.0
 31
0.0
100
AcDbText
  0
LINE
  5
5F
330
17
100
AcDbEntity
  8
X-ANNO-GRID
100
AcDbLine
 10
50.0
 20
850.0
 30
0.0
 11
4010.0
 21
850.0
 31
0.0
  0
TEXT
  5
60
330
17
100
AcDbEntity
  8
X-ANNO-GRID
100
AcDbText
 10
10.0
 20
845.0
 30
0.0
 40
7.0
  1
800
  7
ENGINEERING
 11
10.0
 21
845.0
 31
0.0
100
AcDbText
  0
LINE
  5
61
330
17
100
AcDbEntity
  8
X-ANNO-GRID
100
AcDbLine
 10
50.0
 20
1250.0
 30
0.0
 11
4010.0
 21
1250.0
 31
0.0
  0
TEXT
  5
62
330
17
100
AcDbEntity
  8
X-ANNO-GRID
100
AcDbText
 10
10.0
 20
1245.0
 30
0.0
 40
7.0
  1
1200
  7
ENGINEERING
 11
10.0
 21
1245.0
 31
0.0
100
AcDbText
  0
LINE
  5
63
330
17
100
AcDbEntity
  8
X-ANNO-GRID
100
AcDbLine
 10
50.0
 20
1650.0
 30
0.0
 11
4010.0
 21
1650.0
 31
0.0
  0
TEXT
  5
64
330
17
100
AcDbEntity
  8
X-ANNO-GRID
100
AcDbText
 10
10.0
 20
1645.0
 30
0.0
 40
7.0
  1
1600
  7
ENGINEERING
 11
10.0
 21
1645.0
 31
0.0
100
AcDbText
  0
LINE
  5
65
330
17
100
AcDbEntity
  8
X-ANNO-GRID
100
AcDbLine
 10
50.0
 20
2050.0
 30
0.0
 11
4010.0
 21
2050.0
 31
0.0
  0
TEXT
  5
66
330
17
100
AcDbEntity
  8
X-ANNO-GRID
100
AcDbText
 10
10.0
 20
2045.0
 30
0.0
 40
7.0
  1
2000
  7
ENGINEERING
 11
10.0
 21
2045.0
 31
0.0
100
AcDbText
  0
LINE
  5
67
330
17
100
AcDbEntity
  8
X-ANNO-GRID
100
AcDbLine
 10
50.0
 20
2450.0
 30
0.0
 11
4010.0
 21
2450.0
 31
0.0
  0
TEXT
  5
68
330
17
100
AcDbEntity
  8
X-ANNO-GRID
100
AcDbText
 10
10.0
 20
2445.0
 30
0.0
 40
7.0
  1
2400
  7
ENGINEERING
 11
10.0
 21
2445.0
 31
0.0
100
AcDbText
  0
LINE
  5
69
330
17
100
AcDbEntity
  8
X-ANNO-GRID
100
AcDbLine
 10
50.0
 20
2850.0
 30
0.0
 11
4010.0
 21
2850.0
 31
0.0
  0
TEXT
  5
6A
330
17
100
AcDbEntity
  8
X-ANNO-GRID
100
AcDbText
 10
10.0
 20
2845.0
 30
0.0
 40
7.0
  1
2800
  7
ENGINEERING
 11
10.0
 21
2845.0
 31
0.0
100
AcDbText
  0
LINE
  5
6B
330
17
100
AcDbEntity
  8
X-ANNO-GRID
100
AcDbLine
 10
50.0
 20
3250.0
 30
0.0
 11
4010.0
 21
3250.0
 31
0.0
  0
TEXT
  5
6C
330
17
100
AcDbEntity
  8
X-ANNO-GRID
100
AcDbText
 10
10.0
 20
3245.0
 30
0.0
 40
7.0
  1
3200
  7
ENGINEERING
 11
10.0
 21
3245.0
 31
0.0
100
AcDbText
  0
LWPOLYLINE
  5
6D
330
17
100
AcDbEntity
  8
T-ROAD-PUBL
100
AcDbPolyline
 90
5
 70
0
 10
-30.0
 20
-30.0
 10
4090.0
 20
-30.0
 10
4090.0
 20
50.0
 10
-30.0
 20
50.0
 10
-30.0
 20
-30.0
  0
TEXT
  5
6E
330
17
100
AcDbEntity
  8
X-ANNO-TEXT
100
AcDbText
 10
1830.0
 20
-5.0
 30
0.0
 40
10.0
  1
PACIFIC AVENUE / SR-509 CORRIDOR
  7
ENGINEERING
 11
1830.0
 21
-5.0
 31
0.0
100
AcDbText
  0
LWPOLYLINE
  5
6F
330
17
100
AcDbEntity
  8
C-SITE-ROAD
100
AcDbPolyline
 90
5
 70
0
 10
50.0
 20
1528.3999999999999
 10
4010.0
 20
1528.3999999999999
 10
4010.0
 20
1608.3999999999999
 10
50.0
 20
1608.3999999999999
 10
50.0
 20
1528.3999999999999
  0
TEXT
  5
70
330
17
100
AcDbEntity
  8
X-ANNO-TEXT
100
AcDbText
 10
70.0
 20
1556.3999999999999
 30
0.0
 40
8.0
  1
MAIN HAUL ROAD — 100,000 LB AXLE LOAD
  7
ENGINEERING
 11
70.0
 21
1556.3999999999999
 31
0.0
100
AcDbText
  0
LWPOLYLINE
  5
71
330
17
100
AcDbEntity
  8
C-SITE-ROAD
100
AcDbPolyline
 90
5
 70
0
 10
1950.8
 20
50.0
 10
2010.8
 20
50.0
 10
2010.8
 20
3570.0
 10
1950.8
 20
3570.0
 10
1950.8
 20
50.0
  0
LINE
  5
72
330
17
100
AcDbEntity
  8
T-RAIL
100
AcDbLine
 10
4050.0
 20
150.0
 30
0.0
 11
2228.0
 21
1282.0
 31
0.0
  0
LINE
  5
73
330
17
100
AcDbEntity
  8
T-RAIL
100
AcDbLine
 10
4050.0
 20
164.0
 30
0.0
 11
2228.0
 21
1296.0
 31
0.0
  0
TEXT
  5
74
330
17
100
AcDbEntity
  8
X-ANNO-TEXT
100
AcDbText
 10
2822.0
 20
824.4
 30
0.0
 40
9.0
  1
BNSF RAIL SPUR — TRACK 1 (2,400 LF)
  7
ENGINEERING
 11
2822.0
 21
824.4
 31
0.0
100
AcDbText
  0
LINE
  5
75
330
17
100
AcDbEntity
  8
T-RAIL
100
AcDbLine
 10
4050.0
 20
190.0
 30
0.0
 11
2228.0
 21
1310.0
 31
0.0
  0
LINE
  5
76
330
17
100
AcDbEntity
  8
T-RAIL
100
AcDbLine
 10
4050.0
 20
204.0
 30
0.0
 11
2228.0
 21
1324.0
 31
0.0
  0
TEXT
  5
77
330
17
100
AcDbEntity
  8
X-ANNO-TEXT
100
AcDbText
 10
2822.0
 20
683.6
 30
0.0
 40
9.0
  1
BNSF RAIL SPUR — TRACK 2 (STORAGE)
  7
ENGINEERING
 11
2822.0
 21
683.6
 31
0.0
100
AcDbText
  0
TEXT
  5
78
330
17
100
AcDbEntity
  8
X-ANNO-TEXT
100
AcDbText
 10
4060.0
 20
170.0
 30
0.0
 40
10.0
  1
BNSF MAINLINE →
  7
TITLE
 11
4060.0
 21
170.0
 31
0.0
100
AcDbText
  0
LWPOLYLINE
  5
79
330
17
100
AcDbEntity
  8
E-UTIL-POWR
100
AcDbPolyline
 90
5
 70
0
 10
170.0
 20
2890.0
 10
510.0
 20
2890.0
 10
510.0
 20
3310.0
 10
170.0
 20
3310.0
 10
170.0
 20
2890.0
  0
HATCH
  5
7A
330
17
100
AcDbEntity
  8
E-UTIL-POWR
 62
7
100
AcDbHatch
 10
0.0
 20
0.0
 30
0.0
210
0.0
220
0.0
230
1.0
  2
ANSI32
 70
0
 71
0
 91
1
 92
3
 72
0
 73
1
 93
4
 10
170.0
 20
2890.0
 10
510.0
 20
2890.0
 10
510.0
 20
3310.0
 10
170.0
 20
3310.0
 97
0
 75
1
 76
1
 52
0.0
 41
8.0
 77
0
 78
2
 53
45.0
 43
0.0
 44
0.0
 45
-53.8815367264
 46
53.8815367264
 79
0
 53
45.0
 43
35.921024424
 44
0.0
 45
-53.8815367264
 46
53.8815367264
 79
0
 98
0
  0
TEXT
  5
7B
330
17
100
AcDbEntity
  8
X-ANNO-TEXT
100
AcDbText
 10
190.0
 20
3290.0
 30
0.0
 40
11.0
  1
MAIN SUBSTATION
  7
TITLE
 11
190.0
 21
3290.0
 31
0.0
100
AcDbText
  0
TEXT
  5
7C
330
17
100
AcDbEntity
  8
X-ANNO-TEXT
100
AcDbText
 10
190.0
 20
3270.0
 30
0.0
 40
8.0
  1
34.5kV SWITCHYARD
  7
ENGINEERING
 11
190.0
 21
3270.0
 31
0.0
100
AcDbText
  0
TEXT
  5
7D
330
17
100
AcDbEntity
  8
X-ANNO-TEXT
100
AcDbText
 10
190.0
 20
3250.0
 30
0.0
 40
8.0
  1
T1+T2: 2×50 MVA
  7
ENGINEERING
 11
190.0
 21
3250.0
 31
0.0
100
AcDbText
  0
TEXT
  5
7E
330
17
100
AcDbEntity
  8
X-ANNO-TEXT
100
AcDbText
 10
190.0
 20
3230.0
 30
0.0
 40
8.0
  1
CAPEX: $4.1M
  7
ENGINEERING
 11
190.0
 21
3230.0
 31
0.0
100
AcDbText
  0
LINE
  5
7F
330
17
100
AcDbEntity
  8
E-UTIL-POWR
100
AcDbLine
 10
340.0
 20
3570.0
 30
0.0
 11
340.0
 21
3690.0
 31
0.0
  0
LINE
  5
80
330
17
100
AcDbEntity
  8
E-UTIL-POWR
100
AcDbLine
 10
340.0
 20
3690.0
 30
0.0
 11
-30.0
 21
3690.0
 31
0.0
  0
TEXT
  5
81
330
17
100
AcDbEntity
  8
X-ANNO-TEXT
100
AcDbText
 10
150.0
 20
3700.0
 30
0.0
 40
9.0
  1
PSE 115kV PRIMARY FEED →
  7
ENGINEERING
 11
150.0
 21
3700.0
 31
0.0
100
AcDbText
  0
LWPOLYLINE
  5
82
330
17
100
AcDbEntity
  8
E-UTIL-POWR
100
AcDbPolyline
 90
5
 70
0
 10
610.0
 20
3110.0
 10
770.0
 20
3110.0
 10
770.0
 20
3230.0
 10
610.0
 20
3230.0
 10
610.0
 20
3110.0
  0
TEXT
  5
83
330
17
100
AcDbEntity
  8
X-ANNO-TEXT
100
AcDbText
 10
615.0
 20
3205.0
 30
0.0
 40
8.0
  1
XFMR BANK
  7
ENGINEERING
 11
615.0
 21
3205.0
 31
0.0
100
AcDbText
  0
TEXT
  5
84
330
17
100
AcDbEntity
  8
X-ANNO-TEXT
100
AcDbText
 10
615.0
 20
3192.0
 30
0.0
 40
8.0
  1
4.16kV
  7
ENGINEERING
 11
615.0
 21
3192.0
 31
0.0
100
AcDbText
  0
LWPOLYLINE
  5
85
330
17
100
AcDbEntity
  8
E-UTIL-POWR
100
AcDbPolyline
 90
5
 70
0
 10
690.0
 20
3170.0
 10
690.0
 20
2338.0
 10
1250.0
 20
2338.0
 10
2650.0
 20
2338.0
 10
3250.0
 20
2338.0
  0
TEXT
  5
86
330
17
100
AcDbEntity
  8
X-ANNO-TEXT
100
AcDbText
 10
850.0
 20
2353.0
 30
0.0
 40
8.0
  1
4.16kV DISTRIBUTION DUCT BANK (2,800 LF UNDERGROUND)
  7
ENGINEERING
 11
850.0
 21
2353.0
 31
0.0
100
AcDbText
  0
LWPOLYLINE
  5
87
330
17
100
AcDbEntity
  8
A-BLDG-UTIL
100
AcDbPolyline
 90
5
 70
0
 10
870.0
 20
3010.0
 10
1350.0
 20
3010.0
 10
1350.0
 20
3330.0
 10
870.0
 20
3330.0
 10
870.0
 20
3010.0
  0
HATCH
  5
88
330
17
100
AcDbEntity
  8
A-BLDG-UTIL
 62
7
100
AcDbHatch
 10
0.0
 20
0.0
 30
0.0
210
0.0
220
0.0
230
1.0
  2
ANSI33
 70
0
 71
0
 91
1
 92
3
 72
0
 73
1
 93
4
 10
870.0
 20
3010.0
 10
1350.0
 20
3010.0
 10
1350.0
 20
3330.0
 10
870.0
 20
3330.0
 97
0
 75
1
 76
1
 52
0.0
 41
6.0
 77
0
 78
2
 53
45.0
 43
0.0
 44
0.0
 45
-26.940768363
 46
26.940768363
 79
0
 53
45.0
 43
26.940768318
 44
0.0
 45
-26.940768363
 46
26.940768363
 79
2
 49
19.05
 49
-9.525
 98
0
  0
TEXT
  5
89
330
17
100
AcDbEntity
  8
X-ANNO-TEXT
100
AcDbText
 10
890.0
 20
3305.0
 30
0.0
 40
11.0
  1
WATER TREATMENT
  7
TITLE
 11
890.0
 21
3305.0
 31
0.0
100
AcDbText
  0
TEXT
  5
8A
330
17
100
AcDbEntity
  8
X-ANNO-TEXT
100
AcDbText
 10
890.0
 20
3285.0
 30
0.0
 40
8.0
  1
RO + CARBON FILTRATION
  7
ENGINEERING
 11
890.0
 21
3285.0
 31
0.0
100
AcDbText
  0
TEXT
  5
8B
330
17
100
AcDbEntity
  8
X-ANNO-TEXT
100
AcDbText
 10
890.0
 20
3265.0
 30
0.0
 40
8.0
  1
CAPACITY: 12 MGD / 450 GPM
  7
ENGINEERING
 11
890.0
 21
3265.0
 31
0.0
100
AcDbText
  0
TEXT
  5
8C
330
17
100
AcDbEntity
  8
X-ANNO-TEXT
100
AcDbText
 10
890.0
 20
3245.0
 30
0.0
 40
8.0
  1
FIRE RESERVE: 100,000 GAL
  7
ENGINEERING
 11
890.0
 21
3245.0
 31
0.0
100
AcDbText
  0
LINE
  5
8D
330
17
100
AcDbEntity
  8
P-UTIL-WATR
100
AcDbLine
 10
1110.0
 20
50.0
 30
0.0
 11
1110.0
 21
3010.0
 31
0.0
  0
TEXT
  5
8E
330
17
100
AcDbEntity
  8
X-ANNO-TEXT
100
AcDbText
 10
1120.0
 20
150.0
 30
0.0
 40
8.0
  1
16-IN WATER MAIN (CITY OF TACOMA)
  7
ENGINEERING
 11
1120.0
 21
150.0
 31
0.0
100
AcDbText
  0
LWPOLYLINE
  5
8F
330
17
100
AcDbEntity
  8
C-SITE-STRM
100
AcDbPolyline
 90
5
 70
0
 10
170.0
 20
1608.3999999999999
 10
1490.0
 20
1608.3999999999999
 10
1490.0
 20
2568.3999999999996
 10
170.0
 20
2568.3999999999996
 10
170.0
 20
1608.3999999999999
  0
HATCH
  5
90
330
17
100
AcDbEntity
  8
C-SITE-STRM
 62
7
100
AcDbHatch
 10
0.0
 20
0.0
 30
0.0
210
0.0
220
0.0
230
1.0
  2
AR-HBONE
 70
0
 71
0
 91
1
 92
3
 72
0
 73
1
 93
4
 10
170.0
 20
1608.3999999999999
 10
1490.0
 20
1608.3999999999999
 10
1490.0
 20
2568.3999999999996
 10
170.0
 20
2568.3999999999996
 97
0
 75
1
 76
1
 52
0.0
 41
12.0
 77
0
 78
2
 53
45.0
 43
0.0
 44
0.0
 45
0.0
 46
1724.2091752452
 79
2
 49
3657.6
 49
-1219.2
 53
135.0
 43
862.104
 44
862.104
 45
0.0
 46
1724.2091752452
 79
2
 49
3657.6
 49
-1219.2
 98
0
  0
TEXT
  5
91
330
17
100
AcDbEntity
  8
X-ANNO-TEXT
100
AcDbText
 10
250.0
 20
2408.3999999999996
 30
0.0
 40
11.0
  1
STORMWATER RETENTION BASIN
  7
TITLE
 11
250.0
 21
2408.3999999999996
 31
0.0
100
AcDbText
  0
TEXT
  5
92
330
17
100
AcDbEntity
  8
X-ANNO-TEXT
100
AcDbText
 10
250.0
 20
2383.3999999999996
 30
0.0
 40
8.0
  1
2.4 ACRES — NPDES PERMITTED OUTFALL
  7
ENGINEERING
 11
250.0
 21
2383.3999999999996
 31
0.0
100
AcDbText
  0
TEXT
  5
93
330
17
100
AcDbEntity
  8
X-ANNO-TEXT
100
AcDbText
 10
250.0
 20
2363.3999999999996
 30
0.0
 40
8.0
  1
BIOSWALE INLET: 400 LF
  7
ENGINEERING
 11
250.0
 21
2363.3999999999996
 31
0.0
100
AcDbText
  0
LWPOLYLINE
  5
94
330
17
100
AcDbEntity
  8
A-BLDG-PROD
100
AcDbPolyline
 90
5
 70
0
 10
1650.0
 20
1608.3999999999999
 10
3450.0
 20
1608.3999999999999
 10
3450.0
 20
3208.3999999999996
 10
1650.0
 20
3208.3999999999996
 10
1650.0
 20
1608.3999999999999
  0
HATCH
  5
95
330
17
100
AcDbEntity
  8
A-BLDG-PROD
 62
7
100
AcDbHatch
 10
0.0
 20
0.0
 30
0.0
210
0.0
220
0.0
230
1.0
  2
ANSI31
 70
0
 71
0
 91
1
 92
3
 72
0
 73
1
 93
4
 10
1650.0
 20
1608.3999999999999
 10
3450.0
 20
1608.3999999999999
 10
3450.0
 20
3208.3999999999996
 10
1650.0
 20
3208.3999999999996
 97
0
 75
1
 76
1
 52
0.0
 41
10.0
 77
0
 78
1
 53
45.0
 43
0.0
 44
0.0
 45
-22.450640303
 46
22.450640303
 79
0
 98
0
  0
TEXT
  5
96
330
17
100
AcDbEntity
  8
X-ANNO-TEXT
100
AcDbText
 10
1690.0
 20
3088.3999999999996
 30
0.0
 40
18.0
  1
ASSEMBLY BLOCK A
  7
TITLE
 11
1690.0
 21
3088.3999999999996
 31
0.0
100
AcDbText
  0
TEXT
  5
97
330
17
100
AcDbEntity
  8
X-ANNO-TEXT
100
AcDbText
 10
1690.0
 20
3048.3999999999996
 30
0.0
 40
10.0
  1
180,000 SQFT · 450 × 400 ft
  7
ENGINEERING
 11
1690.0
 21
3048.3999999999996
 31
0.0
100
AcDbText
  0
TEXT
  5
98
330
17
100
AcDbEntity
  8
X-ANNO-TEXT
100
AcDbText
 10
1690.0
 20
3023.3999999999996
 30
0.0
 40
9.0
  1
42 FT CLEAR HEIGHT
  7
ENGINEERING
 11
1690.0
 21
3023.3999999999996
 31
0.0
100
AcDbText
  0
TEXT
  5
99
330
17
100
AcDbEntity
  8
X-ANNO-TEXT
100
AcDbText
 10
1690.0
 20
2998.3999999999996
 30
0.0
 40
9.0
  1
50-TON OVERHEAD CRANE (2 BAYS)
  7
ENGINEERING
 11
1690.0
 21
2998.3999999999996
 31
0.0
100
AcDbText
  0
TEXT
  5
9A
330
17
100
AcDbEntity
  8
X-ANNO-TEXT
100
AcDbText
 10
1690.0
 20
2973.3999999999996
 30
0.0
 40
9.0
  1
PHASE 1 · CAPEX: $22M
  7
ENGINEERING
 11
1690.0
 21
2973.3999999999996
 31
0.0
100
AcDbText
  0
LWPOLYLINE
  5
9B
330
17
100
AcDbEntity
  8
A-BLDG-PROD
100
AcDbPolyline
 90
5
 70
0
 10
1650.0
 20
226.0
 10
3150.0
 20
226.0
 10
3150.0
 20
1506.0
 10
1650.0
 20
1506.0
 10
1650.0
 20
226.0
  0
HATCH
  5
9C
330
17
100
AcDbEntity
  8
A-BLDG-PROD
 62
7
100
AcDbHatch
 10
0.0
 20
0.0
 30
0.0
210
0.0
220
0.0
230
1.0
  2
ANSI31
 70
0
 71
0
 91
1
 92
3
 72
0
 73
1
 93
4
 10
1650.0
 20
226.0
 10
3150.0
 20
226.0
 10
3150.0
 20
1506.0
 10
1650.0
 20
1506.0
 97
0
 75
1
 76
1
 52
0.0
 41
10.0
 77
0
 78
1
 53
45.0
 43
0.0
 44
0.0
 45
-22.450640303
 46
22.450640303
 79
0
 98
0
  0
TEXT
  5
9D
330
17
100
AcDbEntity
  8
X-ANNO-TEXT
100
AcDbText
 10
1690.0
 20
1466.0
 30
0.0
 40
16.0
  1
ASSEMBLY BLOCK B
  7
TITLE
 11
1690.0
 21
1466.0
 31
0.0
100
AcDbText
  0
TEXT
  5
9E
330
17
100
AcDbEntity
  8
X-ANNO-TEXT
100
AcDbText
 10
1690.0
 20
1426.0
 30
0.0
 40
9.0
  1
120,000 SQFT · 375 × 320 ft
  7
ENGINEERING
 11
1690.0
 21
1426.0
 31
0.0
100
AcDbText
  0
TEXT
  5
9F
330
17
100
AcDbEntity
  8
X-ANNO-TEXT
100
AcDbText
 10
1690.0
 20
1401.0
 30
0.0
 40
9.0
  1
36 FT CLEAR HEIGHT · 30T CRANE
  7
ENGINEERING
 11
1690.0
 21
1401.0
 31
0.0
100
AcDbText
  0
TEXT
  5
A0
330
17
100
AcDbEntity
  8
X-ANNO-TEXT
100
AcDbText
 10
1690.0
 20
1376.0
 30
0.0
 40
9.0
  1
PHASE 2 · CAPEX: $18M
  7
ENGINEERING
 11
1690.0
 21
1376.0
 31
0.0
100
AcDbText
  0
LWPOLYLINE
  5
A1
330
17
100
AcDbEntity
  8
A-BLDG-PROD
100
AcDbPolyline
 90
5
 70
0
 10
3530.0
 20
1608.3999999999999
 10
4810.0
 20
1608.3999999999999
 10
4810.0
 20
2608.3999999999996
 10
3530.0
 20
2608.3999999999996
 10
3530.0
 20
1608.3999999999999
  0
HATCH
  5
A2
330
17
100
AcDbEntity
  8
A-BLDG-PROD
 62
7
100
AcDbHatch
 10
0.0
 20
0.0
 30
0.0
210
0.0
220
0.0
230
1.0
  2
ANSI31
 70
0
 71
0
 91
1
 92
3
 72
0
 73
1
 93
4
 10
3530.0
 20
1608.3999999999999
 10
4810.0
 20
1608.3999999999999
 10
4810.0
 20
2608.3999999999996
 10
3530.0
 20
2608.3999999999996
 97
0
 75
1
 76
1
 52
0.0
 41
10.0
 77
0
 78
1
 53
45.0
 43
0.0
 44
0.0
 45
-22.450640303
 46
22.450640303
 79
0
 98
0
  0
TEXT
  5
A3
330
17
100
AcDbEntity
  8
X-ANNO-TEXT
100
AcDbText
 10
3570.0
 20
2488.3999999999996
 30
0.0
 40
14.0
  1
INTEGRATION HALL
  7
TITLE
 11
3570.0
 21
2488.3999999999996
 31
0.0
100
AcDbText
  0
TEXT
  5
A4
330
17
100
AcDbEntity
  8
X-ANNO-TEXT
100
AcDbText
 10
3570.0
 20
2458.3999999999996
 30
0.0
 40
9.0
  1
80,000 SQFT · 320 × 250 ft
  7
ENGINEERING
 11
3570.0
 21
2458.3999999999996
 31
0.0
100
AcDbText
  0
TEXT
  5
A5
330
17
100
AcDbEntity
  8
X-ANNO-TEXT
100
AcDbText
 10
3570.0
 20
2433.3999999999996
 30
0.0
 40
9.0
  1
48 FT CLEAR · 75T CRANE
  7
ENGINEERING
 11
3570.0
 21
2433.3999999999996
 31
0.0
100
AcDbText
  0
TEXT
  5
A6
330
17
100
AcDbEntity
  8
X-ANNO-TEXT
100
AcDbText
 10
3570.0
 20
2408.3999999999996
 30
0.0
 40
9.0
  1
PHASE 2 · CAPEX: $14M
  7
ENGINEERING
 11
3570.0
 21
2408.3999999999996
 31
0.0
100
AcDbText
  0
LWPOLYLINE
  5
A7
330
17
100
AcDbEntity
  8
A-BLDG-LOGI
100
AcDbPolyline
 90
5
 70
0
 10
1650.0
 20
3090.0
 10
3150.0
 20
3090.0
 10
3150.0
 20
3570.0
 10
1650.0
 20
3570.0
 10
1650.0
 20
3090.0
  0
HATCH
  5
A8
330
17
100
AcDbEntity
  8
A-BLDG-LOGI
 62
7
100
AcDbHatch
 10
0.0
 20
0.0
 30
0.0
210
0.0
220
0.0
230
1.0
  2
ANSI38
 70
0
 71
0
 91
1
 92
3
 72
0
 73
1
 93
4
 10
1650.0
 20
3090.0
 10
3150.0
 20
3090.0
 10
3150.0
 20
3570.0
 10
1650.0
 20
3570.0
 97
0
 75
1
 76
1
 52
0.0
 41
8.0
 77
0
 78
2
 53
45.0
 43
0.0
 44
0.0
 45
-17.9605122424
 46
17.9605122424
 79
0
 53
135.0
 43
0.0
 44
0.0
 45
-53.8815367264
 46
17.9605122424
 79
2
 49
63.5
 49
-38.1
 98
0
  0
TEXT
  5
A9
330
17
100
AcDbEntity
  8
X-ANNO-TEXT
100
AcDbText
 10
1690.0
 20
3470.0
 30
0.0
 40
10.0
  1
TRUCK DOCK COMPLEX — 16 DOORS
  7
TITLE
 11
1690.0
 21
3470.0
 31
0.0
100
AcDbText
  0
TEXT
  5
AA
330
17
100
AcDbEntity
  8
X-ANNO-TEXT
100
AcDbText
 10
1690.0
 20
3450.0
 30
0.0
 40
8.0
  1
45,000 SQFT · PHASE 2 · CAPEX: $3.4M
  7
ENGINEERING
 11
1690.0
 21
3450.0
 31
0.0
100
AcDbText
  0
LWPOLYLINE
  5
AB
330
17
100
AcDbEntity
  8
A-BLDG-ADMN
100
AcDbPolyline
 90
5
 70
0
 10
170.0
 20
728.3999999999999
 10
970.0
 20
728.3999999999999
 10
970.0
 20
1328.3999999999999
 10
170.0
 20
1328.3999999999999
 10
170.0
 20
728.3999999999999
  0
TEXT
  5
AC
330
17
100
AcDbEntity
  8
X-ANNO-TEXT
100
AcDbText
 10
190.0
 20
1308.3999999999999
 30
0.0
 40
10.0
  1
ADMIN / OFFICE
  7
TITLE
 11
190.0
 21
1308.3999999999999
 31
0.0
100
AcDbText
  0
TEXT
  5
AD
330
17
100
AcDbEntity
  8
X-ANNO-TEXT
100
AcDbText
 10
190.0
 20
1283.3999999999999
 30
0.0
 40
8.0
  1
24,000 SQFT · 4 STORY · LEED SILVER
  7
ENGINEERING
 11
190.0
 21
1283.3999999999999
 31
0.0
100
AcDbText
  0
TEXT
  5
AE
330
17
100
AcDbEntity
  8
X-ANNO-TEXT
100
AcDbText
 10
190.0
 20
1263.3999999999999
 30
0.0
 40
8.0
  1
300 OCCUPANTS · PHASE 1 · $3.2M
  7
ENGINEERING
 11
190.0
 21
1263.3999999999999
 31
0.0
100
AcDbText
  0
LWPOLYLINE
  5
AF
330
17
100
AcDbEntity
  8
Z-SITE-SOLR
100
AcDbPolyline
 90
5
 70
0
 10
3550.0
 20
226.0
 10
4830.0
 20
226.0
 10
4830.0
 20
1626.0
 10
3550.0
 20
1626.0
 10
3550.0
 20
226.0
  0
HATCH
  5
B0
330
17
100
AcDbEntity
  8
Z-SITE-SOLR
 62
7
100
AcDbHatch
 10
0.0
 20
0.0
 30
0.0
210
0.0
220
0.0
230
1.0
  2
NET
 70
0
 71
0
 91
1
 92
3
 72
0
 73
1
 93
4
 10
3550.0
 20
226.0
 10
4830.0
 20
226.0
 10
4830.0
 20
1626.0
 10
3550.0
 20
1626.0
 97
0
 75
1
 76
1
 52
0.0
 41
20.0
 77
0
 78
2
 53
0.0
 43
0.0
 44
0.0
 45
0.0
 46
63.5
 79
0
 53
90.0
 43
0.0
 44
0.0
 45
-63.5
 46
0.0
 79
0
 98
0
  0
TEXT
  5
B1
330
17
100
AcDbEntity
  8
X-ANNO-TEXT
100
AcDbText
 10
3580.0
 20
1576.0
 30
0.0
 40
12.0
  1
SOLAR CANOPY ARRAY
  7
TITLE
 11
3580.0
 21
1576.0
 31
0.0
100
AcDbText
  0
TEXT
  5
B2
330
17
100
AcDbEntity
  8
X-ANNO-TEXT
100
AcDbText
 10
3580.0
 20
1546.0
 30
0.0
 40
9.0
  1
2.8 MW DC · 6,800 PANELS (410W)
  7
ENGINEERING
 11
3580.0
 21
1546.0
 31
0.0
100
AcDbText
  0
TEXT
  5
B3
330
17
100
AcDbEntity
  8
X-ANNO-TEXT
100
AcDbText
 10
3580.0
 20
1521.0
 30
0.0
 40
9.0
  1
ROOF + PARKING CANOPY · PHASE 3
  7
ENGINEERING
 11
3580.0
 21
1521.0
 31
0.0
100
AcDbText
  0
LWPOLYLINE
  5
B4
330
17
100
AcDbEntity
  8
Z-ZONE-EXPN
100
AcDbPolyline
 90
5
 70
0
 10
4130.0
 20
50.0
 10
4930.0
 20
50.0
 10
4930.0
 20
3570.0
 10
4130.0
 20
3570.0
 10
4130.0
 20
50.0
  0
TEXT
  5
B5
330
17
100
AcDbEntity
  8
X-ANNO-TEXT
100
AcDbText
 10
4150.0
 20
1810.0
 30
0.0
 40
14.0
  1
EXPANSION
  7
TITLE
 11
4150.0
 21
1810.0
 31
0.0
100
AcDbText
  0
TEXT
  5
B6
330
17
100
AcDbEntity
  8
X-ANNO-TEXT
100
AcDbText
 10
4150.0
 20
1780.0
 30
0.0
 40
14.0
  1
RESERVE
  7
TITLE
 11
4150.0
 21
1780.0
 31
0.0
100
AcDbText
  0
TEXT
  5
B7
330
17
100
AcDbEntity
  8
X-ANNO-TEXT
100
AcDbText
 10
4150.0
 20
1750.0
 30
0.0
 40
10.0
  1
180 ACRES
  7
ENGINEERING
 11
4150.0
 21
1750.0
 31
0.0
100
AcDbText
  0
TEXT
  5
B8
330
17
100
AcDbEntity
  8
X-ANNO-TEXT
100
AcDbText
 10
4150.0
 20
1725.0
 30
0.0
 40
10.0
  1
PHASE 4+
  7
ENGINEERING
 11
4150.0
 21
1725.0
 31
0.0
100
AcDbText
  0
LWPOLYLINE
  5
B9
330
17
100
AcDbEntity
  8
Z-ZONE-SECU
100
AcDbPolyline
 90
4
 70
1
 10
30.0
 20
30.0
 10
4030.0
 20
30.0
 10
4030.0
 20
3590.0
 10
30.0
 20
3590.0
  0
LINE
  5
BA
330
17
100
AcDbEntity
  8
X-ANNO-TEXT
100
AcDbLine
 10
3930.0
 20
3770.0
 30
0.0
 11
3930.0
 21
3800.0
 31
0.0
  0
SOLID
  5
BB
330
17
100
AcDbEntity
  8
X-ANNO-TEXT
100
AcDbTrace
 10
3925.5
 20
3791.0
 30
0.0
 11
3930.0
 21
3800.0
 31
0.0
 12
3934.5
 22
3791.0
 32
0.0
 13
3930.0
 23
3794.0
 33
0.0
  0
TEXT
  5
BC
330
17
100
AcDbEntity
  8
X-ANNO-TEXT
100
AcDbText
 10
3924.0
 20
3805.0
 30
0.0
 40
16.0
  1
N
  7
TITLE
 11
3924.0
 21
3805.0
 31
0.0
100
AcDbText
  0
CIRCLE
  5
BD
330
17
100
AcDbEntity
  8
X-ANNO-TEXT
100
AcDbCircle
 10
3930.0
 20
3785.0
 30
0.0
 40
12.0
  0
LWPOLYLINE
  5
BE
330
17
100
AcDbEntity
  8
X-ANNO-TITL
100
AcDbPolyline
 90
5
 70
0
 10
4510.0
 20
3270.0
 10
4750.0
 20
3270.0
 10
4750.0
 20
3478.0
 10
4510.0
 20
3478.0
 10
4510.0
 20
3270.0
  0
TEXT
  5
BF
330
17
100
AcDbEntity
  8
X-ANNO-TEXT
100
AcDbText
 10
4520.0
 20
3462.0
 30
0.0
 40
10.0
  1
LAYER LEGEND
  7
TITLE
 11
4520.0
 21
3462.0
 31
0.0
100
AcDbText
  0
SOLID
  5
C0
330
17
100
AcDbEntity
  8
X-ANNO-TEXT
 62
4
100
AcDbTrace
 10
4518.0
 20
3444.0
 30
0.0
 11
4534.0
 21
3444.0
 31
0.0
 12
4534.0
 22
3456.0
 32
0.0
 13
4518.0
 23
3456.0
 33
0.0
  0
TEXT
  5
C1
330
17
100
AcDbEntity
  8
X-ANNO-TEXT
100
AcDbText
 10
4540.0
 20
3446.0
 30
0.0
 40
8.0
  1
Production / Manufacturing Buildings
  7
ENGINEERING
 11
4540.0
 21
3446.0
 31
0.0
100
AcDbText
  0
SOLID
  5
C2
330
17
100
AcDbEntity
  8
X-ANNO-TEXT
 62
3
100
AcDbTrace
 10
4518.0
 20
3426.0
 30
0.0
 11
4534.0
 21
3426.0
 31
0.0
 12
4534.0
 22
3438.0
 32
0.0
 13
4518.0
 23
3438.0
 33
0.0
  0
TEXT
  5
C3
330
17
100
AcDbEntity
  8
X-ANNO-TEXT
100
AcDbText
 10
4540.0
 20
3428.0
 30
0.0
 40
8.0
  1
Utility & Service Buildings
  7
ENGINEERING
 11
4540.0
 21
3428.0
 31
0.0
100
AcDbText
  0
SOLID
  5
C4
330
17
100
AcDbEntity
  8
X-ANNO-TEXT
 62
5
100
AcDbTrace
 10
4518.0
 20
3408.0
 30
0.0
 11
4534.0
 21
3408.0
 31
0.0
 12
4534.0
 22
3420.0
 32
0.0
 13
4518.0
 23
3420.0
 33
0.0
  0
TEXT
  5
C5
330
17
100
AcDbEntity
  8
X-ANNO-TEXT
100
AcDbText
 10
4540.0
 20
3410.0
 30
0.0
 40
8.0
  1
Admin / Office Buildings
  7
ENGINEERING
 11
4540.0
 21
3410.0
 31
0.0
100
AcDbText
  0
SOLID
  5
C6
330
17
100
AcDbEntity
  8
X-ANNO-TEXT
 62
6
100
AcDbTrace
 10
4518.0
 20
3390.0
 30
0.0
 11
4534.0
 21
3390.0
 31
0.0
 12
4534.0
 22
3402.0
 32
0.0
 13
4518.0
 23
3402.0
 33
0.0
  0
TEXT
  5
C7
330
17
100
AcDbEntity
  8
X-ANNO-TEXT
100
AcDbText
 10
4540.0
 20
3392.0
 30
0.0
 40
8.0
  1
Logistics / Storage Buildings
  7
ENGINEERING
 11
4540.0
 21
3392.0
 31
0.0
100
AcDbText
  0
SOLID
  5
C8
330
17
100
AcDbEntity
  8
X-ANNO-TEXT
 62
2
100
AcDbTrace
 10
4518.0
 20
3372.0
 30
0.0
 11
4534.0
 21
3372.0
 31
0.0
 12
4534.0
 22
3384.0
 32
0.0
 13
4518.0
 23
3384.0
 33
0.0
  0
TEXT
  5
C9
330
17
100
AcDbEntity
  8
X-ANNO-TEXT
100
AcDbText
 10
4540.0
 20
3374.0
 30
0.0
 40
8.0
  1
Power Infrastructure / Solar
  7
ENGINEERING
 11
4540.0
 21
3374.0
 31
0.0
100
AcDbText
  0
SOLID
  5
CA
330
17
100
AcDbEntity
  8
X-ANNO-TEXT
 62
1
100
AcDbTrace
 10
4518.0
 20
3354.0
 30
0.0
 11
4534.0
 21
3354.0
 31
0.0
 12
4534.0
 22
3366.0
 32
0.0
 13
4518.0
 23
3366.0
 33
0.0
  0
TEXT
  5
CB
330
17
100
AcDbEntity
  8
X-ANNO-TEXT
100
AcDbText
 10
4540.0
 20
3356.0
 30
0.0
 40
8.0
  1
Rail Infrastructure
  7
ENGINEERING
 11
4540.0
 21
3356.0
 31
0.0
100
AcDbText
  0
SOLID
  5
CC
330
17
100
AcDbEntity
  8
X-ANNO-TEXT
 62
8
100
AcDbTrace
 10
4518.0
 20
3336.0
 30
0.0
 11
4534.0
 21
3336.0
 31
0.0
 12
4534.0
 22
3348.0
 32
0.0
 13
4518.0
 23
3348.0
 33
0.0
  0
TEXT
  5
CD
330
17
100
AcDbEntity
  8
X-ANNO-TEXT
100
AcDbText
 10
4540.0
 20
3338.0
 30
0.0
 40
8.0
  1
Roads & Paving
  7
ENGINEERING
 11
4540.0
 21
3338.0
 31
0.0
100
AcDbText
  0
SOLID
  5
CE
330
17
100
AcDbEntity
  8
X-ANNO-TEXT
 62
4
100
AcDbTrace
 10
4518.0
 20
3318.0
 30
0.0
 11
4534.0
 21
3318.0
 31
0.0
 12
4534.0
 22
3330.0
 32
0.0
 13
4518.0
 23
3330.0
 33
0.0
  0
TEXT
  5
CF
330
17
100
AcDbEntity
  8
X-ANNO-TEXT
100
AcDbText
 10
4540.0
 20
3320.0
 30
0.0
 40
8.0
  1
Environmental / Stormwater Zone
  7
ENGINEERING
 11
4540.0
 21
3320.0
 31
0.0
100
AcDbText
  0
SOLID
  5
D0
330
17
100
AcDbEntity
  8
X-ANNO-TEXT
 62
6
100
AcDbTrace
 10
4518.0
 20
3300.0
 30
0.0
 11
4534.0
 21
3300.0
 31
0.0
 12
4534.0
 22
3312.0
 32
0.0
 13
4518.0
 23
3312.0
 33
0.0
  0
TEXT
  5
D1
330
17
100
AcDbEntity
  8
X-ANNO-TEXT
100
AcDbText
 10
4540.0
 20
3302.0
 30
0.0
 40
8.0
  1
Expansion Reserve Zone
  7
ENGINEERING
 11
4540.0
 21
3302.0
 31
0.0
100
AcDbText
  0
SOLID
  5
D2
330
17
100
AcDbEntity
  8
X-ANNO-TEXT
 62
1
100
AcDbTrace
 10
4518.0
 20
3282.0
 30
0.0
 11
4534.0
 21
3282.0
 31
0.0
 12
4534.0
 22
3294.0
 32
0.0
 13
4518.0
 23
3294.0
 33
0.0
  0
TEXT
  5
D3
330
17
100
AcDbEntity
  8
X-ANNO-TEXT
100
AcDbText
 10
4540.0
 20
3284.0
 30
0.0
 40
8.0
  1
Security Perimeter
  7
ENGINEERING
 11
4540.0
 21
3284.0
 31
0.0
100
AcDbText
  0
LWPOLYLINE
  5
D4
330
17
100
AcDbEntity
  8
X-ANNO-TITL
100
AcDbPolyline
 90
5
 70
0
 10
0.0
 20
-120.0
 10
1200.0
 20
-120.0
 10
1200.0
 20
0.0
 10
0.0
 20
0.0
 10
0.0
 20
-120.0
  0
LINE
  5
D5
330
17
100
AcDbEntity
  8
X-ANNO-TITL
100
AcDbLine
 10
800.0
 20
-120.0
 30
0.0
 11
800.0
 21
0.0
 31
0.0
  0
LINE
  5
D6
330
17
100
AcDbEntity
  8
X-ANNO-TITL
100
AcDbLine
 10
1000.0
 20
-120.0
 30
0.0
 11
1000.0
 21
0.0
 31
0.0
  0
LINE
  5
D7
330
17
100
AcDbEntity
  8
X-ANNO-TITL
100
AcDbLine
 10
800.0
 20
-60.0
 30
0.0
 11
1000.0
 21
-60.0
 31
0.0
  0
LINE
  5
D8
330
17
100
AcDbEntity
  8
X-ANNO-TITL
100
AcDbLine
 10
800.0
 20
-90.0
 30
0.0
 11
800.0
 21
-90.0
 31
0.0
  0
LINE
  5
D9
330
17
100
AcDbEntity
  8
X-ANNO-TITL
100
AcDbLine
 10
0.0
 20
-80.0
 30
0.0
 11
800.0
 21
-80.0
 31
0.0
  0
LINE
  5
DA
330
17
100
AcDbEntity
  8
X-ANNO-TITL
100
AcDbLine
 10
0.0
 20
-50.0
 30
0.0
 11
800.0
 21
-50.0
 31
0.0
  0
LINE
  5
DB
330
17
100
AcDbEntity
  8
X-ANNO-TITL
100
AcDbLine
 10
0.0
 20
-30.0
 30
0.0
 11
800.0
 21
-30.0
 31
0.0
  0
TEXT
  5
DC
330
17
100
AcDbEntity
  8
X-ANNO-TEXT
100
AcDbText
 10
10.0
 20
-25.0
 30
0.0
 40
11.0
  1
MIP PLATFORM — MANUFACTURING INFRASTRUCTURE MASTERPLAN
  7
TITLE
 11
10.0
 21
-25.0
 31
0.0
100
AcDbText
  0
TEXT
  5
DD
330
17
100
AcDbEntity
  8
X-ANNO-TEXT
100
AcDbText
 10
10.0
 20
-45.0
 30
0.0
 40
14.0
  1
SITE: TACOMA INDUSTRIAL PARK
  7
TITLE
 11
10.0
 21
-45.0
 31
0.0
100
AcDbText
  0
TEXT
  5
DE
330
17
100
AcDbEntity
  8
X-ANNO-TEXT
100
AcDbText
 10
10.0
 20
-70.0
 30
0.0
 40
9.0
  1
County: Pierce County, WA  ·  Site Area: 320 Acres  ·  Site ID: TACOMA
  7
ENGINEERING
 11
10.0
 21
-70.0
 31
0.0
100
AcDbText
  0
TEXT
  5
DF
330
17
100
AcDbEntity
  8
X-ANNO-TEXT
100
AcDbText
 10
10.0
 20
-100.0
 30
0.0
 40
8.0
  1
PRELIMINARY MASTERPLAN — PRE-CONSTRUCTION BLUEPRINT INTELLIGENCE PLATFORM
  7
ENGINEERING
 11
10.0
 21
-100.0
 31
0.0
100
AcDbText
  0
TEXT
  5
E0
330
17
100
AcDbEntity
  8
X-ANNO-TEXT
100
AcDbText
 10
10.0
 20
-112.0
 30
0.0
 40
7.0
  1
FOR PLANNING PURPOSES ONLY — NOT FOR CONSTRUCTION
  7
ENGINEERING
 11
10.0
 21
-112.0
 31
0.0
100
AcDbText
  0
TEXT
  5
E1
330
17
100
AcDbEntity
  8
X-ANNO-TEXT
100
AcDbText
 10
810.0
 20
-20.0
 30
0.0
 40
8.0
  1
SCALE:
  7
ENGINEERING
 11
810.0
 21
-20.0
 31
0.0
100
AcDbText
  0
TEXT
  5
E2
330
17
100
AcDbEntity
  8
X-ANNO-TEXT
100
AcDbText
 10
810.0
 20
-32.0
 30
0.0
 40
10.0
  1
1:2400 (1" = 200')
  7
TITLE
 11
810.0
 21
-32.0
 31
0.0
100
AcDbText
  0
TEXT
  5
E3
330
17
100
AcDbEntity
  8
X-ANNO-TEXT
100
AcDbText
 10
810.0
 20
-48.0
 30
0.0
 40
7.0
  1
DRAWN BY:
  7
ENGINEERING
 11
810.0
 21
-48.0
 31
0.0
100
AcDbText
  0
TEXT
  5
E4
330
17
100
AcDbEntity
  8
X-ANNO-TEXT
100
AcDbText
 10
810.0
 20
-60.0
 30
0.0
 40
8.0
  1
MIP AI Platform
  7
ENGINEERING
 11
810.0
 21
-60.0
 31
0.0
100
AcDbText
  0
TEXT
  5
E5
330
17
100
AcDbEntity
  8
X-ANNO-TEXT
100
AcDbText
 10
810.0
 20
-75.0
 30
0.0
 40
7.0
  1
CHECKED:
  7
ENGINEERING
 11
810.0
 21
-75.0
 31
0.0
100
AcDbText
  0
TEXT
  5
E6
330
17
100
AcDbEntity
  8
X-ANNO-TEXT
100
AcDbText
 10
810.0
 20
-87.0
 30
0.0
 40
8.0
  1
Engineering Review
  7
ENGINEERING
 11
810.0
 21
-87.0
 31
0.0
100
AcDbText
  0
TEXT
  5
E7
330
17
100
AcDbEntity
  8
X-ANNO-TEXT
100
AcDbText
 10
810.0
 20
-100.0
 30
0.0
 40
7.0
  1
DATE:
  7
ENGINEERING
 11
810.0
 21
-100.0
 31
0.0
100
AcDbText
  0
TEXT
  5
E8
330
17
100
AcDbEntity
  8
X-ANNO-TEXT
100
AcDbText
 10
810.0
 20
-112.0
 30
0.0
 40
8.0
  1
2026-05-25
  7
ENGINEERING
 11
810.0
 21
-112.0
 31
0.0
100
AcDbText
  0
TEXT
  5
E9
330
17
100
AcDbEntity
  8
X-ANNO-TEXT
100
AcDbText
 10
1010.0
 20
-20.0
 30
0.0
 40
8.0
  1
SHEET:
  7
ENGINEERING
 11
1010.0
 21
-20.0
 31
0.0
100
AcDbText
  0
TEXT
  5
EA
330
17
100
AcDbEntity
  8
X-ANNO-TEXT
100
AcDbText
 10
1010.0
 20
-40.0
 30
0.0
 40
20.0
  1
TAC-M-001
  7
TITLE
 11
1010.0
 21
-40.0
 31
0.0
100
AcDbText
  0
TEXT
  5
EB
330
17
100
AcDbEntity
  8
X-ANNO-TEXT
100
AcDbText
 10
1010.0
 20
-65.0
 30
0.0
 40
8.0
  1
REV:
  7
ENGINEERING
 11
1010.0
 21
-65.0
 31
0.0
100
AcDbText
  0
TEXT
  5
EC
330
17
100
AcDbEntity
  8
X-ANNO-TEXT
100
AcDbText
 10
1010.0
 20
-85.0
 30
0.0
 40
14.0
  1
A
  7
TITLE
 11
1010.0
 21
-85.0
 31
0.0
100
AcDbText
  0
TEXT
  5
ED
330
17
100
AcDbEntity
  8
X-ANNO-TEXT
100
AcDbText
 10
1010.0
 20
-105.0
 30
0.0
 40
8.0
  1
PRELIMINARY
  7
ENGINEERING
 11
1010.0
 21
-105.0
 31
0.0
100
AcDbText
  0
ENDSEC
  0
SECTION
  2
OBJECTS
  0
DICTIONARY
  5
A
330
0
100
AcDbDictionary
281
1
  3
ACAD_COLOR
350
B
  3
ACAD_GROUP
350
C
  3
ACAD_LAYOUT
350
D
  3
ACAD_MATERIAL
350
E
  3
ACAD_MLEADERSTYLE
350
F
  3
ACAD_MLINESTYLE
350
10
  3
ACAD_PLOTSETTINGS
350
11
  3
ACAD_PLOTSTYLENAME
350
12
  3
ACAD_SCALELIST
350
14
  3
ACAD_TABLESTYLE
350
15
  3
ACAD_VISUALSTYLE
350
16
  3
EZDXF_META
350
2D
  0
DICTIONARY
  5
B
330
A
100
AcDbDictionary
281
1
  0
DICTIONARY
  5
C
330
A
100
AcDbDictionary
281
1
  0
DICTIONARY
  5
D
330
A
100
AcDbDictionary
281
1
  3
Model
350
1A
  3
Layout1
350
1E
  0
DICTIONARY
  5
E
330
A
100
AcDbDictionary
281
1
  3
ByBlock
350
1F
  3
ByLayer
350
20
  3
Global
350
21
  0
DICTIONARY
  5
F
330
A
100
AcDbDictionary
281
1
  3
Standard
350
2C
  0
DICTIONARY
  5
10
330
A
100
AcDbDictionary
281
1
  3
Standard
350
22
  0
DICTIONARY
  5
11
330
A
100
AcDbDictionary
281
1
  0
ACDBDICTIONARYWDFLT
  5
12
330
A
100
AcDbDictionary
281
1
  3
Normal
350
13
100
AcDbDictionaryWithDefault
340
13
  0
ACDBPLACEHOLDER
  5
13
330
12
  0
DICTIONARY
  5
14
330
A
100
AcDbDictionary
281
1
  0
DICTIONARY
  5
15
330
A
100
AcDbDictionary
281
1
  0
DICTIONARY
  5
16
330
A
100
AcDbDictionary
281
1
  0
LAYOUT
  5
1A
330
D
100
AcDbPlotSettings
  1

  4
A3
  6

 40
7.5
 41
20.0
 42
7.5
 43
20.0
 44
420.0
 45
297.0
 46
0.0
 47
0.0
 48
0.0
 49
0.0
140
0.0
141
0.0
142
1.0
143
1.0
 70
1024
 72
1
 73
0
 74
5
  7

 75
16
 76
0
 77
2
 78
300
147
1.0
148
0.0
149
0.0
100
AcDbLayout
  1
Model
 70
1
 71
0
 10
0.0
 20
0.0
 11
420.0
 21
297.0
 12
0.0
 22
0.0
 32
0.0
 14
1e+20
 24
1e+20
 34
1e+20
 15
-1e+20
 25
-1e+20
 35
-1e+20
146
0.0
 13
0.0
 23
0.0
 33
0.0
 16
1.0
 26
0.0
 36
0.0
 17
0.0
 27
1.0
 37
0.0
 76
1
330
17
  0
LAYOUT
  5
1E
330
D
100
AcDbPlotSettings
  1

  4
A3
  6

 40
7.5
 41
20.0
 42
7.5
 43
20.0
 44
420.0
 45
297.0
 46
0.0
 47
0.0
 48
0.0
 49
0.0
140
0.0
141
0.0
142
1.0
143
1.0
 70
0
 72
1
 73
0
 74
5
  7

 75
16
 76
0
 77
2
 78
300
147
1.0
148
0.0
149
0.0
100
AcDbLayout
  1
Layout1
 70
1
 71
1
 10
0.0
 20
0.0
 11
420.0
 21
297.0
 12
0.0
 22
0.0
 32
0.0
 14
1e+20
 24
1e+20
 34
1e+20
 15
-1e+20
 25
-1e+20
 35
-1e+20
146
0.0
 13
0.0
 23
0.0
 33
0.0
 16
1.0
 26
0.0
 36
0.0
 17
0.0
 27
1.0
 37
0.0
 76
1
330
1B
  0
MATERIAL
  5
1F
102
{ACAD_REACTORS
330
E
102
}
330
E
100
AcDbMaterial
  1
ByBlock
  2

 70
0
 40
1.0
 71
1
 41
1.0
 91
-1023410177
 42
1.0
 72
1
  3

 73
1
 74
1
 75
1
 44
0.5
 73
0
 45
1.0
 46
1.0
 77
1
  4

 78
1
 79
1
170
1
 48
1.0
171
1
  6

172
1
173
1
174
1
140
1.0
141
1.0
175
1
  7

176
1
177
1
178
1
143
1.0
179
1
  8

270
1
271
1
272
1
145
1.0
146
1.0
273
1
  9

274
1
275
1
276
1
 42
1.0
 72
1
  3

 73
1
 74
1
 75
1
 94
63
  0
MATERIAL
  5
20
102
{ACAD_REACTORS
330
E
102
}
330
E
100
AcDbMaterial
  1
ByLayer
  2

 70
0
 40
1.0
 71
1
 41
1.0
 91
-1023410177
 42
1.0
 72
1
  3

 73
1
 74
1
 75
1
 44
0.5
 73
0
 45
1.0
 46
1.0
 77
1
  4

 78
1
 79
1
170
1
 48
1.0
171
1
  6

172
1
173
1
174
1
140
1.0
141
1.0
175
1
  7

176
1
177
1
178
1
143
1.0
179
1
  8

270
1
271
1
272
1
145
1.0
146
1.0
273
1
  9

274
1
275
1
276
1
 42
1.0
 72
1
  3

 73
1
 74
1
 75
1
 94
63
  0
MATERIAL
  5
21
102
{ACAD_REACTORS
330
E
102
}
330
E
100
AcDbMaterial
  1
Global
  2

 70
0
 40
1.0
 71
1
 41
1.0
 91
-1023410177
 42
1.0
 72
1
  3

 73
1
 74
1
 75
1
 44
0.5
 73
0
 45
1.0
 46
1.0
 77
1
  4

 78
1
 79
1
170
1
 48
1.0
171
1
  6

172
1
173
1
174
1
140
1.0
141
1.0
175
1
  7

176
1
177
1
178
1
143
1.0
179
1
  8

270
1
271
1
272
1
145
1.0
146
1.0
273
1
  9

274
1
275
1
276
1
 42
1.0
 72
1
  3

 73
1
 74
1
 75
1
 94
63
  0
MLINESTYLE
  5
22
102
{ACAD_REACTORS
330
10
102
}
330
10
100
AcDbMlineStyle
  2
Standard
 70
0
  3

 62
256
 51
90.0
 52
90.0
 71
2
 49
0.5
 62
256
  6
BYLAYER
 49
-0.5
 62
256
  6
BYLAYER
  0
MLEADERSTYLE
  5
2C
102
{ACAD_REACTORS
330
F
102
}
330
F
100
AcDbMLeaderStyle
179
2
170
2
171
1
172
0
 90
2
 40
0.0
 41
0.0
173
1
 91
-1056964608
 92
-2
290
1
 42
2.0
291
1
 43
8.0
  3
Standard
 44
4.0
300

342
29
174
1
175
1
176
0
178
1
 93
-1056964608
 45
4.0
292
0
297
0
 46
4.0
 94
-1056964608
 47
1.0
 49
1.0
140
1.0
294
1
141
0.0
177
0
142
1.0
295
0
296
0
143
3.75
271
0
272
9
273
9
  0
DICTIONARY
  5
2D
330
A
100
AcDbDictionary
280
1
281
1
  3
CREATED_BY_EZDXF
350
2E
  3
WRITTEN_BY_EZDXF
350
F0
  0
DICTIONARYVAR
  5
2E
330
2D
100
DictionaryVariables
280
0
  1
1.4.4 @ 2026-05-25T06:48:02.119518+00:00
  0
DICTIONARYVAR
  5
F0
330
2D
100
DictionaryVariables
280
0
  1
1.4.4 @ 2026-05-25T06:48:02.137428+00:00
  0
ENDSEC
  0
EOF
