999
dxfrw 0.6.3
  0
SECTION
  2
HEADER
  9
$ACADVER
  1
AC1021
  9
$DWGCODEPAGE
  3
ANSI_1252
  9
$INSBASE
 10
0
 20
0
 30
0
  9
$EXTMIN
 10
-2093.937
 20
-2335.6
 30
0
  9
$EXTMAX
 10
1949.942
 20
2480.267000000002
 30
0
  9
$LIMMIN
 10
0
 20
0
  9
$LIMMAX
 10
420
 20
297
  9
$ORTHOMODE
 70
    0
  9
$REGENMODE
 70
    1
  9
$FILLMODE
 70
    1
  9
$QTEXTMODE
 70
    0
  9
$MIRRTEXT
 70
    0
  9
$LTSCALE
 40
1
  9
$ATTMODE
 70
    0
  9
$TEXTSIZE
 40
2.5
  9
$TRACEWID
 40
15.68
  9
$TEXTSTYLE
  7
STANDARD
  9
$CLAYER
  8
0
  9
$CELTYPE
  6
BYLAYER
  9
$CECOLOR
 62
  256
  9
$CELTSCALE
 40
1
  9
$DISPSILH
 70
    0
  9
$DIMSCALE
 40
2.5
  9
$DIMASZ
 40
2.5
  9
$DIMEXO
 40
0.625
  9
$DIMDLI
 40
3.75
  9
$DIMRND
 40
0
  9
$DIMDLE
 40
0
  9
$DIMEXE
 40
1.25
  9
$DIMTP
 40
0
  9
$DIMTM
 40
0
  9
$DIMTXT
 40
2.5
  9
$DIMCEN
 40
2.5
  9
$DIMTSZ
 40
0
  9
$DIMTOL
 70
    0
  9
$DIMLIM
 70
    0
  9
$DIMTIH
 70
    0
  9
$DIMTOH
 70
    0
  9
$DIMSE1
 70
    0
  9
$DIMSE2
 70
    0
  9
$DIMTAD
 70
    1
  9
$DIMZIN
 70
    8
  9
$DIMBLK
  1

  9
$DIMASO
 70
    1
  9
$DIMSHO
 70
    1
  9
$DIMPOST
  1

  9
$DIMAPOST
  1

  9
$DIMALT
 70
    0
  9
$DIMALTD
 70
    3
  9
$DIMALTF
 40
0.03937
  9
$DIMLFAC
 40
1
  9
$DIMTOFL
 70
    1
  9
$DIMTVP
 40
0
  9
$DIMTIX
 70
    0
  9
$DIMSOXD
 70
    0
  9
$DIMSAH
 70
    0
  9
$DIMBLK1
  1

  9
$DIMBLK2
  1

  9
$DIMSTYLE
  2
Standard
  9
$DIMCLRD
 70
    0
  9
$DIMCLRE
 70
    0
  9
$DIMCLRT
 70
    0
  9
$DIMTFAC
 40
1
  9
$DIMGAP
 40
0.625
  9
$DIMJUST
 70
    0
  9
$DIMSD1
 70
    0
  9
$DIMSD2
 70
    0
  9
$DIMTOLJ
 70
    0
  9
$DIMTZIN
 70
    8
  9
$DIMALTZ
 70
    0
  9
$DIMALTTZ
 70
    0
  9
$DIMUPT
 70
    0
  9
$DIMDEC
 70
    2
  9
$DIMTDEC
 70
    2
  9
$DIMALTU
 70
    2
  9
$DIMALTTD
 70
    3
  9
$DIMTXSTY
  7
STANDARD
  9
$DIMAUNIT
 70
    0
  9
$DIMADEC
 70
    0
  9
$DIMALTRND
 40
0
  9
$DIMAZIN
 70
    0
  9
$DIMDSEP
 70
   44
  9
$DIMATFIT
 70
    3
  9
$DIMFRAC
 70
    0
  9
$DIMLDRBLK
  1
STANDARD
  9
$DIMLUNIT
 70
    2
  9
$DIMLWD
 70
   -2
  9
$DIMLWE
 70
   -2
  9
$DIMTMOVE
 70
    0
  9
$DIMFXL
 40
1
  9
$DIMFXLON
 70
    0
  9
$DIMJOGANG
 40
0.7854
  9
$DIMTFILL
 70
    0
  9
$DIMTFILLCLR
 70
    0
  9
$DIMARCSYM
 70
    0
  9
$DIMLTYPE
  6

  9
$DIMLTEX1
  6

  9
$DIMLTEX2
  6

  9
$LUNITS
 70
    2
  9
$LUPREC
 70
    2
  9
$SKETCHINC
 40
1
  9
$FILLETRAD
 40
0
  9
$AUNITS
 70
    0
  9
$AUPREC
 70
    2
  9
$MENU
  1
.
  9
$ELEVATION
 40
0
  9
$PELEVATION
 40
0
  9
$THICKNESS
 40
0
  9
$LIMCHECK
 70
    0
  9
$CHAMFERA
 40
0
  9
$CHAMFERB
 40
0
  9
$CHAMFERC
 40
0
  9
$CHAMFERD
 40
0
  9
$SKPOLY
 70
    0
  9
$USRTIMER
 70
    1
  9
$ANGBASE
 50
0
  9
$ANGDIR
 70
    0
  9
$PDMODE
 70
   34
  9
$PDSIZE
 40
0
  9
$PLINEWID
 40
0
  9
$SPLFRAME
 70
    0
  9
$SPLINETYPE
 70
    2
  9
$SPLINESEGS
 70
    8
  9
$HANDSEED
  5
20000
  9
$SURFTAB1
 70
    6
  9
$SURFTAB2
 70
    6
  9
$SURFTYPE
 70
    6
  9
$SURFU
 70
    6
  9
$SURFV
 70
    6
  9
$UCSBASE
  2

  9
$UCSNAME
  2

  9
$UCSORG
 10
0
 20
0
 30
0
  9
$UCSXDIR
 10
1
 20
0
 30
0
  9
$UCSYDIR
 10
0
 20
1
 30
0
  9
$UCSORTHOREF
  2

  9
$UCSORTHOVIEW
 70
    0
  9
$UCSORGTOP
 10
0
 20
0
 30
0
  9
$UCSORGBOTTOM
 10
0
 20
0
 30
0
  9
$UCSORGLEFT
 10
0
 20
0
 30
0
  9
$UCSORGRIGHT
 10
0
 20
0
 30
0
  9
$UCSORGFRONT
 10
0
 20
0
 30
0
  9
$UCSORGBACK
 10
0
 20
0
 30
0
  9
$PUCSBASE
  2

  9
$PUCSNAME
  2

  9
$PUCSORG
 10
0
 20
0
 30
0
  9
$PUCSXDIR
 10
1
 20
0
 30
0
  9
$PUCSYDIR
 10
0
 20
1
 30
0
  9
$PUCSORTHOREF
  2

  9
$PUCSORTHOVIEW
 70
    0
  9
$PUCSORGTOP
 10
0
 20
0
 30
0
  9
$PUCSORGBOTTOM
 10
0
 20
0
 30
0
  9
$PUCSORGLEFT
 10
0
 20
0
 30
0
  9
$PUCSORGRIGHT
 10
0
 20
0
 30
0
  9
$PUCSORGFRONT
 10
0
 20
0
 30
0
  9
$PUCSORGBACK
 10
0
 20
0
 30
0
  9
$USERI1
 70
    0
  9
$USERI2
 70
    0
  9
$USERI3
 70
    0
  9
$USERI4
 70
    0
  9
$USERI5
 70
    0
  9
$USERR1
 40
0
  9
$USERR2
 40
0
  9
$USERR3
 40
0
  9
$USERR4
 40
0
  9
$USERR5
 40
0
  9
$WORLDVIEW
 70
    1
  9
$SHADEDGE
 70
    3
  9
$SHADEDIF
 70
   70
  9
$TILEMODE
 70
    1
  9
$MAXACTVP
 70
   64
  9
$PINSBASE
 10
0
 20
0
 30
0
  9
$PLIMCHECK
 70
    0
  9
$PEXTMIN
 10
0
 20
0
 30
0
  9
$PEXTMAX
 10
0
 20
0
 30
0
  9
$SNAPSTYLE
 70
    0
  9
$PLIMMIN
 10
0
 20
0
  9
$PLIMMAX
 10
210
 20
297
  9
$UNITMODE
 70
    0
  9
$VISRETAIN
 70
    1
  9
$PLINEGEN
 70
    0
  9
$PSLTSCALE
 70
    1
  9
$TREEDEPTH
 70
 3020
  9
$CMLSTYLE
  2
Standard
  9
$CMLJUST
 70
    0
  9
$CMLSCALE
 40
20
  9
$PROXYGRAPHICS
 70
    1
  9
$MEASUREMENT
 70
    1
  9
$CELWEIGHT
370
   -1
  9
$ENDCAPS
280
    0
  9
$JOINSTYLE
280
    0
  9
$LWDISPLAY
290
    0
  9
$INSUNITS
 70
    0
  9
$HYPERLINKBASE
  1

  9
$STYLESHEET
  1

  9
$XEDIT
290
    1
  9
$CEPSNTYPE
380
    0
  9
$PSTYLEMODE
290
    1
  9
$EXTNAMES
290
    1
  9
$PSVPSCALE
 40
1
  9
$OLESTARTUP
290
    0
  9
$SORTENTS
280
  127
  9
$INDEXCTL
280
    0
  9
$HIDETEXT
280
    1
  9
$XCLIPFRAME
290
    0
  9
$HALOGAP
280
    0
  9
$OBSCOLOR
 70
  257
  9
$OBSLTYPE
280
    0
  9
$INTERSECTIONDISPLAY
280
    0
  9
$INTERSECTIONCOLOR
 70
  257
  9
$DIMASSOC
280
    1
  9
$PROJECTNAME
  1

  9
$CAMERADISPLAY
290
    0
  9
$LENSLENGTH
 40
50
  9
$CAMERAHEIGHT
 40
0
  9
$STEPSPERSEC
 40
2
  9
$STEPSIZE
 40
50
  9
$3DDWFPREC
 40
2
  9
$PSOLWIDTH
 40
5
  9
$PSOLHEIGHT
 40
80
  9
$LOFTANG1
 40
1.570796326794897
  9
$LOFTANG2
 40
1.570796326794897
  9
$LOFTMAG1
 40
0
  9
$LOFTMAG2
 40
0
  9
$LOFTPARAM
 70
    7
  9
$LOFTNORMALS
280
    1
  9
$LATITUDE
 40
1
  9
$LONGITUDE
 40
1
  9
$NORTHDIRECTION
 40
0
  9
$TIMEZONE
 70
-8000
  9
$LIGHTGLYPHDISPLAY
280
    1
  9
$TILEMODELIGHTSYNCH
280
    1
  9
$SOLIDHIST
280
    1
  9
$SHOWHIST
280
    1
  9
$DWFFRAME
280
    2
  9
$DGNFRAME
280
    0
  9
$REALWORLDSCALE
290
    1
  9
$INTERFERECOLOR
 62
    1
  9
$CSHADOW
280
    0
  9
$SHADOWPLANELOCATION
 40
0
  0
ENDSEC
  0
SECTION
  2
CLASSES
  0
ENDSEC
  0
SECTION
  2
TABLES
  0
TABLE
  2
VPORT
  5
8
330
0
100
AcDbSymbolTable
 70
    1
  0
VPORT
  5
31
330
2
100
AcDbSymbolTableRecord
100
AcDbViewportTableRecord
  2
*ACTIVE
 70
    0
 10
0
 20
0
 11
1
 21
1
 12
2997.602166487923
 22
1709.743457922741
 13
0
 23
0
 14
10
 24
10
 15
10
 25
10
 16
0
 26
0
 36
1
 17
0
 27
0
 37
0
 40
6821.210263296962
 41
2.037760416666667
 42
50
 43
0
 44
0
 50
0
 51
0
 71
    0
 72
  100
 73
    1
 74
    3
 75
    0
 76
    1
 77
    0
 78
    0
281
    0
 65
    1
110
0
120
0
130
0
111
1
121
0
131
0
112
0
122
1
132
0
 79
    0
146
0
348
10020
 60
    7
 61
    5
292
1
282
    1
141
0
142
0
 63
  250
421
3358443
  0
ENDTAB
  0
TABLE
  2
LTYPE
  5
5
330
0
100
AcDbSymbolTable
 70
    4
  0
LTYPE
  5
14
330
5
100
AcDbSymbolTableRecord
100
AcDbLinetypeTableRecord
  2
ByBlock
 70
    0
  3

 72
   65
 73
    0
 40
0
  0
LTYPE
  5
15
330
5
100
AcDbSymbolTableRecord
100
AcDbLinetypeTableRecord
  2
ByLayer
 70
    0
  3

 72
   65
 73
    0
 40
0
  0
LTYPE
  5
16
330
5
100
AcDbSymbolTableRecord
100
AcDbLinetypeTableRecord
  2
Continuous
 70
    0
  3
Solid line
 72
   65
 73
    0
 40
0
  0
LTYPE
  5
32
330
5
100
AcDbSymbolTableRecord
100
AcDbLinetypeTableRecord
  2
DOT
 70
    0
  3
Dot . . . . . . . . . . . . . . . . . . . . . .
 72
   65
 73
    2
 40
6.35
 49
0
 74
    0
 49
-6.35
 74
    0
  0
LTYPE
  5
33
330
5
100
AcDbSymbolTableRecord
100
AcDbLinetypeTableRecord
  2
DOTTINY
 70
    0
  3
Dot (.15x) .....................................
 72
   65
 73
    2
 40
0.9525
 49
0
 74
    0
 49
-0.9525
 74
    0
  0
LTYPE
  5
34
330
5
100
AcDbSymbolTableRecord
100
AcDbLinetypeTableRecord
  2
DOT2
 70
    0
  3
Dot (.5x) .....................................
 72
   65
 73
    2
 40
3.175
 49
0
 74
    0
 49
-3.175
 74
    0
  0
LTYPE
  5
35
330
5
100
AcDbSymbolTableRecord
100
AcDbLinetypeTableRecord
  2
DOTX2
 70
    0
  3
Dot (2x) .  .  .  .  .  .  .  .  .  .  .  .  .
 72
   65
 73
    2
 40
12.7
 49
0
 74
    0
 49
-12.7
 74
    0
  0
LTYPE
  5
36
330
5
100
AcDbSymbolTableRecord
100
AcDbLinetypeTableRecord
  2
DASHED
 70
    0
  3
Dashed _ _ _ _ _ _ _ _ _ _ _ _ _ _ _ _ _
 72
   65
 73
    2
 40
19.05
 49
12.7
 74
    0
 49
-6.35
 74
    0
  0
LTYPE
  5
37
330
5
100
AcDbSymbolTableRecord
100
AcDbLinetypeTableRecord
  2
DASHEDTINY
 70
    0
  3
Dashed (.15x) _ _ _ _ _ _ _ _ _ _ _ _ _ _ _ _ _
 72
   65
 73
    2
 40
2.8575
 49
1.905
 74
    0
 49
-0.9525
 74
    0
  0
LTYPE
  5
38
330
5
100
AcDbSymbolTableRecord
100
AcDbLinetypeTableRecord
  2
DASHED2
 70
    0
  3
Dashed (.5x) _ _ _ _ _ _ _ _ _ _ _ _ _ _ _ _ _
 72
   65
 73
    2
 40
9.524999999999999
 49
6.35
 74
    0
 49
-3.175
 74
    0
  0
LTYPE
  5
39
330
5
100
AcDbSymbolTableRecord
100
AcDbLinetypeTableRecord
  2
DASHEDX2
 70
    0
  3
Dashed (2x) ____  ____  ____  ____  ____  ___
 72
   65
 73
    2
 40
38.09999999999999
 49
25.4
 74
    0
 49
-12.7
 74
    0
  0
LTYPE
  5
3A
330
5
100
AcDbSymbolTableRecord
100
AcDbLinetypeTableRecord
  2
DASHDOT
 70
    0
  3
Dash dot __ . __ . __ . __ . __ . __ . __ . __
 72
   65
 73
    4
 40
25.4
 49
12.7
 74
    0
 49
-6.35
 74
    0
 49
0
 74
    0
 49
-6.35
 74
    0
  0
LTYPE
  5
3B
330
5
100
AcDbSymbolTableRecord
100
AcDbLinetypeTableRecord
  2
DASHDOTTINY
 70
    0
  3
Dash dot (.15x) _._._._._._._._._._._._._._._.
 72
   65
 73
    4
 40
3.81
 49
1.905
 74
    0
 49
-0.9525
 74
    0
 49
0
 74
    0
 49
-0.9525
 74
    0
  0
LTYPE
  5
3C
330
5
100
AcDbSymbolTableRecord
100
AcDbLinetypeTableRecord
  2
DASHDOT2
 70
    0
  3
Dash dot (.5x) _._._._._._._._._._._._._._._.
 72
   65
 73
    4
 40
12.7
 49
6.35
 74
    0
 49
-3.175
 74
    0
 49
0
 74
    0
 49
-3.175
 74
    0
  0
LTYPE
  5
3D
330
5
100
AcDbSymbolTableRecord
100
AcDbLinetypeTableRecord
  2
DASHDOTX2
 70
    0
  3
Dash dot (2x) ____  .  ____  .  ____  .  ___
 72
   65
 73
    4
 40
50.8
 49
25.4
 74
    0
 49
-12.7
 74
    0
 49
0
 74
    0
 49
-12.7
 74
    0
  0
LTYPE
  5
3E
330
5
100
AcDbSymbolTableRecord
100
AcDbLinetypeTableRecord
  2
DIVIDE
 70
    0
  3
Divide ____ . . ____ . . ____ . . ____ . . ____
 72
   65
 73
    6
 40
31.75
 49
12.7
 74
    0
 49
-6.35
 74
    0
 49
0
 74
    0
 49
-6.35
 74
    0
 49
0
 74
    0
 49
-6.35
 74
    0
  0
LTYPE
  5
3F
330
5
100
AcDbSymbolTableRecord
100
AcDbLinetypeTableRecord
  2
DIVIDETINY
 70
    0
  3
Divide (.15x) __..__..__..__..__..__..__..__.._
 72
   65
 73
    6
 40
4.7625
 49
1.905
 74
    0
 49
-0.9525
 74
    0
 49
0
 74
    0
 49
-0.9525
 74
    0
 49
0
 74
    0
 49
-0.9525
 74
    0
  0
LTYPE
  5
40
330
5
100
AcDbSymbolTableRecord
100
AcDbLinetypeTableRecord
  2
DIVIDE2
 70
    0
  3
Divide (.5x) __..__..__..__..__..__..__..__.._
 72
   65
 73
    6
 40
15.875
 49
6.35
 74
    0
 49
-3.175
 74
    0
 49
0
 74
    0
 49
-3.175
 74
    0
 49
0
 74
    0
 49
-3.175
 74
    0
  0
LTYPE
  5
41
330
5
100
AcDbSymbolTableRecord
100
AcDbLinetypeTableRecord
  2
DIVIDEX2
 70
    0
  3
Divide (2x) ________  .  .  ________  .  .  _
 72
   65
 73
    6
 40
63.5
 49
25.4
 74
    0
 49
-12.7
 74
    0
 49
0
 74
    0
 49
-12.7
 74
    0
 49
0
 74
    0
 49
-12.7
 74
    0
  0
LTYPE
  5
42
330
5
100
AcDbSymbolTableRecord
100
AcDbLinetypeTableRecord
  2
BORDER
 70
    0
  3
Border __ __ . __ __ . __ __ . __ __ . __ __ .
 72
   65
 73
    6
 40
44.45
 49
12.7
 74
    0
 49
-6.35
 74
    0
 49
12.7
 74
    0
 49
-6.35
 74
    0
 49
0
 74
    0
 49
-6.35
 74
    0
  0
LTYPE
  5
43
330
5
100
AcDbSymbolTableRecord
100
AcDbLinetypeTableRecord
  2
BORDERTINY
 70
    0
  3
Border (.15x) __.__.__.__.__.__.__.__.__.__.__.
 72
   65
 73
    6
 40
6.6675
 49
1.905
 74
    0
 49
-0.9525
 74
    0
 49
1.905
 74
    0
 49
-0.9525
 74
    0
 49
0
 74
    0
 49
-0.9525
 74
    0
  0
LTYPE
  5
44
330
5
100
AcDbSymbolTableRecord
100
AcDbLinetypeTableRecord
  2
BORDER2
 70
    0
  3
Border (.5x) __.__.__.__.__.__.__.__.__.__.__.
 72
   65
 73
    6
 40
22.225
 49
6.35
 74
    0
 49
-3.175
 74
    0
 49
6.35
 74
    0
 49
-3.175
 74
    0
 49
0
 74
    0
 49
-3.175
 74
    0
  0
LTYPE
  5
45
330
5
100
AcDbSymbolTableRecord
100
AcDbLinetypeTableRecord
  2
BORDERX2
 70
    0
  3
Border (2x) ____  ____  .  ____  ____  .  ___
 72
   65
 73
    6
 40
88.89999999999999
 49
25.4
 74
    0
 49
-12.7
 74
    0
 49
25.4
 74
    0
 49
-12.7
 74
    0
 49
0
 74
    0
 49
-12.7
 74
    0
  0
LTYPE
  5
46
330
5
100
AcDbSymbolTableRecord
100
AcDbLinetypeTableRecord
  2
CENTER
 70
    0
  3
Center ____ _ ____ _ ____ _ ____ _ ____ _ ____
 72
   65
 73
    4
 40
50.8
 49
31.75
 74
    0
 49
-6.35
 74
    0
 49
6.35
 74
    0
 49
-6.35
 74
    0
  0
LTYPE
  5
47
330
5
100
AcDbSymbolTableRecord
100
AcDbLinetypeTableRecord
  2
CENTERTINY
 70
    0
  3
Center (.15x) ___ _ ___ _ ___ _ ___ _ ___ _ ___
 72
   65
 73
    4
 40
7.619999999999999
 49
4.7625
 74
    0
 49
-0.9525
 74
    0
 49
0.9525
 74
    0
 49
-0.9525
 74
    0
  0
LTYPE
  5
48
330
5
100
AcDbSymbolTableRecord
100
AcDbLinetypeTableRecord
  2
CENTER2
 70
    0
  3
Center (.5x) ___ _ ___ _ ___ _ ___ _ ___ _ ___
 72
   65
 73
    4
 40
28.575
 49
19.05
 74
    0
 49
-3.175
 74
    0
 49
3.175
 74
    0
 49
-3.175
 74
    0
  0
LTYPE
  5
49
330
5
100
AcDbSymbolTableRecord
100
AcDbLinetypeTableRecord
  2
CENTERX2
 70
    0
  3
Center (2x) ________  __  ________  __  _____
 72
   65
 73
    4
 40
101.6
 49
63.5
 74
    0
 49
-12.7
 74
    0
 49
12.7
 74
    0
 49
-12.7
 74
    0
  0
ENDTAB
  0
TABLE
  2
LAYER
  5
2
330
0
100
AcDbSymbolTable
 70
    1
  0
LAYER
  5
10
330
2
100
AcDbSymbolTableRecord
100
AcDbLayerTableRecord
  2
0
 70
    0
 62
    7
  6
CONTINUOUS
370
    0
390
F
  0
LAYER
  5
4A
330
2
100
AcDbSymbolTableRecord
100
AcDbLayerTableRecord
  2
A-BLDG
 70
    0
 62
    5
  6
CONTINUOUS
370
   25
390
F
  0
LAYER
  5
4B
330
2
100
AcDbSymbolTableRecord
100
AcDbLayerTableRecord
  2
A-BLDG-FILL
 70
    0
 62
  254
  6
CONTINUOUS
370
    0
390
F
  0
LAYER
  5
4C
330
2
100
AcDbSymbolTableRecord
100
AcDbLayerTableRecord
  2
A-BLDG-OFFC
 70
    0
 62
    3
  6
CONTINUOUS
370
   25
390
F
  0
LAYER
  5
4D
330
2
100
AcDbSymbolTableRecord
100
AcDbLayerTableRecord
  2
A-BLDG-PROD
 70
    0
 62
    4
  6
CONTINUOUS
370
   25
390
F
  0
LAYER
  5
4E
330
2
100
AcDbSymbolTableRecord
100
AcDbLayerTableRecord
  2
A-BLDG-UTIL
 70
    0
 62
    2
  6
CONTINUOUS
370
   25
390
F
  0
LAYER
  5
4F
330
2
100
AcDbSymbolTableRecord
100
AcDbLayerTableRecord
  2
ANNOTATION
 70
    0
 62
    7
  6
CONTINUOUS
370
    0
390
F
  0
LAYER
  5
50
330
2
100
AcDbSymbolTableRecord
100
AcDbLayerTableRecord
  2
BOUNDARY
 70
    0
 62
    3
  6
CONTINUOUS
370
   50
390
F
  0
LAYER
  5
51
330
2
100
AcDbSymbolTableRecord
100
AcDbLayerTableRecord
  2
C-ROAD
 70
    0
 62
    5
  6
CONTINUOUS
370
    0
390
F
  0
LAYER
  5
52
330
2
100
AcDbSymbolTableRecord
100
AcDbLayerTableRecord
  2
E-UTIL-POWR
 70
    0
 62
    5
  6
CONTINUOUS
370
    0
390
F
  0
LAYER
  5
53
330
2
100
AcDbSymbolTableRecord
100
AcDbLayerTableRecord
  2
GATES
 70
    0
 62
    3
  6
CONTINUOUS
370
    0
390
F
  0
LAYER
  5
54
330
2
100
AcDbSymbolTableRecord
100
AcDbLayerTableRecord
  2
NORTH-ARROW
 70
    0
 62
    7
  6
CONTINUOUS
370
    0
390
F
  0
LAYER
  5
55
330
2
100
AcDbSymbolTableRecord
100
AcDbLayerTableRecord
  2
ROADS-EMERG
 70
    0
 62
    1
  6
DASHED
370
   18
390
F
  0
LAYER
  5
56
330
2
100
AcDbSymbolTableRecord
100
AcDbLayerTableRecord
  2
ROADS-MAIN
 70
    0
 62
    7
  6
CONTINUOUS
370
   35
390
F
  0
LAYER
  5
57
330
2
100
AcDbSymbolTableRecord
100
AcDbLayerTableRecord
  2
ROADS-RAIL
 70
    0
 62
    6
  6
CENTER
370
   20
390
F
  0
LAYER
  5
58
330
2
100
AcDbSymbolTableRecord
100
AcDbLayerTableRecord
  2
ROADS-TRUCK
 70
    0
 62
    2
  6
DASHED
370
   25
390
F
  0
LAYER
  5
59
330
2
100
AcDbSymbolTableRecord
100
AcDbLayerTableRecord
  2
T-RAIL
 70
    0
 62
    5
  6
CONTINUOUS
370
    0
390
F
  0
LAYER
  5
5A
330
2
100
AcDbSymbolTableRecord
100
AcDbLayerTableRecord
  2
TITLE-BLOCK
 70
    0
 62
    7
  6
CONTINUOUS
370
    0
390
F
  0
LAYER
  5
5B
330
2
100
AcDbSymbolTableRecord
100
AcDbLayerTableRecord
  2
Z-ZONE-HANGAR
 70
    0
 62
    5
  6
CONTINUOUS
370
    0
390
F
  0
LAYER
  5
5C
330
2
100
AcDbSymbolTableRecord
100
AcDbLayerTableRecord
  2
ZONE-LABELS
 70
    0
 62
    7
  6
CONTINUOUS
370
    0
390
F
  0
LAYER
  5
5D
330
2
100
AcDbSymbolTableRecord
100
AcDbLayerTableRecord
  2
ZONES
 70
    0
 62
    9
  6
CONTINUOUS
370
   18
390
F
  0
ENDTAB
  0
TABLE
  2
STYLE
  5
3
330
0
100
AcDbSymbolTable
 70
    3
  0
STYLE
  5
5E
330
2
100
AcDbSymbolTableRecord
100
AcDbTextStyleTableRecord
  2
STANDARD
 70
    0
 40
0
 41
1
 50
0
 71
    0
 42
1
  3
STANDARD
  4

  0
ENDTAB
  0
TABLE
  2
VIEW
  5
6
330
0
100
AcDbSymbolTable
 70
    0
  0
ENDTAB
  0
TABLE
  2
UCS
  5
7
330
0
100
AcDbSymbolTable
 70
    0
  0
ENDTAB
  0
TABLE
  2
APPID
  5
9
330
0
100
AcDbSymbolTable
 70
    1
  0
APPID
  5
12
330
9
100
AcDbSymbolTableRecord
100
AcDbRegAppTableRecord
  2
ACAD
 70
    0
  0
APPID
  5
5F
330
9
100
AcDbSymbolTableRecord
100
AcDbRegAppTableRecord
  2
LibreCad
 70
    0
  0
ENDTAB
  0
TABLE
  2
DIMSTYLE
  5
A
330
0
100
AcDbSymbolTable
 70
    1
100
AcDbDimStyleTable
 71
    1
  0
DIMSTYLE
105
60
330
A
100
AcDbSymbolTableRecord
100
AcDbDimStyleTableRecord
  2
Standard
 70
    0
 40
1
 41
2.5
 42
0.625
 43
0.38
 44
1.25
 45
0
 46
0
 47
0
 48
0
 49
1
140
2.5
141
0.09
142
2.5
143
25.4
144
1
145
0
146
1
147
0.625
148
0
 71
    0
 72
    0
 73
    0
 74
    1
 75
    0
 76
    0
 77
    0
 78
    1
 79
    0
170
    0
171
    2
172
    0
173
    0
174
    0
175
    0
176
    0
177
    0
178
    0
179
    0
271
    2
272
    4
273
    2
274
    2
275
    0
276
    0
277
    2
278
    0
279
    0
280
    0
281
    0
282
    0
283
    1
284
    0
285
    0
286
    0
288
    0
289
    3
340
standard
341

371
   -2
372
   -2
  0
ENDTAB
  0
TABLE
  2
BLOCK_RECORD
  5
1
330
0
100
AcDbSymbolTable
 70
    2
  0
BLOCK_RECORD
  5
1F
330
1
100
AcDbSymbolTableRecord
100
AcDbBlockTableRecord
  2
*Model_Space
 70
    0
280
    1
281
    0
  0
BLOCK_RECORD
  5
1E
330
1
100
AcDbSymbolTableRecord
100
AcDbBlockTableRecord
  2
*Paper_Space
 70
    0
280
    1
281
    0
  0
ENDTAB
  0
ENDSEC
  0
SECTION
  2
BLOCKS
  0
BLOCK
  5
20
330
1F
100
AcDbEntity
  8
0
100
AcDbBlockBegin
  2
*Model_Space
 70
    0
 10
0
 20
0
 30
0
  3
*Model_Space
  1

  0
ENDBLK
  5
21
330
1F
100
AcDbEntity
  8
0
100
AcDbBlockEnd
  0
BLOCK
  5
1C
330
1B
100
AcDbEntity
  8
0
100
AcDbBlockBegin
  2
*Paper_Space
 70
    0
 10
0
 20
0
 30
0
  3
*Paper_Space
  1

  0
ENDBLK
  5
1D
330
1F
100
AcDbEntity
  8
0
100
AcDbBlockEnd
  0
ENDSEC
  0
SECTION
  2
ENTITIES
  0
LWPOLYLINE
  5
61
100
AcDbEntity
  8
BOUNDARY
  6
ByLayer
 62
    3
370
   -1
100
AcDbPolyline
 90
    6
 70
    1
 43
0
 10
-1703.949
 20
2293.2
 10
1703.949
 20
2074.8
 10
1943.942
 20
400.4
 10
1559.953
 20
-2220.4
 10
-1703.949
 20
-2329.6
 10
-2087.937
 20
-982.8
  0
LWPOLYLINE
  5
62
100
AcDbEntity
  8
BOUNDARY
  6
ByLayer
 62
    3
370
   -1
100
AcDbPolyline
 90
    6
 70
    1
 43
0
 10
-1697.949
 20
2299.2
 10
1709.949
 20
2080.8
 10
1949.942
 20
406.4
 10
1565.953
 20
-2214.4
 10
-1697.949
 20
-2323.6
 10
-2081.937
 20
-976.8
  0
LWPOLYLINE
  5
63
100
AcDbEntity
  8
BOUNDARY
  6
ByLayer
 62
    8
370
   -1
100
AcDbPolyline
 90
    6
 70
    1
 43
0
 10
-1709.949
 20
2287.2
 10
1697.949
 20
2068.8
 10
1937.942
 20
394.4
 10
1553.953
 20
-2226.4
 10
-1709.949
 20
-2335.6
 10
-2093.937
 20
-988.8
  0
TEXT
  5
64
100
AcDbEntity
  8
BOUNDARY
  6
ByLayer
 62
    3
370
   -1
100
AcDbText
 10
-1703.949
 20
2431.884
 30
0
 40
48.383
  1
SITE BOUNDARY - 380 ac
 50
0
 41
1
 51
0
  7
STANDARD
 71
    0
210
0
220
0
230
1
100
AcDbText
  0
HATCH
  5
65
100
AcDbEntity
  8
ZONES
  6
ByLayer
 62
    8
370
   -1
100
AcDbHatch
 10
0
 20
0
 30
0
210
0
220
0
230
1
  2
SOLID
 70
    1
 71
    0
 91
    1
 92
    0
 93
    1
 72
    2
 10
-1217.418
 20
1662.818
 40
8.344230681645688e-308
 50
360
 51
360
 73
    0
 97
    0
 75
    0
 76
    1
 98
    0
  0
LWPOLYLINE
  5
66
100
AcDbEntity
  8
ZONES
  6
DASHED
 62
    8
370
   -1
100
AcDbPolyline
 90
    4
 70
    1
 43
0
 10
-1217.418
 20
2188.136
 10
1073.422
 20
2188.136
 10
1073.422
 20
1662.818
 10
-1217.418
 20
1662.818
  0
TEXT
  5
67
100
AcDbEntity
  8
ZONE-LABELS
  6
ByLayer
 62
    7
370
   -1
100
AcDbText
 10
-71.998
 20
1999.442
 30
0
 40
36.287
  1
TRUCK + RAIL GATEWAY
 50
0
 41
1
 51
0
  7
STANDARD
 71
    0
 72
    1
 11
-71.998
 21
1999.442
 31
0
210
0
220
0
230
1
100
AcDbText
  0
HATCH
  5
68
100
AcDbEntity
  8
ZONES
  6
ByLayer
 62
    5
370
   -1
100
AcDbHatch
 10
0
 20
0
 30
0
210
0
220
0
230
1
  2
SOLID
 70
    1
 71
    0
 91
    1
 92
    0
 93
    1
 72
    2
 10
-1904.67
 20
664.7140000000001
 40
0
 50
360
 51
360
 73
    0
 97
    0
 75
    0
 76
    1
 98
    0
  0
LWPOLYLINE
  5
69
100
AcDbEntity
  8
ZONES
  6
DASHED
 62
    5
370
   -1
100
AcDbPolyline
 90
    4
 70
    1
 43
0
 10
-1904.67
 20
1610.286
 10
1760.674
 20
1610.286
 10
1760.674
 20
664.7140000000001
 10
-1904.67
 20
664.7140000000001
  0
TEXT
  5
6A
100
AcDbEntity
  8
ZONE-LABELS
  6
ByLayer
 62
    7
370
   -1
100
AcDbText
 10
-71.998
 20
1211.465
 30
0
 40
36.287
  1
COMPONENT MANUFACTURING
 50
0
 41
1
 51
0
  7
STANDARD
 71
    0
 72
    1
 11
-71.998
 21
1211.465
 31
0
210
0
220
0
230
1
100
AcDbText
  0
HATCH
  5
6B
100
AcDbEntity
  8
ZONES
  6
ByLayer
 62
    4
370
   -1
100
AcDbHatch
 10
0
 20
0
 30
0
210
0
220
0
230
1
  2
SOLID
 70
    1
 71
    0
 91
    1
 92
    0
 93
    1
 72
    2
 10
-1904.67
 20
-385.923
 40
0
 50
360
 51
360
 73
    0
 97
    0
 75
    0
 76
    1
 98
    0
  0
LWPOLYLINE
  5
6C
100
AcDbEntity
  8
ZONES
  6
DASHED
 62
    4
370
   -1
100
AcDbPolyline
 90
    4
 70
    1
 43
0
 10
-1904.67
 20
612.182
 10
1760.674
 20
612.182
 10
1760.674
 20
-385.923
 10
-1904.67
 20
-385.923
  0
TEXT
  5
6D
100
AcDbEntity
  8
ZONE-LABELS
  6
ByLayer
 62
    7
370
   -1
100
AcDbText
 10
-71.998
 20
187.094
 30
0
 40
36.287
  1
AEROSPACE ASSEMBLY
 50
0
 41
1
 51
0
  7
STANDARD
 71
    0
 72
    1
 11
-71.998
 21
187.094
 31
0
210
0
220
0
230
1
100
AcDbText
  0
HATCH
  5
6E
100
AcDbEntity
  8
ZONES
  6
ByLayer
 62
    6
370
   -1
100
AcDbHatch
 10
0
 20
0
 30
0
210
0
220
0
230
1
  2
SOLID
 70
    1
 71
    0
 91
    1
 92
    0
 93
    1
 72
    2
 10
-1996.304
 20
-1068.836
 40
0
 50
360
 51
360
 73
    0
 97
    0
 75
    0
 76
    1
 98
    0
  0
LWPOLYLINE
  5
6F
100
AcDbEntity
  8
ZONES
  6
DASHED
 62
    6
370
   -1
100
AcDbPolyline
 90
    4
 70
    1
 43
0
 10
-1996.304
 20
-438.455
 10
1852.308
 20
-438.455
 10
1852.308
 20
-1068.836
 10
-1996.304
 20
-1068.836
  0
TEXT
  5
70
100
AcDbEntity
  8
ZONE-LABELS
  6
ByLayer
 62
    7
370
   -1
100
AcDbText
 10
-71.998
 20
-679.681
 30
0
 40
36.287
  1
FLIGHT TEST + DELIVERY
 50
0
 41
1
 51
0
  7
STANDARD
 71
    0
 72
    1
 11
-71.998
 21
-679.681
 31
0
210
0
220
0
230
1
100
AcDbText
  0
HATCH
  5
71
100
AcDbEntity
  8
ZONES
  6
ByLayer
 62
    4
370
   -1
100
AcDbHatch
 10
0
 20
0
 30
0
210
0
220
0
230
1
  2
SOLID
 70
    1
 71
    0
 91
    1
 92
    0
 93
    1
 72
    2
 10
-1904.67
 20
-1699.218
 40
0
 50
360
 51
360
 73
    0
 97
    0
 75
    0
 76
    1
 98
    0
  0
LWPOLYLINE
  5
72
100
AcDbEntity
  8
ZONES
  6
DASHED
 62
    4
370
   -1
100
AcDbPolyline
 90
    4
 70
    1
 43
0
 10
-1904.67
 20
-1121.368
 10
1760.674
 20
-1121.368
 10
1760.674
 20
-1699.218
 10
-1904.67
 20
-1699.218
  0
TEXT
  5
73
100
AcDbEntity
  8
ZONE-LABELS
  6
ByLayer
 62
    7
370
   -1
100
AcDbText
 10
-71.998
 20
-1336.328
 30
0
 40
36.287
  1
ENGINEERING + R+D
 50
0
 41
1
 51
0
  7
STANDARD
 71
    0
 72
    1
 11
-71.998
 21
-1336.328
 31
0
210
0
220
0
230
1
100
AcDbText
  0
HATCH
  5
74
100
AcDbEntity
  8
ZONES
  6
ByLayer
 62
    2
370
   -1
100
AcDbHatch
 10
0
 20
0
 30
0
210
0
220
0
230
1
  2
SOLID
 70
    1
 71
    0
 91
    1
 92
    0
 93
    1
 72
    2
 10
-1904.67
 20
-2224.536
 40
0
 50
360
 51
360
 73
    0
 97
    0
 75
    0
 76
    1
 98
    0
  0
LWPOLYLINE
  5
75
100
AcDbEntity
  8
ZONES
  6
DASHED
 62
    2
370
   -1
100
AcDbPolyline
 90
    4
 70
    1
 43
0
 10
-1904.67
 20
-1751.75
 10
1760.674
 20
-1751.75
 10
1760.674
 20
-2224.536
 10
-1904.67
 20
-2224.536
  0
TEXT
  5
76
100
AcDbEntity
  8
ZONE-LABELS
  6
ByLayer
 62
    7
370
   -1
100
AcDbText
 10
-71.998
 20
-1914.178
 30
0
 40
36.287
  1
UTILITY + SUPPORT
 50
0
 41
1
 51
0
  7
STANDARD
 71
    0
 72
    1
 11
-71.998
 21
-1914.178
 31
0
210
0
220
0
230
1
100
AcDbText
  0
HATCH
  5
77
100
AcDbEntity
  8
A-BLDG-PROD
  6
ByLayer
 62
    6
370
   -1
100
AcDbHatch
 10
0
 20
0
 30
0
210
0
220
0
230
1
  2
SOLID
 70
    1
 71
    0
 91
    1
 92
    0
 93
    1
 72
    2
 10
-1727.616
 20
1770.067
 40
0
 50
360
 51
360
 73
    0
 97
    0
 75
    0
 76
    1
 98
    0
  0
LWPOLYLINE
  5
78
100
AcDbEntity
  8
A-BLDG-PROD
  6
ByLayer
 62
    6
370
   -1
100
AcDbPolyline
 90
    4
 70
    1
 43
0
 10
-1727.616
 20
2080.887
 10
-982.121
 20
2080.887
 10
-982.121
 20
1770.067
 10
-1727.616
 20
1770.067
  0
TEXT
  5
79
100
AcDbEntity
  8
ANNOTATION
  6
ByLayer
 62
    7
370
   -1
100
AcDbText
 10
-1354.868
 20
1914.188
 30
0
 40
28.223
  1
Rail Terminal
 50
0
 41
1
 51
0
  7
STANDARD
 71
    0
 72
    1
 11
-1354.868
 21
1914.188
 31
0
210
0
220
0
230
1
100
AcDbText
  0
HATCH
  5
7A
100
AcDbEntity
  8
A-BLDG-OFFC
  6
ByLayer
 62
    8
370
   -1
100
AcDbHatch
 10
0
 20
0
 30
0
210
0
220
0
230
1
  2
SOLID
 70
    1
 71
    0
 91
    1
 92
    0
 93
    1
 72
    2
 10
-530.1660000000001
 20
1715.35
 40
0
 50
360
 51
360
 73
    0
 97
    0
 75
    0
 76
    1
 98
    0
  0
LWPOLYLINE
  5
7B
100
AcDbEntity
  8
A-BLDG-OFFC
  6
ByLayer
 62
    8
370
   -1
100
AcDbPolyline
 90
    4
 70
    1
 43
0
 10
-530.1660000000001
 20
2135.605
 10
294.537
 20
2135.605
 10
294.537
 20
1715.35
 10
-530.1660000000001
 20
1715.35
  0
TEXT
  5
7C
100
AcDbEntity
  8
ANNOTATION
  6
ByLayer
 62
    7
370
   -1
100
AcDbText
 10
-117.815
 20
1914.188
 30
0
 40
28.223
  1
Truck Gate Complex
 50
0
 41
1
 51
0
  7
STANDARD
 71
    0
 72
    1
 11
-117.815
 21
1914.188
 31
0
210
0
220
0
230
1
100
AcDbText
  0
HATCH
  5
7D
100
AcDbEntity
  8
A-BLDG
  6
ByLayer
 62
    4
370
   -1
100
AcDbHatch
 10
0
 20
0
 30
0
210
0
220
0
230
1
  2
SOLID
 70
    1
 71
    0
 91
    1
 92
    0
 93
    1
 72
    2
 10
712.606
 20
1770.067
 40
0
 50
360
 51
360
 73
    0
 97
    0
 75
    0
 76
    1
 98
    0
  0
LWPOLYLINE
  5
7E
100
AcDbEntity
  8
A-BLDG
  6
ByLayer
 62
    4
370
   -1
100
AcDbPolyline
 90
    4
 70
    1
 43
0
 10
712.606
 20
2080.887
 10
1525.872
 20
2080.887
 10
1525.872
 20
1770.067
 10
712.606
 20
1770.067
  0
TEXT
  5
7F
100
AcDbEntity
  8
ANNOTATION
  6
ByLayer
 62
    7
370
   -1
100
AcDbText
 10
1119.239
 20
1914.188
 30
0
 40
28.223
  1
Airport Logistics Hub
 50
0
 41
1
 51
0
  7
STANDARD
 71
    0
 72
    1
 11
1119.239
 21
1914.188
 31
0
210
0
220
0
230
1
100
AcDbText
  0
HATCH
  5
80
100
AcDbEntity
  8
A-BLDG-PROD
  6
ByLayer
 62
    5
370
   -1
100
AcDbHatch
 10
0
 20
0
 30
0
210
0
220
0
230
1
  2
SOLID
 70
    1
 71
    0
 91
    1
 92
    0
 93
    1
 72
    2
 10
-1749.809
 20
873.79
 40
0
 50
360
 51
360
 73
    0
 97
    0
 75
    0
 76
    1
 98
    0
  0
LWPOLYLINE
  5
81
100
AcDbEntity
  8
A-BLDG-PROD
  6
ByLayer
 62
    5
370
   -1
100
AcDbPolyline
 90
    4
 70
    1
 43
0
 10
-1749.809
 20
1506.273
 10
-410.126
 20
1506.273
 10
-410.126
 20
873.79
 10
-1749.809
 20
873.79
  0
TEXT
  5
82
100
AcDbEntity
  8
ANNOTATION
  6
ByLayer
 62
    7
370
   -1
100
AcDbText
 10
-1079.968
 20
1178.743
 30
0
 40
28.223
  1
Fuselage Manufacturing
 50
0
 41
1
 51
0
  7
STANDARD
 71
    0
 72
    1
 11
-1079.968
 21
1178.743
 31
0
210
0
220
0
230
1
100
AcDbText
  0
HATCH
  5
83
100
AcDbEntity
  8
A-BLDG-PROD
  6
ByLayer
 62
    4
370
   -1
100
AcDbHatch
 10
0
 20
0
 30
0
210
0
220
0
230
1
  2
SOLID
 70
    1
 71
    0
 91
    1
 92
    0
 93
    1
 72
    2
 10
-71.998
 20
822.309
 40
0
 50
360
 51
360
 73
    0
 97
    0
 75
    0
 76
    1
 98
    0
  0
LWPOLYLINE
  5
84
100
AcDbEntity
  8
A-BLDG-PROD
  6
ByLayer
 62
    4
370
   -1
100
AcDbPolyline
 90
    4
 70
    1
 43
0
 10
-71.998
 20
1557.755
 10
1669.041
 20
1557.755
 10
1669.041
 20
822.309
 10
-71.998
 20
822.309
  0
TEXT
  5
85
100
AcDbEntity
  8
ANNOTATION
  6
ByLayer
 62
    7
370
   -1
100
AcDbText
 10
798.522
 20
1178.743
 30
0
 40
28.223
  1
Composite Manufacturing
 50
0
 41
1
 51
0
  7
STANDARD
 71
    0
 72
    1
 11
798.522
 21
1178.743
 31
0
210
0
220
0
230
1
100
AcDbText
  0
HATCH
  5
86
100
AcDbEntity
  8
A-BLDG-PROD
  6
ByLayer
 62
    5
370
   -1
100
AcDbHatch
 10
0
 20
0
 30
0
210
0
220
0
230
1
  2
SOLID
 70
    1
 71
    0
 91
    1
 92
    0
 93
    1
 72
    2
 10
-1858.853
 20
507.118
 40
0
 50
360
 51
360
 73
    0
 97
    0
 75
    0
 76
    1
 98
    0
  0
LWPOLYLINE
  5
87
100
AcDbEntity
  8
A-BLDG-PROD
  6
ByLayer
 62
    5
370
   -1
100
AcDbPolyline
 90
    4
 70
    1
 43
0
 10
-1858.853
 20
769.777
 10
-942.5170000000001
 20
769.777
 10
-942.5170000000001
 20
507.118
 10
-1858.853
 20
507.118
  0
TEXT
  5
88
100
AcDbEntity
  8
ANNOTATION
  6
ByLayer
 62
    7
370
   -1
100
AcDbText
 10
-1400.685
 20
627.158
 30
0
 40
28.223
  1
Precision Machine Shop
 50
0
 41
1
 51
0
  7
STANDARD
 71
    0
 72
    1
 11
-1400.685
 21
627.158
 31
0
210
0
220
0
230
1
100
AcDbText
  0
HATCH
  5
89
100
AcDbEntity
  8
A-BLDG-UTIL
  6
ByLayer
 62
    5
370
   -1
100
AcDbHatch
 10
0
 20
0
 30
0
210
0
220
0
230
1
  2
SOLID
 70
    1
 71
    0
 91
    1
 92
    0
 93
    1
 72
    2
 10
-713.433
 20
507.118
 40
0
 50
360
 51
360
 73
    0
 97
    0
 75
    0
 76
    1
 98
    0
  0
LWPOLYLINE
  5
8A
100
AcDbEntity
  8
A-BLDG-UTIL
  6
ByLayer
 62
    5
370
   -1
100
AcDbPolyline
 90
    4
 70
    1
 43
0
 10
-713.433
 20
769.777
 10
19.636
 20
769.777
 10
19.636
 20
507.118
 10
-713.433
 20
507.118
  0
TEXT
  5
8B
100
AcDbEntity
  8
ANNOTATION
  6
ByLayer
 62
    7
370
   -1
100
AcDbText
 10
-346.899
 20
627.158
 30
0
 40
28.223
  1
NDT + Quality
 50
0
 41
1
 51
0
  7
STANDARD
 71
    0
 72
    1
 11
-346.899
 21
627.158
 31
0
210
0
220
0
230
1
100
AcDbText
  0
HATCH
  5
8C
100
AcDbEntity
  8
A-BLDG-PROD
  6
ByLayer
 62
    4
370
   -1
100
AcDbHatch
 10
0
 20
0
 30
0
210
0
220
0
230
1
  2
SOLID
 70
    1
 71
    0
 91
    1
 92
    0
 93
    1
 72
    2
 10
-1687.498
 20
22.25
 40
0
 50
360
 51
360
 73
    0
 97
    0
 75
    0
 76
    1
 98
    0
  0
LWPOLYLINE
  5
8D
100
AcDbEntity
  8
A-BLDG-PROD
  6
ByLayer
 62
    4
370
   -1
100
AcDbPolyline
 90
    4
 70
    1
 43
0
 10
-1687.498
 20
519.201
 10
1543.503
 20
519.201
 10
1543.503
 20
22.25
 10
-1687.498
 20
22.25
  0
LWPOLYLINE
  5
8E
100
AcDbEntity
  8
A-BLDG-PROD
  6
ByLayer
 62
    7
370
   -1
100
AcDbPolyline
 90
    4
 70
    1
 43
0
 10
-1687.498
 20
519.201
 10
1543.503
 20
519.201
 10
1543.503
 20
22.25
 10
-1687.498
 20
22.25
  0
TEXT
  5
8F
100
AcDbEntity
  8
ANNOTATION
  6
ByLayer
 62
    7
370
   -1
100
AcDbText
 10
-71.998
 20
259.436
 30
0
 40
28.223
  1
MAJOR ASSEMBLY BUILDING
 50
0
 41
1
 51
0
  7
STANDARD
 71
    0
 72
    1
 11
-71.998
 21
259.436
 31
0
210
0
220
0
230
1
100
AcDbText
  0
HATCH
  5
90
100
AcDbEntity
  8
A-BLDG-PROD
  6
ByLayer
 62
    6
370
   -1
100
AcDbHatch
 10
0
 20
0
 30
0
210
0
220
0
230
1
  2
SOLID
 70
    1
 71
    0
 91
    1
 92
    0
 93
    1
 72
    2
 10
-1858.853
 20
-543.518
 40
0
 50
360
 51
360
 73
    0
 97
    0
 75
    0
 76
    1
 98
    0
  0
LWPOLYLINE
  5
91
100
AcDbEntity
  8
A-BLDG-PROD
  6
ByLayer
 62
    6
370
   -1
100
AcDbPolyline
 90
    4
 70
    1
 43
0
 10
-1858.853
 20
-70.732
 10
-850.884
 20
-70.732
 10
-850.884
 20
-543.518
 10
-1858.853
 20
-543.518
  0
TEXT
  5
92
100
AcDbEntity
  8
ANNOTATION
  6
ByLayer
 62
    7
370
   -1
100
AcDbText
 10
-1354.868
 20
-318.414
 30
0
 40
28.223
  1
Paint Hangar
 50
0
 41
1
 51
0
  7
STANDARD
 71
    0
 72
    1
 11
-1354.868
 21
-318.414
 31
0
210
0
220
0
230
1
100
AcDbText
  0
HATCH
  5
93
100
AcDbEntity
  8
A-BLDG-PROD
  6
ByLayer
 62
    6
370
   -1
100
AcDbHatch
 10
0
 20
0
 30
0
210
0
220
0
230
1
  2
SOLID
 70
    1
 71
    0
 91
    1
 92
    0
 93
    1
 72
    2
 10
-621.8
 20
-543.518
 40
0
 50
360
 51
360
 73
    0
 97
    0
 75
    0
 76
    1
 98
    0
  0
LWPOLYLINE
  5
94
100
AcDbEntity
  8
A-BLDG-PROD
  6
ByLayer
 62
    6
370
   -1
100
AcDbPolyline
 90
    4
 70
    1
 43
0
 10
-621.8
 20
-70.732
 10
569.437
 20
-70.732
 10
569.437
 20
-543.518
 10
-621.8
 20
-543.518
  0
TEXT
  5
95
100
AcDbEntity
  8
ANNOTATION
  6
ByLayer
 62
    7
370
   -1
100
AcDbText
 10
-26.181
 20
-318.414
 30
0
 40
28.223
  1
Flight Test Hangar
 50
0
 41
1
 51
0
  7
STANDARD
 71
    0
 72
    1
 11
-26.181
 21
-318.414
 31
0
210
0
220
0
230
1
100
AcDbText
  0
HATCH
  5
96
100
AcDbEntity
  8
A-BLDG-OFFC
  6
ByLayer
 62
    6
370
   -1
100
AcDbHatch
 10
0
 20
0
 30
0
210
0
220
0
230
1
  2
SOLID
 70
    1
 71
    0
 91
    1
 92
    0
 93
    1
 72
    2
 10
752.705
 20
-543.518
 40
0
 50
360
 51
360
 73
    0
 97
    0
 75
    0
 76
    1
 98
    0
  0
LWPOLYLINE
  5
97
100
AcDbEntity
  8
A-BLDG-OFFC
  6
ByLayer
 62
    6
370
   -1
100
AcDbPolyline
 90
    4
 70
    1
 43
0
 10
752.705
 20
-70.732
 10
1669.041
 20
-70.732
 10
1669.041
 20
-543.518
 10
752.705
 20
-543.518
  0
TEXT
  5
98
100
AcDbEntity
  8
ANNOTATION
  6
ByLayer
 62
    7
370
   -1
100
AcDbText
 10
1210.873
 20
-318.414
 30
0
 40
28.223
  1
Delivery Center
 50
0
 41
1
 51
0
  7
STANDARD
 71
    0
 72
    1
 11
1210.873
 21
-318.414
 31
0
210
0
220
0
230
1
100
AcDbText
  0
HATCH
  5
99
100
AcDbEntity
  8
A-BLDG
  6
ByLayer
 62
    8
370
   -1
100
AcDbHatch
 10
0
 20
0
 30
0
210
0
220
0
230
1
  2
SOLID
 70
    1
 71
    0
 91
    1
 92
    0
 93
    1
 72
    2
 10
-1687.498
 20
-742.614
 40
0
 50
360
 51
360
 73
    0
 97
    0
 75
    0
 76
    1
 98
    0
  0
LWPOLYLINE
  5
9A
100
AcDbEntity
  8
A-BLDG
  6
ByLayer
 62
    8
370
   -1
100
AcDbPolyline
 90
    4
 70
    1
 43
0
 10
-1687.498
 20
-607.082
 10
1543.503
 20
-607.082
 10
1543.503
 20
-742.614
 10
-1687.498
 20
-742.614
  0
TEXT
  5
9B
100
AcDbEntity
  8
ANNOTATION
  6
ByLayer
 62
    7
370
   -1
100
AcDbText
 10
-71.998
 20
-686.1369999999999
 30
0
 40
28.223
  1
Aircraft Apron +
 50
0
 41
1
 51
0
  7
STANDARD
 71
    0
 72
    1
 11
-71.998
 21
-686.1369999999999
 31
0
210
0
220
0
230
1
100
AcDbText
  0
HATCH
  5
9C
100
AcDbEntity
  8
A-BLDG-UTIL
  6
ByLayer
 62
    5
370
   -1
100
AcDbHatch
 10
0
 20
0
 30
0
210
0
220
0
230
1
  2
SOLID
 70
    1
 71
    0
 91
    1
 92
    0
 93
    1
 72
    2
 10
523.621
 20
-1200.166
 40
0
 50
360
 51
360
 73
    0
 97
    0
 75
    0
 76
    1
 98
    0
  0
LWPOLYLINE
  5
9D
100
AcDbEntity
  8
A-BLDG-UTIL
  6
ByLayer
 62
    5
370
   -1
100
AcDbPolyline
 90
    6
 70
    1
 43
0
 10
761.692
 20
-1318.363
 10
761.692
 20
-1554.756
 10
523.621
 20
-1672.952
 10
285.55
 20
-1554.756
 10
285.55
 20
-1318.363
 10
523.621
 20
-1200.166
  0
TEXT
  5
9E
100
AcDbEntity
  8
ANNOTATION
  6
ByLayer
 62
    7
370
   -1
100
AcDbText
 10
523.621
 20
-1447.848
 30
0
 40
28.223
  1
AI Digital Twin
 50
0
 41
1
 51
0
  7
STANDARD
 71
    0
 72
    1
 11
523.621
 21
-1447.848
 31
0
210
0
220
0
230
1
100
AcDbText
  0
HATCH
  5
9F
100
AcDbEntity
  8
A-BLDG-OFFC
  6
ByLayer
 62
    5
370
   -1
100
AcDbHatch
 10
0
 20
0
 30
0
210
0
220
0
230
1
  2
SOLID
 70
    1
 71
    0
 91
    1
 92
    0
 93
    1
 72
    2
 10
1196.789
 20
-1676.514
 40
0
 50
360
 51
360
 73
    0
 97
    0
 75
    0
 76
    1
 98
    0
  0
LWPOLYLINE
  5
A0
100
AcDbEntity
  8
A-BLDG-OFFC
  6
ByLayer
 62
    5
370
   -1
100
AcDbPolyline
 90
    4
 70
    1
 43
0
 10
1196.789
 20
-1249.136
 10
1637.308
 20
-1249.136
 10
1637.308
 20
-1676.514
 10
1196.789
 20
-1676.514
  0
TEXT
  5
A1
100
AcDbEntity
  8
ANNOTATION
  6
ByLayer
 62
    7
370
   -1
100
AcDbText
 10
1417.048
 20
-1474.114
 30
0
 40
28.223
  1
R+D Laboratories
 50
0
 41
1
 51
0
  7
STANDARD
 71
    0
 72
    1
 11
1417.048
 21
-1474.114
 31
0
210
0
220
0
230
1
100
AcDbText
  0
HATCH
  5
A2
100
AcDbEntity
  8
A-BLDG-UTIL
  6
ByLayer
 62
    2
370
   -1
100
AcDbHatch
 10
0
 20
0
 30
0
210
0
220
0
230
1
  2
SOLID
 70
    1
 71
    0
 91
    1
 92
    0
 93
    1
 72
    2
 10
-1767.142
 20
-2105.089
 40
0
 50
360
 51
360
 73
    0
 97
    0
 75
    0
 76
    1
 98
    0
  0
LWPOLYLINE
  5
A3
100
AcDbEntity
  8
A-BLDG-UTIL
  6
ByLayer
 62
    2
370
   -1
100
AcDbPolyline
 90
    4
 70
    1
 43
0
 10
-1767.142
 20
-1871.197
 10
-1446.58
 20
-1871.197
 10
-1446.58
 20
-2105.089
 10
-1767.142
 20
-2105.089
  0
TEXT
  5
A4
100
AcDbEntity
  8
ANNOTATION
  6
ByLayer
 62
    7
370
   -1
100
AcDbText
 10
-1606.861
 20
-1999.432
 30
0
 40
28.223
  1
PSE 115kV Substation
 50
0
 41
1
 51
0
  7
STANDARD
 71
    0
 72
    1
 11
-1606.861
 21
-1999.432
 31
0
210
0
220
0
230
1
100
AcDbText
  0
HATCH
  5
A5
100
AcDbEntity
  8
A-BLDG-UTIL
  6
ByLayer
 62
    2
370
   -1
100
AcDbHatch
 10
0
 20
0
 30
0
210
0
220
0
230
1
  2
SOLID
 70
    1
 71
    0
 91
    1
 92
    0
 93
    1
 72
    2
 10
-1217.418
 20
-2172.005
 40
0
 50
360
 51
360
 73
    0
 97
    0
 75
    0
 76
    1
 98
    0
  0
LWPOLYLINE
  5
A6
100
AcDbEntity
  8
A-BLDG-UTIL
  6
ByLayer
 62
    2
370
   -1
100
AcDbPolyline
 90
    4
 70
    1
 43
0
 10
-1217.418
 20
-1804.282
 10
-667.616
 20
-1804.282
 10
-667.616
 20
-2172.005
 10
-1217.418
 20
-2172.005
  0
TEXT
  5
A7
100
AcDbEntity
  8
ANNOTATION
  6
ByLayer
 62
    7
370
   -1
100
AcDbText
 10
-942.5170000000001
 20
-1999.432
 30
0
 40
28.223
  1
Campus Data Center
 50
0
 41
1
 51
0
  7
STANDARD
 71
    0
 72
    1
 11
-942.5170000000001
 21
-1999.432
 31
0
210
0
220
0
230
1
100
AcDbText
  0
HATCH
  5
A8
100
AcDbEntity
  8
A-BLDG-UTIL
  6
ByLayer
 62
    2
370
   -1
100
AcDbHatch
 10
0
 20
0
 30
0
210
0
220
0
230
1
  2
SOLID
 70
    1
 71
    0
 91
    1
 92
    0
 93
    1
 72
    2
 10
-484.349
 20
-2172.005
 40
0
 50
360
 51
360
 73
    0
 97
    0
 75
    0
 76
    1
 98
    0
  0
LWPOLYLINE
  5
A9
100
AcDbEntity
  8
A-BLDG-UTIL
  6
ByLayer
 62
    2
370
   -1
100
AcDbPolyline
 90
    4
 70
    1
 43
0
 10
-484.349
 20
-1804.282
 10
-117.815
 20
-1804.282
 10
-117.815
 20
-2172.005
 10
-484.349
 20
-2172.005
  0
TEXT
  5
AA
100
AcDbEntity
  8
ANNOTATION
  6
ByLayer
 62
    7
370
   -1
100
AcDbText
 10
-301.082
 20
-1999.432
 30
0
 40
28.223
  1
ARFF Fire Station
 50
0
 41
1
 51
0
  7
STANDARD
 71
    0
 72
    1
 11
-301.082
 21
-1999.432
 31
0
210
0
220
0
230
1
100
AcDbText
  0
HATCH
  5
AB
100
AcDbEntity
  8
A-BLDG-OFFC
  6
ByLayer
 62
    3
370
   -1
100
AcDbHatch
 10
0
 20
0
 30
0
210
0
220
0
230
1
  2
SOLID
 70
    1
 71
    0
 91
    1
 92
    0
 93
    1
 72
    2
 10
65.453
 20
-2172.005
 40
0
 50
360
 51
360
 73
    0
 97
    0
 75
    0
 76
    1
 98
    0
  0
LWPOLYLINE
  5
AC
100
AcDbEntity
  8
A-BLDG-OFFC
  6
ByLayer
 62
    3
370
   -1
100
AcDbPolyline
 90
    4
 70
    1
 43
0
 10
65.453
 20
-1804.282
 10
661.071
 20
-1804.282
 10
661.071
 20
-2172.005
 10
65.453
 20
-2172.005
  0
TEXT
  5
AD
100
AcDbEntity
  8
ANNOTATION
  6
ByLayer
 62
    7
370
   -1
100
AcDbText
 10
363.262
 20
-1999.432
 30
0
 40
28.223
  1
Corporate HQ
 50
0
 41
1
 51
0
  7
STANDARD
 71
    0
 72
    1
 11
363.262
 21
-1999.432
 31
0
210
0
220
0
230
1
100
AcDbText
  0
HATCH
  5
AE
100
AcDbEntity
  8
A-BLDG-OFFC
  6
ByLayer
 62
    3
370
   -1
100
AcDbHatch
 10
0
 20
0
 30
0
210
0
220
0
230
1
  2
SOLID
 70
    1
 71
    0
 91
    1
 92
    0
 93
    1
 72
    2
 10
844.338
 20
-2172.005
 40
0
 50
360
 51
360
 73
    0
 97
    0
 75
    0
 76
    1
 98
    0
  0
LWPOLYLINE
  5
AF
100
AcDbEntity
  8
A-BLDG-OFFC
  6
ByLayer
 62
    3
370
   -1
100
AcDbPolyline
 90
    4
 70
    1
 43
0
 10
844.338
 20
-1804.282
 10
1348.323
 20
-1804.282
 10
1348.323
 20
-2172.005
 10
844.338
 20
-2172.005
  0
TEXT
  5
B0
100
AcDbEntity
  8
ANNOTATION
  6
ByLayer
 62
    7
370
   -1
100
AcDbText
 10
1096.331
 20
-1999.432
 30
0
 40
28.223
  1
Training Academy
 50
0
 41
1
 51
0
  7
STANDARD
 71
    0
 72
    1
 11
1096.331
 21
-1999.432
 31
0
210
0
220
0
230
1
100
AcDbText
  0
HATCH
  5
B1
100
AcDbEntity
  8
A-BLDG-OFFC
  6
ByLayer
 62
    3
370
   -1
100
AcDbHatch
 10
0
 20
0
 30
0
210
0
220
0
230
1
  2
SOLID
 70
    1
 71
    0
 91
    1
 92
    0
 93
    1
 72
    2
 10
1565.101
 20
-2004.605
 40
0
 50
360
 51
360
 73
    0
 97
    0
 75
    0
 76
    1
 98
    0
  0
LWPOLYLINE
  5
B2
100
AcDbEntity
  8
A-BLDG-OFFC
  6
ByLayer
 62
    3
370
   -1
100
AcDbPolyline
 90
    4
 70
    1
 43
0
 10
1565.101
 20
-1971.682
 10
1589.713
 20
-1971.682
 10
1589.713
 20
-2004.605
 10
1565.101
 20
-2004.605
  0
TEXT
  5
B3
100
AcDbEntity
  8
ANNOTATION
  6
ByLayer
 62
    7
370
   -1
100
AcDbText
 10
1577.407
 20
-1999.432
 30
0
 40
28.223
  1
Employee Services Hub
 50
0
 41
1
 51
0
  7
STANDARD
 71
    0
 72
    1
 11
1577.407
 21
-1999.432
 31
0
210
0
220
0
230
1
100
AcDbText
  0
HATCH
  5
B4
100
AcDbEntity
  8
A-BLDG-OFFC
  6
ByLayer
 62
    4
370
   -1
100
AcDbHatch
 10
0
 20
0
 30
0
210
0
220
0
230
1
  2
SOLID
 70
    1
 71
    0
 91
    1
 92
    0
 93
    1
 72
    2
 10
-1858.853
 20
-1751.75
 40
0
 50
360
 51
360
 73
    0
 97
    0
 75
    0
 76
    1
 98
    0
  0
LWPOLYLINE
  5
B5
100
AcDbEntity
  8
A-BLDG-OFFC
  6
ByLayer
 62
    4
370
   -1
100
AcDbPolyline
 90
    4
 70
    1
 43
0
 10
-1858.853
 20
-1173.9
 10
-1034.151
 20
-1173.9
 10
-1034.151
 20
-1751.75
 10
-1858.853
 20
-1751.75
  0
TEXT
  5
B6
100
AcDbEntity
  8
ANNOTATION
  6
ByLayer
 62
    7
370
   -1
100
AcDbText
 10
-1446.502
 20
-1474.114
 30
0
 40
28.223
  1
Engineering Center West
 50
0
 41
1
 51
0
  7
STANDARD
 71
    0
 72
    1
 11
-1446.502
 21
-1474.114
 31
0
210
0
220
0
230
1
100
AcDbText
  0
HATCH
  5
B7
100
AcDbEntity
  8
A-BLDG-OFFC
  6
ByLayer
 62
    4
370
   -1
100
AcDbHatch
 10
0
 20
0
 30
0
210
0
220
0
230
1
  2
SOLID
 70
    1
 71
    0
 91
    1
 92
    0
 93
    1
 72
    2
 10
-896.7
 20
-1751.75
 40
0
 50
360
 51
360
 73
    0
 97
    0
 75
    0
 76
    1
 98
    0
  0
LWPOLYLINE
  5
B8
100
AcDbEntity
  8
A-BLDG-OFFC
  6
ByLayer
 62
    4
370
   -1
100
AcDbPolyline
 90
    4
 70
    1
 43
0
 10
-896.7
 20
-1173.9
 10
-438.532
 20
-1173.9
 10
-438.532
 20
-1751.75
 10
-896.7
 20
-1751.75
  0
TEXT
  5
B9
100
AcDbEntity
  8
ANNOTATION
  6
ByLayer
 62
    7
370
   -1
100
AcDbText
 10
-667.616
 20
-1474.114
 30
0
 40
28.223
  1
Engineering Center East
 50
0
 41
1
 51
0
  7
STANDARD
 71
    0
 72
    1
 11
-667.616
 21
-1474.114
 31
0
210
0
220
0
230
1
100
AcDbText
  0
LWPOLYLINE
  5
BA
100
AcDbEntity
  8
ROADS-MAIN
  6
ByLayer
 62
    7
370
   -1
100
AcDbPolyline
 90
    2
 70
    0
 43
0
 10
-71.998
 20
2188.136
 10
-71.998
 20
-2224.536
  0
LWPOLYLINE
  5
BB
100
AcDbEntity
  8
ROADS-MAIN
  6
ByLayer
 62
    7
370
   -1
100
AcDbPolyline
 90
    2
 70
    0
 43
0
 10
-1904.67
 20
1662.818
 10
1760.674
 20
1662.818
  0
LWPOLYLINE
  5
BC
100
AcDbEntity
  8
ROADS-MAIN
  6
ByLayer
 62
    7
370
   -1
100
AcDbPolyline
 90
    2
 70
    0
 43
0
 10
-1904.67
 20
664.7140000000001
 10
1760.674
 20
664.7140000000001
  0
LWPOLYLINE
  5
BD
100
AcDbEntity
  8
ROADS-TRUCK
  6
ByLayer
 62
    2
370
   -1
100
AcDbPolyline
 90
    2
 70
    0
 43
0
 10
-1904.67
 20
-18.2
 10
1760.674
 20
-18.2
  0
LWPOLYLINE
  5
BE
100
AcDbEntity
  8
ROADS-MAIN
  6
ByLayer
 62
    7
370
   -1
100
AcDbPolyline
 90
    2
 70
    0
 43
0
 10
-1904.67
 20
-1068.836
 10
1760.674
 20
-1068.836
  0
LWPOLYLINE
  5
BF
100
AcDbEntity
  8
ROADS-MAIN
  6
ByLayer
 62
    7
370
   -1
100
AcDbPolyline
 90
    2
 70
    0
 43
0
 10
-1904.67
 20
-1751.75
 10
1760.674
 20
-1751.75
  0
LWPOLYLINE
  5
C0
100
AcDbEntity
  8
ROADS-TRUCK
  6
ByLayer
 62
    2
370
   -1
100
AcDbPolyline
 90
    2
 70
    0
 43
0
 10
-1904.67
 20
1662.818
 10
-1904.67
 20
-18.2
  0
LWPOLYLINE
  5
C1
100
AcDbEntity
  8
ROADS-TRUCK
  6
ByLayer
 62
    2
370
   -1
100
AcDbPolyline
 90
    2
 70
    0
 43
0
 10
1760.674
 20
1662.818
 10
1760.674
 20
-18.2
  0
LWPOLYLINE
  5
C2
100
AcDbEntity
  8
ROADS-RAIL
  6
ByLayer
 62
    6
370
   -1
100
AcDbPolyline
 90
    2
 70
    0
 43
0
 10
-1858.853
 20
1978.009
 10
-1858.853
 20
664.7140000000001
  0
LWPOLYLINE
  5
C3
100
AcDbEntity
  8
ROADS-EMERG
  6
ByLayer
 62
    1
370
   -1
100
AcDbPolyline
 90
    2
 70
    0
 43
0
 10
1714.858
 20
2188.136
 10
1714.858
 20
-2224.536
  0
CIRCLE
  5
C4
100
AcDbEntity
  8
GATES
  6
ByLayer
 62
    3
370
   -1
100
AcDbCircle
 10
-1446.502
 20
2188.136
 40
36.287
  0
CIRCLE
  5
C5
100
AcDbEntity
  8
GATES
  6
ByLayer
 62
    3
370
   -1
100
AcDbCircle
 10
-1446.502
 20
2188.136
 40
19.958
  0
TEXT
  5
C6
100
AcDbEntity
  8
GATES
  6
ByLayer
 62
    3
370
   -1
100
AcDbText
 10
-1446.502
 20
2246.195
 30
0
 40
26.207
  1
Rail Gate
 50
0
 41
1
 51
0
  7
STANDARD
 71
    0
 72
    1
 11
-1446.502
 21
2246.195
 31
0
210
0
220
0
230
1
100
AcDbText
  0
CIRCLE
  5
C7
100
AcDbEntity
  8
GATES
  6
ByLayer
 62
    3
370
   -1
100
AcDbCircle
 10
-71.998
 20
2188.136
 40
36.287
  0
CIRCLE
  5
C8
100
AcDbEntity
  8
GATES
  6
ByLayer
 62
    3
370
   -1
100
AcDbCircle
 10
-71.998
 20
2188.136
 40
19.958
  0
TEXT
  5
C9
100
AcDbEntity
  8
GATES
  6
ByLayer
 62
    3
370
   -1
100
AcDbText
 10
-71.998
 20
2246.195
 30
0
 40
26.207
  1
Main Truck Gate
 50
0
 41
1
 51
0
  7
STANDARD
 71
    0
 72
    1
 11
-71.998
 21
2246.195
 31
0
210
0
220
0
230
1
100
AcDbText
  0
CIRCLE
  5
CA
100
AcDbEntity
  8
GATES
  6
ByLayer
 62
    3
370
   -1
100
AcDbCircle
 10
1210.873
 20
2188.136
 40
36.287
  0
CIRCLE
  5
CB
100
AcDbEntity
  8
GATES
  6
ByLayer
 62
    3
370
   -1
100
AcDbCircle
 10
1210.873
 20
2188.136
 40
19.958
  0
TEXT
  5
CC
100
AcDbEntity
  8
GATES
  6
ByLayer
 62
    3
370
   -1
100
AcDbText
 10
1210.873
 20
2246.195
 30
0
 40
26.207
  1
Airport Logistics
 50
0
 41
1
 51
0
  7
STANDARD
 71
    0
 72
    1
 11
1210.873
 21
2246.195
 31
0
210
0
220
0
230
1
100
AcDbText
  0
CIRCLE
  5
CD
100
AcDbEntity
  8
GATES
  6
ByLayer
 62
    3
370
   -1
100
AcDbCircle
 10
-71.998
 20
-2224.536
 40
36.287
  0
CIRCLE
  5
CE
100
AcDbEntity
  8
GATES
  6
ByLayer
 62
    3
370
   -1
100
AcDbCircle
 10
-71.998
 20
-2224.536
 40
19.958
  0
TEXT
  5
CF
100
AcDbEntity
  8
GATES
  6
ByLayer
 62
    3
370
   -1
100
AcDbText
 10
-71.998
 20
-2166.477
 30
0
 40
26.207
  1
Employee Gate South
 50
0
 41
1
 51
0
  7
STANDARD
 71
    0
 72
    1
 11
-71.998
 21
-2166.477
 31
0
210
0
220
0
230
1
100
AcDbText
  0
LWPOLYLINE
  5
D0
100
AcDbEntity
  8
E-UTIL-POWR
  6
ByLayer
 62
    5
370
   -1
100
AcDbPolyline
 90
    2
 70
    0
 43
0
 10
-1996.304
 20
2188.136
 10
1852.308
 20
2188.136
  0
LWPOLYLINE
  5
D1
100
AcDbEntity
  8
T-RAIL
  6
ByLayer
 62
    5
370
   -1
100
AcDbPolyline
 90
    2
 70
    0
 43
0
 10
-1996.304
 20
2188.136
 10
1852.308
 20
2188.136
  0
LWPOLYLINE
  5
D2
100
AcDbEntity
  8
Z-ZONE-HANGAR
  6
ByLayer
 62
    5
370
   -1
100
AcDbPolyline
 90
    2
 70
    0
 43
0
 10
-1996.304
 20
2188.136
 10
1852.308
 20
2188.136
  0
LWPOLYLINE
  5
D3
100
AcDbEntity
  8
C-ROAD
  6
ByLayer
 62
    5
370
   -1
100
AcDbPolyline
 90
    2
 70
    0
 43
0
 10
-1996.304
 20
2188.136
 10
1852.308
 20
2188.136
  0
LWPOLYLINE
  5
D4
100
AcDbEntity
  8
NORTH-ARROW
  6
ByLayer
 62
    7
370
   -1
100
AcDbPolyline
 90
    2
 70
    0
 43
0
 10
2185.854
 20
2293.2
 10
2185.854
 20
2709.252
  0
LWPOLYLINE
  5
D5
100
AcDbEntity
  8
NORTH-ARROW
  6
ByLayer
 62
    7
370
   -1
100
AcDbPolyline
 90
    4
 70
    1
 43
0
 10
2185.854
 20
2709.252
 10
2102.644
 20
2522.029
 10
2185.854
 20
2584.436
 10
2269.065
 20
2522.029
  0
TEXT
  5
D6
100
AcDbEntity
  8
NORTH-ARROW
  6
ByLayer
 62
    7
370
   -1
100
AcDbText
 10
2185.854
 20
2750.857
 30
0
 40
208.026
  1
N
 50
0
 41
1
 51
0
  7
STANDARD
 71
    0
 72
    1
 11
2185.854
 21
2750.857
 31
0
210
0
220
0
230
1
100
AcDbText
  0
LWPOLYLINE
  5
D7
100
AcDbEntity
  8
TITLE-BLOCK
  6
ByLayer
 62
    7
370
   -1
100
AcDbPolyline
 90
    4
 70
    1
 43
0
 10
-2571.763
 20
-3103.721
 10
2427.767
 20
-3103.721
 10
2427.767
 20
-2474.748
 10
-2571.763
 20
-2474.748
  0
LWPOLYLINE
  5
D8
100
AcDbEntity
  8
TITLE-BLOCK
  6
ByLayer
 62
    8
370
   -1
100
AcDbPolyline
 90
    2
 70
    0
 43
0
 10
-2571.763
 20
-2692.469
 10
2427.767
 20
-2692.469
  0
LWPOLYLINE
  5
D9
100
AcDbEntity
  8
TITLE-BLOCK
  6
ByLayer
 62
    8
370
   -1
100
AcDbPolyline
 90
    2
 70
    0
 43
0
 10
427.955
 20
-3103.721
 10
427.955
 20
-2474.748
  0
TEXT
  5
DA
100
AcDbEntity
  8
TITLE-BLOCK
  6
ByLayer
 62
    7
370
   -1
100
AcDbText
 10
-2521.768
 20
-2595.704
 30
0
 40
89.992
  1
BELLINGHAM AEROSPACE MANUFACTURING HUB
 50
0
 41
1
 51
0
  7
STANDARD
 71
    0
210
0
220
0
230
1
100
AcDbText
  0
TEXT
  5
DB
100
AcDbEntity
  8
TITLE-BLOCK
  6
ByLayer
 62
    8
370
   -1
100
AcDbText
 10
-2521.768
 20
-2789.234
 30
0
 40
54.995
  1
380 ac - PSE 115kV - BNSF Rail - KBLI Airport Apron - I-5 / SR-539
 50
0
 41
1
 51
0
  7
STANDARD
 71
    0
210
0
220
0
230
1
100
AcDbText
  0
TEXT
  5
DC
100
AcDbEntity
  8
TITLE-BLOCK
  6
ByLayer
 62
    8
370
   -1
100
AcDbText
 10
-2521.768
 20
-2919.867
 30
0
 40
39.996
  1
AREA: 380 ac   POWER: PSE 115kV   WORKERS: 3,200   CAPEX: $462M   READINESS: 88%
 50
0
 41
1
 51
0
  7
STANDARD
 71
    0
210
0
220
0
230
1
100
AcDbText
  0
TEXT
  5
DD
100
AcDbEntity
  8
TITLE-BLOCK
  6
ByLayer
 62
    7
370
   -1
100
AcDbText
 10
527.946
 20
-2595.704
 30
0
 40
54.995
  1
BLUEPRINT INTELLIGENCE
 50
0
 41
1
 51
0
  7
STANDARD
 71
    0
210
0
220
0
230
1
100
AcDbText
  0
TEXT
  5
DE
100
AcDbEntity
  8
TITLE-BLOCK
  6
ByLayer
 62
    8
370
   -1
100
AcDbText
 10
527.946
 20
-2789.234
 30
0
 40
39.996
  1
Astrikos AI Platform
 50
0
 41
1
 51
0
  7
STANDARD
 71
    0
210
0
220
0
230
1
100
AcDbText
  0
TEXT
  5
DF
100
AcDbEntity
  8
TITLE-BLOCK
  6
ByLayer
 62
    8
370
   -1
100
AcDbText
 10
527.946
 20
-2919.867
 30
0
 40
39.996
  1
Export: 2026-06-11   Units: Feet   CRS: WGS84
 50
0
 41
1
 51
0
  7
STANDARD
 71
    0
210
0
220
0
230
1
100
AcDbText
  0
LWPOLYLINE
  5
E0
100
AcDbEntity
  8
TITLE-BLOCK
  6
ByLayer
 62
    7
370
   -1
100
AcDbPolyline
 90
    2
 70
    0
 43
0
 10
-2521.768
 20
-3045.662
 10
-1513.798
 20
-3045.662
  0
LWPOLYLINE
  5
E1
100
AcDbEntity
  8
TITLE-BLOCK
  6
ByLayer
 62
    7
370
   -1
100
AcDbPolyline
 90
    2
 70
    0
 43
0
 10
-2521.768
 20
-3065.821
 10
-2521.768
 20
-3025.502
  0
LWPOLYLINE
  5
E2
100
AcDbEntity
  8
TITLE-BLOCK
  6
ByLayer
 62
    7
370
   -1
100
AcDbPolyline
 90
    2
 70
    0
 43
0
 10
-2017.783
 20
-3065.821
 10
-2017.783
 20
-3025.502
  0
LWPOLYLINE
  5
E3
100
AcDbEntity
  8
TITLE-BLOCK
  6
ByLayer
 62
    7
370
   -1
100
AcDbPolyline
 90
    2
 70
    0
 43
0
 10
-1513.798
 20
-3065.821
 10
-1513.798
 20
-3025.502
  0
LWPOLYLINE
  5
E4
100
AcDbEntity
  8
TITLE-BLOCK
  6
ByLayer
 62
  254
370
   -1
100
AcDbPolyline
 90
    4
 70
    1
 43
0
 10
-2521.768
 20
-3065.821
 10
-2017.783
 20
-3065.821
 10
-2017.783
 20
-3025.502
 10
-2521.768
 20
-3025.502
  0
TEXT
  5
E5
100
AcDbEntity
  8
TITLE-BLOCK
  6
ByLayer
 62
    7
370
   -1
100
AcDbText
 10
-2521.768
 20
-3005.343
 30
0
 40
35.279
  1
0
 50
0
 41
1
 51
0
  7
STANDARD
 71
    0
 72
    1
 11
-2521.768
 21
-3005.343
 31
0
210
0
220
0
230
1
100
AcDbText
  0
TEXT
  5
E6
100
AcDbEntity
  8
TITLE-BLOCK
  6
ByLayer
 62
    7
370
   -1
100
AcDbText
 10
-2017.783
 20
-3005.343
 30
0
 40
35.279
  1
504 ft
 50
0
 41
1
 51
0
  7
STANDARD
 71
    0
 72
    1
 11
-2017.783
 21
-3005.343
 31
0
210
0
220
0
230
1
100
AcDbText
  0
TEXT
  5
E7
100
AcDbEntity
  8
TITLE-BLOCK
  6
ByLayer
 62
    7
370
   -1
100
AcDbText
 10
-1513.798
 20
-3005.343
 30
0
 40
35.279
  1
1008 ft
 50
0
 41
1
 51
0
  7
STANDARD
 71
    0
 72
    1
 11
-1513.798
 21
-3005.343
 31
0
210
0
220
0
230
1
100
AcDbText
  0
ENDSEC
  0
SECTION
  2
OBJECTS
  0
DICTIONARY
  5
C
330
0
100
AcDbDictionary
281
    1
  3
ACAD_GROUP
350
D
  0
DICTIONARY
  5
D
330
C
100
AcDbDictionary
281
    1
  0
PLOTSETTINGS
  5
E8
100
AcDbPlotSettings
  6
1x1
 40
0
 41
0
 42
0
 43
0
  0
ENDSEC
  0
EOF
