  0
SECTION
  2
HEADER
  9
$ACADVER
  1
AC1015
  9
$INSBASE
 10
0.0
 20
0.0
 30
0.0
  9
$EXTMIN
 10
-2381.2
 20
-2944.6
 30
0.0
  9
$EXTMAX
 10
2105.7
 20
2171.2
 30
0.0
  9
$LUNITS
 70
2
  9
$LUPREC
 70
2
  9
$ANGBASE
 50
0.0
  9
$MEASUREMENT
 70
1
  0
ENDSEC
  0
SECTION
  2
TABLES
  0
TABLE
  2
LTYPE
 70
5
  0
LTYPE
  2
CONTINUOUS
 70
0
  3
Solid
 72
65
 73
0
 40
0.0
  0
LTYPE
  2
DASHED
 70
0
  3
Dashed
 72
65
 73
2
 40
0.75
 49
0.5
 49
-0.25
  0
LTYPE
  2
CENTER
 70
0
  3
Center
 72
65
 73
4
 40
2.0
 49
1.25
 49
-0.25
 49
0.25
 49
-0.25
  0
LTYPE
  2
DOT
 70
0
  3
Dot
 72
65
 73
2
 40
0.5
 49
0.0
 49
-0.5
  0
ENDTAB
  0
TABLE
  2
LAYER
 70
21
  0
LAYER
  2
BOUNDARY
 70
0
 62
3
  6
CONTINUOUS
 370
50
  0
LAYER
  2
ZONES
 70
0
 62
9
  6
CONTINUOUS
 370
18
  0
LAYER
  2
ZONE-LABELS
 70
0
 62
7
  6
CONTINUOUS
 370
0
  0
LAYER
  2
A-BLDG-PROD
 70
0
 62
4
  6
CONTINUOUS
 370
25
  0
LAYER
  2
A-BLDG-UTIL
 70
0
 62
2
  6
CONTINUOUS
 370
25
  0
LAYER
  2
A-BLDG-OFFC
 70
0
 62
3
  6
CONTINUOUS
 370
25
  0
LAYER
  2
A-BLDG
 70
0
 62
5
  6
CONTINUOUS
 370
25
  0
LAYER
  2
A-BLDG-FILL
 70
0
 62
254
  6
CONTINUOUS
 370
0
  0
LAYER
  2
ROADS-MAIN
 70
0
 62
7
  6
CONTINUOUS
 370
35
  0
LAYER
  2
ROADS-TRUCK
 70
0
 62
2
  6
DASHED
 370
25
  0
LAYER
  2
ROADS-RAIL
 70
0
 62
6
  6
CENTER
 370
20
  0
LAYER
  2
ROADS-EMERG
 70
0
 62
1
  6
DASHED
 370
18
  0
LAYER
  2
GATES
 70
0
 62
3
  6
CONTINUOUS
 370
0
  0
LAYER
  2
NORTH-ARROW
 70
0
 62
7
  6
CONTINUOUS
 370
0
  0
LAYER
  2
TITLE-BLOCK
 70
0
 62
7
  6
CONTINUOUS
 370
0
  0
LAYER
  2
ANNOTATION
 70
0
 62
7
  6
CONTINUOUS
 370
0
  0
LAYER
  2
E-UTIL-POWR
 70
0
 62
5
  6
CONTINUOUS
 370
0
  0
LAYER
  2
T-RAIL
 70
0
 62
5
  6
CONTINUOUS
 370
0
  0
LAYER
  2
Z-ZONE-BATT
 70
0
 62
5
  6
CONTINUOUS
 370
0
  0
LAYER
  2
Z-SITE-SOLR
 70
0
 62
5
  6
CONTINUOUS
 370
0
  0
LAYER
  2
C-ROAD
 70
0
 62
5
  6
CONTINUOUS
 370
0
  0
ENDTAB
  0
TABLE
  2
STYLE
 70
1
  0
STYLE
  2
STANDARD
 70
0
 40
0.0
 41
1.0
 50
0.0
 71
0
 42
2.5
  3
txt
  4

  0
ENDTAB
  0
ENDSEC
  0
SECTION
  2
ENTITIES
  0
LWPOLYLINE
  5
C8
100
AcDbEntity
  8
BOUNDARY
 62
3
100
AcDbPolyline
 90
6
 70
1
 43
0.0
 10
-1500.569
 20
2038.400
 10
1451.370
 20
1856.400
 10
1795.763
 20
327.600
 10
1549.768
 20
-1965.600
 10
-1500.569
 20
-2147.600
 10
-1894.161
 20
-764.400
  0
LWPOLYLINE
  5
C9
100
AcDbEntity
  8
BOUNDARY
 62
3
100
AcDbPolyline
 90
6
 70
1
 43
0.0
 10
-1494.569
 20
2044.400
 10
1457.370
 20
1862.400
 10
1801.763
 20
333.600
 10
1555.768
 20
-1959.600
 10
-1494.569
 20
-2141.600
 10
-1888.161
 20
-758.400
  0
LWPOLYLINE
  5
CA
100
AcDbEntity
  8
BOUNDARY
 62
8
100
AcDbPolyline
 90
6
 70
1
 43
0.0
 10
-1506.569
 20
2032.400
 10
1445.370
 20
1850.400
 10
1789.763
 20
321.600
 10
1543.768
 20
-1971.600
 10
-1506.569
 20
-2153.600
 10
-1900.161
 20
-770.400
  0
TEXT
  5
CB
100
AcDbEntity
  8
BOUNDARY
 62
3
100
AcDbText
 10
-1500.569
 20
2163.980
 30
0.0
 40
44.279
  1
SITE BOUNDARY - 285 ac
  7
STANDARD
  0
HATCH
  5
CC
100
AcDbEntity
  8
ZONES
 62
8
100
AcDbHatch
 10
0.0
 20
0.0
 30
0.0
210
0.0
220
0.0
230
1.0
  2
SOLID
 70
1
 71
0
 91
1
 92
1
 93
4
 72
2
 73
1
 74
0
 93
4
 10
-1726.437
 20
1943.264
 10
1628.039
 20
1943.264
 10
1628.039
 20
1420.014
 10
-1726.437
 20
1420.014
 97
0
 75
0
 76
1
 52
0.0
 41
1.0
 73
0
 79
0
 98
1
 10
-49.199
 20
1681.639
  0
LWPOLYLINE
  5
CD
100
AcDbEntity
  8
ZONES
 62
8
  6
DASHED
100
AcDbPolyline
 90
4
 70
1
 43
0.0
 10
-1726.437
 20
1943.264
 10
1628.039
 20
1943.264
 10
1628.039
 20
1420.014
 10
-1726.437
 20
1420.014
  0
TEXT
  5
CE
100
AcDbEntity
  8
ZONE-LABELS
 62
7
100
AcDbText
 10
-49.199
 20
1748.615
 30
0.0
 40
33.209
  1
LOGISTICS GATEWAY
  7
STANDARD
 72
1
 11
-49.199
 21
1748.615
  0
HATCH
  5
CF
100
AcDbEntity
  8
ZONES
 62
5
100
AcDbHatch
 10
0.0
 20
0.0
 30
0.0
210
0.0
220
0.0
230
1.0
  2
SOLID
 70
1
 71
0
 91
1
 92
1
 93
4
 72
2
 73
1
 74
0
 93
4
 10
-1726.437
 20
1372.445
 10
1628.039
 20
1372.445
 10
1628.039
 20
516.218
 10
-1726.437
 20
516.218
 97
0
 75
0
 76
1
 52
0.0
 41
1.0
 73
0
 79
0
 98
1
 10
-49.199
 20
944.332
  0
LWPOLYLINE
  5
D0
100
AcDbEntity
  8
ZONES
 62
5
  6
DASHED
100
AcDbPolyline
 90
4
 70
1
 43
0.0
 10
-1726.437
 20
1372.445
 10
1628.039
 20
1372.445
 10
1628.039
 20
516.218
 10
-1726.437
 20
516.218
  0
TEXT
  5
D1
100
AcDbEntity
  8
ZONE-LABELS
 62
7
100
AcDbText
 10
-49.199
 20
1011.308
 30
0.0
 40
33.209
  1
BATTERY MANUFACTURING
  7
STANDARD
 72
1
 11
-49.199
 21
1011.308
  0
HATCH
  5
D2
100
AcDbEntity
  8
ZONES
 62
4
100
AcDbHatch
 10
0.0
 20
0.0
 30
0.0
210
0.0
220
0.0
230
1.0
  2
SOLID
 70
1
 71
0
 91
1
 92
1
 93
4
 72
2
 73
1
 74
0
 93
4
 10
-1726.437
 20
468.650
 10
1628.039
 20
468.650
 10
1628.039
 20
-340.009
 10
-1726.437
 20
-340.009
 97
0
 75
0
 76
1
 52
0.0
 41
1.0
 73
0
 79
0
 98
1
 10
-49.199
 20
64.320
  0
LWPOLYLINE
  5
D3
100
AcDbEntity
  8
ZONES
 62
4
  6
DASHED
100
AcDbPolyline
 90
4
 70
1
 43
0.0
 10
-1726.437
 20
468.650
 10
1628.039
 20
468.650
 10
1628.039
 20
-340.009
 10
-1726.437
 20
-340.009
  0
TEXT
  5
D4
100
AcDbEntity
  8
ZONE-LABELS
 62
7
100
AcDbText
 10
-49.199
 20
131.296
 30
0.0
 40
33.209
  1
EV ASSEMBLY DISTRICT
  7
STANDARD
 72
1
 11
-49.199
 21
131.296
  0
HATCH
  5
D5
100
AcDbEntity
  8
ZONES
 62
4
100
AcDbHatch
 10
0.0
 20
0.0
 30
0.0
210
0.0
220
0.0
230
1.0
  2
SOLID
 70
1
 71
0
 91
1
 92
1
 93
4
 72
2
 73
1
 74
0
 93
4
 10
-1810.299
 20
-387.577
 10
1711.901
 20
-387.577
 10
1711.901
 20
-1005.964
 10
-1810.299
 20
-1005.964
 97
0
 75
0
 76
1
 52
0.0
 41
1.0
 73
0
 79
0
 98
1
 10
-49.199
 20
-696.770
  0
LWPOLYLINE
  5
D6
100
AcDbEntity
  8
ZONES
 62
4
  6
DASHED
100
AcDbPolyline
 90
4
 70
1
 43
0.0
 10
-1810.299
 20
-387.577
 10
1711.901
 20
-387.577
 10
1711.901
 20
-1005.964
 10
-1810.299
 20
-1005.964
  0
TEXT
  5
D7
100
AcDbEntity
  8
ZONE-LABELS
 62
7
100
AcDbText
 10
-49.199
 20
-629.794
 30
0.0
 40
33.209
  1
DRIVETRAIN + POWERTRAIN
  7
STANDARD
 72
1
 11
-49.199
 21
-629.794
  0
HATCH
  5
D8
100
AcDbEntity
  8
ZONES
 62
6
100
AcDbHatch
 10
0.0
 20
0.0
 30
0.0
210
0.0
220
0.0
230
1.0
  2
SOLID
 70
1
 71
0
 91
1
 92
1
 93
4
 72
2
 73
1
 74
0
 93
4
 10
-1726.437
 20
-1053.532
 10
1628.039
 20
-1053.532
 10
1628.039
 20
-1576.782
 10
-1726.437
 20
-1576.782
 97
0
 75
0
 76
1
 52
0.0
 41
1.0
 73
0
 79
0
 98
1
 10
-49.199
 20
-1315.157
  0
LWPOLYLINE
  5
D9
100
AcDbEntity
  8
ZONES
 62
6
  6
DASHED
100
AcDbPolyline
 90
4
 70
1
 43
0.0
 10
-1726.437
 20
-1053.532
 10
1628.039
 20
-1053.532
 10
1628.039
 20
-1576.782
 10
-1726.437
 20
-1576.782
  0
TEXT
  5
DA
100
AcDbEntity
  8
ZONE-LABELS
 62
7
100
AcDbText
 10
-49.199
 20
-1248.181
 30
0.0
 40
33.209
  1
R+D + ENGINEERING
  7
STANDARD
 72
1
 11
-49.199
 21
-1248.181
  0
HATCH
  5
DB
100
AcDbEntity
  8
ZONES
 62
2
100
AcDbHatch
 10
0.0
 20
0.0
 30
0.0
210
0.0
220
0.0
230
1.0
  2
SOLID
 70
1
 71
0
 91
1
 92
1
 93
4
 72
2
 73
1
 74
0
 93
4
 10
-1726.437
 20
-1624.350
 10
1628.039
 20
-1624.350
 10
1628.039
 20
-2052.464
 10
-1726.437
 20
-2052.464
 97
0
 75
0
 76
1
 52
0.0
 41
1.0
 73
0
 79
0
 98
1
 10
-49.199
 20
-1838.407
  0
LWPOLYLINE
  5
DC
100
AcDbEntity
  8
ZONES
 62
2
  6
DASHED
100
AcDbPolyline
 90
4
 70
1
 43
0.0
 10
-1726.437
 20
-1624.350
 10
1628.039
 20
-1624.350
 10
1628.039
 20
-2052.464
 10
-1726.437
 20
-2052.464
  0
TEXT
  5
DD
100
AcDbEntity
  8
ZONE-LABELS
 62
7
100
AcDbText
 10
-49.199
 20
-1771.431
 30
0.0
 40
33.209
  1
UTILITY + SUSTAINABILITY
  7
STANDARD
 72
1
 11
-49.199
 21
-1771.431
  0
HATCH
  5
DE
100
AcDbEntity
  8
A-BLDG-PROD
 62
6
100
AcDbHatch
 10
0.0
 20
0.0
 30
0.0
210
0.0
220
0.0
230
1.0
  2
SOLID
 70
1
 71
0
 91
1
 92
1
 93
4
 72
2
 73
1
 74
0
 93
4
 10
-1464.159
 20
1846.148
 10
-688.856
 20
1846.148
 10
-688.856
 20
1564.697
 10
-1464.159
 20
1564.697
 97
0
 75
0
 76
1
 52
0.0
 41
1.0
 73
0
 79
0
 98
1
 10
-1076.507
 20
1705.423
  0
LWPOLYLINE
  5
DF
100
AcDbEntity
  8
A-BLDG-PROD
 62
6
100
AcDbPolyline
 90
4
 70
1
 43
0.0
 10
-1464.159
 20
1846.148
 10
-688.856
 20
1846.148
 10
-688.856
 20
1564.697
 10
-1464.159
 20
1564.697
  0
TEXT
  5
E0
100
AcDbEntity
  8
ANNOTATION
 62
7
100
AcDbText
 10
-1076.507
 20
1695.091
 30
0.0
 40
25.829
  1
Rail + Truck
  7
STANDARD
 72
1
 11
-1076.507
 21
1695.091
  0
HATCH
  5
E1
100
AcDbEntity
  8
A-BLDG
 62
8
100
AcDbHatch
 10
0.0
 20
0.0
 30
0.0
210
0.0
220
0.0
230
1.0
  2
SOLID
 70
1
 71
0
 91
1
 92
1
 93
4
 72
2
 73
1
 74
0
 93
4
 10
-342.716
 20
1895.695
 10
495.903
 20
1895.695
 10
495.903
 20
1515.150
 10
-342.716
 20
1515.150
 97
0
 75
0
 76
1
 52
0.0
 41
1.0
 73
0
 79
0
 98
1
 10
76.594
 20
1705.423
  0
LWPOLYLINE
  5
E2
100
AcDbEntity
  8
A-BLDG
 62
8
100
AcDbPolyline
 90
4
 70
1
 43
0.0
 10
-342.716
 20
1895.695
 10
495.903
 20
1895.695
 10
495.903
 20
1515.150
 10
-342.716
 20
1515.150
  0
TEXT
  5
E3
100
AcDbEntity
  8
ANNOTATION
 62
7
100
AcDbText
 10
76.594
 20
1695.091
 30
0.0
 40
25.829
  1
Receiving + Inspection
  7
STANDARD
 72
1
 11
76.594
 21
1695.091
  0
HATCH
  5
E4
100
AcDbEntity
  8
A-BLDG
 62
8
100
AcDbHatch
 10
0.0
 20
0.0
 30
0.0
210
0.0
220
0.0
230
1.0
  2
SOLID
 70
1
 71
0
 91
1
 92
1
 93
4
 72
2
 73
1
 74
0
 93
4
 10
814.746
 20
1846.148
 10
1434.989
 20
1846.148
 10
1434.989
 20
1564.697
 10
814.746
 20
1564.697
 97
0
 75
0
 76
1
 52
0.0
 41
1.0
 73
0
 79
0
 98
1
 10
1124.868
 20
1705.423
  0
LWPOLYLINE
  5
E5
100
AcDbEntity
  8
A-BLDG
 62
8
100
AcDbPolyline
 90
4
 70
1
 43
0.0
 10
814.746
 20
1846.148
 10
1434.989
 20
1846.148
 10
1434.989
 20
1564.697
 10
814.746
 20
1564.697
  0
TEXT
  5
E6
100
AcDbEntity
  8
ANNOTATION
 62
7
100
AcDbText
 10
1124.868
 20
1695.091
 30
0.0
 40
25.829
  1
Component Warehouse
  7
STANDARD
 72
1
 11
1124.868
 21
1695.091
  0
HATCH
  5
E7
100
AcDbEntity
  8
A-BLDG-PROD
 62
5
100
AcDbHatch
 10
0.0
 20
0.0
 30
0.0
210
0.0
220
0.0
230
1.0
  2
SOLID
 70
1
 71
0
 91
1
 92
1
 93
4
 72
2
 73
1
 74
0
 93
4
 10
-1590.581
 20
1278.260
 10
-436.641
 20
1278.260
 10
-436.641
 20
705.540
 10
-1590.581
 20
705.540
 97
0
 75
0
 76
1
 52
0.0
 41
1.0
 73
0
 79
0
 98
1
 10
-1013.611
 20
991.900
  0
LWPOLYLINE
  5
E8
100
AcDbEntity
  8
A-BLDG-PROD
 62
5
100
AcDbPolyline
 90
4
 70
1
 43
0.0
 10
-1590.581
 20
1278.260
 10
-436.641
 20
1278.260
 10
-436.641
 20
705.540
 10
-1590.581
 20
705.540
  0
TEXT
  5
E9
100
AcDbEntity
  8
ANNOTATION
 62
7
100
AcDbText
 10
-1013.611
 20
981.568
 30
0.0
 40
25.829
  1
Battery Cell Manufacturing
  7
STANDARD
 72
1
 11
-1013.611
 21
981.568
  0
HATCH
  5
EA
100
AcDbEntity
  8
A-BLDG-PROD
 62
5
100
AcDbHatch
 10
0.0
 20
0.0
 30
0.0
210
0.0
220
0.0
230
1.0
  2
SOLID
 70
1
 71
0
 91
1
 92
1
 93
4
 72
2
 73
1
 74
0
 93
4
 10
-133.061
 20
1324.877
 10
1124.868
 20
1324.877
 10
1124.868
 20
658.923
 10
-133.061
 20
658.923
 97
0
 75
0
 76
1
 52
0.0
 41
1.0
 73
0
 79
0
 98
1
 10
495.903
 20
991.900
  0
LWPOLYLINE
  5
EB
100
AcDbEntity
  8
A-BLDG-PROD
 62
5
100
AcDbPolyline
 90
4
 70
1
 43
0.0
 10
-133.061
 20
1324.877
 10
1124.868
 20
1324.877
 10
1124.868
 20
658.923
 10
-133.061
 20
658.923
  0
TEXT
  5
EC
100
AcDbEntity
  8
ANNOTATION
 62
7
100
AcDbText
 10
495.903
 20
981.568
 30
0.0
 40
25.829
  1
Module + Pack
  7
STANDARD
 72
1
 11
495.903
 21
981.568
  0
HATCH
  5
ED
100
AcDbEntity
  8
A-BLDG-UTIL
 62
5
100
AcDbHatch
 10
0.0
 20
0.0
 30
0.0
210
0.0
220
0.0
230
1.0
  2
SOLID
 70
1
 71
0
 91
1
 92
1
 93
6
 72
2
 73
1
 74
0
 93
6
 10
1599.951
 20
1034.711
 10
1599.951
 20
853.952
 10
1418.384
 20
763.573
 10
1236.818
 20
853.952
 10
1236.818
 20
1034.711
 10
1418.384
 20
1125.091
 97
0
 75
0
 76
1
 52
0.0
 41
1.0
 73
0
 79
0
 98
1
 10
1418.384
 20
944.332
  0
LWPOLYLINE
  5
EE
100
AcDbEntity
  8
A-BLDG-UTIL
 62
5
100
AcDbPolyline
 90
6
 70
1
 43
0.0
 10
1599.951
 20
1034.711
 10
1599.951
 20
853.952
 10
1418.384
 20
763.573
 10
1236.818
 20
853.952
 10
1236.818
 20
1034.711
 10
1418.384
 20
1125.091
  0
TEXT
  5
EF
100
AcDbEntity
  8
ANNOTATION
 62
7
100
AcDbText
 10
1418.384
 20
934.000
 30
0.0
 40
25.829
  1
BMS + Electronics
  7
STANDARD
 72
1
 11
1418.384
 21
934.000
  0
HATCH
  5
F0
100
AcDbEntity
  8
A-BLDG-PROD
 62
4
100
AcDbHatch
 10
0.0
 20
0.0
 30
0.0
210
0.0
220
0.0
230
1.0
  2
SOLID
 70
1
 71
0
 91
1
 92
1
 93
4
 72
2
 73
1
 74
0
 93
4
 10
-1684.506
 20
421.082
 10
-426.578
 20
421.082
 10
-426.578
 20
-7.032
 10
-1684.506
 20
-7.032
 97
0
 75
0
 76
1
 52
0.0
 41
1.0
 73
0
 79
0
 98
1
 10
-1055.542
 20
207.025
  0
LWPOLYLINE
  5
F1
100
AcDbEntity
  8
A-BLDG-PROD
 62
4
100
AcDbPolyline
 90
4
 70
1
 43
0.0
 10
-1684.506
 20
421.082
 10
-426.578
 20
421.082
 10
-426.578
 20
-7.032
 10
-1684.506
 20
-7.032
  0
TEXT
  5
F2
100
AcDbEntity
  8
ANNOTATION
 62
7
100
AcDbText
 10
-1055.542
 20
196.693
 30
0.0
 40
25.829
  1
Stamping + Press
  7
STANDARD
 72
1
 11
-1055.542
 21
196.693
  0
HATCH
  5
F3
100
AcDbEntity
  8
A-BLDG-PROD
 62
4
100
AcDbHatch
 10
0.0
 20
0.0
 30
0.0
210
0.0
220
0.0
230
1.0
  2
SOLID
 70
1
 71
0
 91
1
 92
1
 93
4
 72
2
 73
1
 74
0
 93
4
 10
-216.923
 20
421.082
 10
957.144
 20
421.082
 10
957.144
 20
-7.032
 10
-216.923
 20
-7.032
 97
0
 75
0
 76
1
 52
0.0
 41
1.0
 73
0
 79
0
 98
1
 10
370.111
 20
207.025
  0
LWPOLYLINE
  5
F4
100
AcDbEntity
  8
A-BLDG-PROD
 62
4
100
AcDbPolyline
 90
4
 70
1
 43
0.0
 10
-216.923
 20
421.082
 10
957.144
 20
421.082
 10
957.144
 20
-7.032
 10
-216.923
 20
-7.032
  0
TEXT
  5
F5
100
AcDbEntity
  8
ANNOTATION
 62
7
100
AcDbText
 10
370.111
 20
196.693
 30
0.0
 40
25.829
  1
Paint + Surface
  7
STANDARD
 72
1
 11
370.111
 21
196.693
  0
HATCH
  5
F6
100
AcDbEntity
  8
A-BLDG-PROD
 62
4
100
AcDbHatch
 10
0.0
 20
0.0
 30
0.0
210
0.0
220
0.0
230
1.0
  2
SOLID
 70
1
 71
0
 91
1
 92
1
 93
4
 72
2
 73
1
 74
0
 93
4
 10
-1768.368
 20
-54.600
 10
1669.970
 20
-54.600
 10
1669.970
 20
-482.714
 10
-1768.368
 20
-482.714
 97
0
 75
0
 76
1
 52
0.0
 41
1.0
 73
0
 79
0
 98
1
 10
-49.199
 20
-268.657
  0
LWPOLYLINE
  5
F7
100
AcDbEntity
  8
A-BLDG-PROD
 62
4
100
AcDbPolyline
 90
4
 70
1
 43
0.0
 10
-1768.368
 20
-54.600
 10
1669.970
 20
-54.600
 10
1669.970
 20
-482.714
 10
-1768.368
 20
-482.714
  0
LWPOLYLINE
  5
F8
100
AcDbEntity
  8
A-BLDG-PROD
 62
7
100
AcDbPolyline
 90
4
 70
1
 43
0.0
 10
-1768.368
 20
-54.600
 10
1669.970
 20
-54.600
 10
1669.970
 20
-482.714
 10
-1768.368
 20
-482.714
  0
TEXT
  5
F9
100
AcDbEntity
  8
ANNOTATION
 62
7
100
AcDbText
 10
-49.199
 20
-278.989
 30
0.0
 40
25.829
  1
FINAL EV ASSEMBLY
  7
STANDARD
 72
1
 11
-49.199
 21
-278.989
  0
HATCH
  5
FA
100
AcDbEntity
  8
A-BLDG-PROD
 62
4
100
AcDbHatch
 10
0.0
 20
0.0
 30
0.0
210
0.0
220
0.0
230
1.0
  2
SOLID
 70
1
 71
0
 91
1
 92
1
 93
4
 72
2
 73
1
 74
0
 93
4
 10
-1684.506
 20
-482.714
 10
-258.854
 20
-482.714
 10
-258.854
 20
-910.827
 10
-1684.506
 20
-910.827
 97
0
 75
0
 76
1
 52
0.0
 41
1.0
 73
0
 79
0
 98
1
 10
-971.680
 20
-696.770
  0
LWPOLYLINE
  5
FB
100
AcDbEntity
  8
A-BLDG-PROD
 62
4
100
AcDbPolyline
 90
4
 70
1
 43
0.0
 10
-1684.506
 20
-482.714
 10
-258.854
 20
-482.714
 10
-258.854
 20
-910.827
 10
-1684.506
 20
-910.827
  0
TEXT
  5
FC
100
AcDbEntity
  8
ANNOTATION
 62
7
100
AcDbText
 10
-971.680
 20
-707.102
 30
0.0
 40
25.829
  1
Drivetrain Manufacturing
  7
STANDARD
 72
1
 11
-971.680
 21
-707.102
  0
HATCH
  5
FD
100
AcDbEntity
  8
A-BLDG-PROD
 62
4
100
AcDbHatch
 10
0.0
 20
0.0
 30
0.0
210
0.0
220
0.0
230
1.0
  2
SOLID
 70
1
 71
0
 91
1
 92
1
 93
4
 72
2
 73
1
 74
0
 93
4
 10
-49.199
 20
-482.714
 10
1208.730
 20
-482.714
 10
1208.730
 20
-910.827
 10
-49.199
 20
-910.827
 97
0
 75
0
 76
1
 52
0.0
 41
1.0
 73
0
 79
0
 98
1
 10
579.765
 20
-696.770
  0
LWPOLYLINE
  5
FE
100
AcDbEntity
  8
A-BLDG-PROD
 62
4
100
AcDbPolyline
 90
4
 70
1
 43
0.0
 10
-49.199
 20
-482.714
 10
1208.730
 20
-482.714
 10
1208.730
 20
-910.827
 10
-49.199
 20
-910.827
  0
TEXT
  5
FF
100
AcDbEntity
  8
ANNOTATION
 62
7
100
AcDbText
 10
579.765
 20
-707.102
 30
0.0
 40
25.829
  1
Powertrain Integration
  7
STANDARD
 72
1
 11
579.765
 21
-707.102
  0
HATCH
  5
100
100
AcDbEntity
  8
A-BLDG-PROD
 62
6
100
AcDbHatch
 10
0.0
 20
0.0
 30
0.0
210
0.0
220
0.0
230
1.0
  2
SOLID
 70
1
 71
0
 91
1
 92
1
 93
4
 72
2
 73
1
 74
0
 93
4
 10
-1684.506
 20
-958.395
 10
-803.956
 20
-958.395
 10
-803.956
 20
-1434.077
 10
-1684.506
 20
-1434.077
 97
0
 75
0
 76
1
 52
0.0
 41
1.0
 73
0
 79
0
 98
1
 10
-1244.231
 20
-1196.236
  0
LWPOLYLINE
  5
101
100
AcDbEntity
  8
A-BLDG-PROD
 62
6
100
AcDbPolyline
 90
4
 70
1
 43
0.0
 10
-1684.506
 20
-958.395
 10
-803.956
 20
-958.395
 10
-803.956
 20
-1434.077
 10
-1684.506
 20
-1434.077
  0
TEXT
  5
102
100
AcDbEntity
  8
ANNOTATION
 62
7
100
AcDbText
 10
-1244.231
 20
-1206.568
 30
0.0
 40
25.829
  1
Vehicle Test Track
  7
STANDARD
 72
1
 11
-1244.231
 21
-1206.568
  0
HATCH
  5
103
100
AcDbEntity
  8
A-BLDG-OFFC
 62
6
100
AcDbHatch
 10
0.0
 20
0.0
 30
0.0
210
0.0
220
0.0
230
1.0
  2
SOLID
 70
1
 71
0
 91
1
 92
1
 93
4
 72
2
 73
1
 74
0
 93
4
 10
-594.301
 20
-958.395
 10
370.111
 20
-958.395
 10
370.111
 20
-1434.077
 10
-594.301
 20
-1434.077
 97
0
 75
0
 76
1
 52
0.0
 41
1.0
 73
0
 79
0
 98
1
 10
-112.095
 20
-1196.236
  0
LWPOLYLINE
  5
104
100
AcDbEntity
  8
A-BLDG-OFFC
 62
6
100
AcDbPolyline
 90
4
 70
1
 43
0.0
 10
-594.301
 20
-958.395
 10
370.111
 20
-958.395
 10
370.111
 20
-1434.077
 10
-594.301
 20
-1434.077
  0
TEXT
  5
105
100
AcDbEntity
  8
ANNOTATION
 62
7
100
AcDbText
 10
-112.095
 20
-1206.568
 30
0.0
 40
25.829
  1
Delivery Center
  7
STANDARD
 72
1
 11
-112.095
 21
-1206.568
  0
HATCH
  5
106
100
AcDbEntity
  8
A-BLDG-OFFC
 62
6
100
AcDbHatch
 10
0.0
 20
0.0
 30
0.0
210
0.0
220
0.0
230
1.0
  2
SOLID
 70
1
 71
0
 91
1
 92
1
 93
4
 72
2
 73
1
 74
0
 93
4
 10
579.765
 20
-958.395
 10
1544.177
 20
-958.395
 10
1544.177
 20
-1434.077
 10
579.765
 20
-1434.077
 97
0
 75
0
 76
1
 52
0.0
 41
1.0
 73
0
 79
0
 98
1
 10
1061.971
 20
-1196.236
  0
LWPOLYLINE
  5
107
100
AcDbEntity
  8
A-BLDG-OFFC
 62
6
100
AcDbPolyline
 90
4
 70
1
 43
0.0
 10
579.765
 20
-958.395
 10
1544.177
 20
-958.395
 10
1544.177
 20
-1434.077
 10
579.765
 20
-1434.077
  0
TEXT
  5
108
100
AcDbEntity
  8
ANNOTATION
 62
7
100
AcDbText
 10
1061.971
 20
-1206.568
 30
0.0
 40
25.829
  1
R+D Center
  7
STANDARD
 72
1
 11
1061.971
 21
-1206.568
  0
HATCH
  5
109
100
AcDbEntity
  8
A-BLDG-UTIL
 62
2
100
AcDbHatch
 10
0.0
 20
0.0
 30
0.0
210
0.0
220
0.0
230
1.0
  2
SOLID
 70
1
 71
0
 91
1
 92
1
 93
4
 72
2
 73
1
 74
0
 93
4
 10
-1551.273
 20
-1760.086
 10
-1314.568
 20
-1760.086
 10
-1314.568
 20
-1916.728
 10
-1551.273
 20
-1916.728
 97
0
 75
0
 76
1
 52
0.0
 41
1.0
 73
0
 79
0
 98
1
 10
-1432.920
 20
-1838.407
  0
LWPOLYLINE
  5
10A
100
AcDbEntity
  8
A-BLDG-UTIL
 62
2
100
AcDbPolyline
 90
4
 70
1
 43
0.0
 10
-1551.273
 20
-1760.086
 10
-1314.568
 20
-1760.086
 10
-1314.568
 20
-1916.728
 10
-1551.273
 20
-1916.728
  0
TEXT
  5
10B
100
AcDbEntity
  8
ANNOTATION
 62
7
100
AcDbText
 10
-1432.920
 20
-1848.739
 30
0.0
 40
25.829
  1
PSE 115kV Substation
  7
STANDARD
 72
1
 11
-1432.920
 21
-1848.739
  0
HATCH
  5
10C
100
AcDbEntity
  8
A-BLDG-UTIL
 62
2
100
AcDbHatch
 10
0.0
 20
0.0
 30
0.0
210
0.0
220
0.0
230
1.0
  2
SOLID
 70
1
 71
0
 91
1
 92
1
 93
4
 72
2
 73
1
 74
0
 93
4
 10
-1055.542
 20
-1671.918
 10
-468.509
 20
-1671.918
 10
-468.509
 20
-2004.895
 10
-1055.542
 20
-2004.895
 97
0
 75
0
 76
1
 52
0.0
 41
1.0
 73
0
 79
0
 98
1
 10
-762.025
 20
-1838.407
  0
LWPOLYLINE
  5
10D
100
AcDbEntity
  8
A-BLDG-UTIL
 62
2
100
AcDbPolyline
 90
4
 70
1
 43
0.0
 10
-1055.542
 20
-1671.918
 10
-468.509
 20
-1671.918
 10
-468.509
 20
-2004.895
 10
-1055.542
 20
-2004.895
  0
TEXT
  5
10E
100
AcDbEntity
  8
ANNOTATION
 62
7
100
AcDbText
 10
-762.025
 20
-1848.739
 30
0.0
 40
25.829
  1
Battery Energy Storage
  7
STANDARD
 72
1
 11
-762.025
 21
-1848.739
  0
HATCH
  5
10F
100
AcDbEntity
  8
A-BLDG-UTIL
 62
2
100
AcDbHatch
 10
0.0
 20
0.0
 30
0.0
210
0.0
220
0.0
230
1.0
  2
SOLID
 70
1
 71
0
 91
1
 92
1
 93
4
 72
2
 73
1
 74
0
 93
4
 10
-300.785
 20
-1671.918
 10
286.249
 20
-1671.918
 10
286.249
 20
-2004.895
 10
-300.785
 20
-2004.895
 97
0
 75
0
 76
1
 52
0.0
 41
1.0
 73
0
 79
0
 98
1
 10
-7.268
 20
-1838.407
  0
LWPOLYLINE
  5
110
100
AcDbEntity
  8
A-BLDG-UTIL
 62
2
100
AcDbPolyline
 90
4
 70
1
 43
0.0
 10
-300.785
 20
-1671.918
 10
286.249
 20
-1671.918
 10
286.249
 20
-2004.895
 10
-300.785
 20
-2004.895
  0
TEXT
  5
111
100
AcDbEntity
  8
ANNOTATION
 62
7
100
AcDbText
 10
-7.268
 20
-1848.739
 30
0.0
 40
25.829
  1
Solar Carport Array
  7
STANDARD
 72
1
 11
-7.268
 21
-1848.739
  0
HATCH
  5
112
100
AcDbEntity
  8
A-BLDG-UTIL
 62
2
100
AcDbHatch
 10
0.0
 20
0.0
 30
0.0
210
0.0
220
0.0
230
1.0
  2
SOLID
 70
1
 71
0
 91
1
 92
1
 93
4
 72
2
 73
1
 74
0
 93
4
 10
489.194
 20
-1695.227
 10
921.922
 20
-1695.227
 10
921.922
 20
-1981.587
 10
489.194
 20
-1981.587
 97
0
 75
0
 76
1
 52
0.0
 41
1.0
 73
0
 79
0
 98
1
 10
705.558
 20
-1838.407
  0
LWPOLYLINE
  5
113
100
AcDbEntity
  8
A-BLDG-UTIL
 62
2
100
AcDbPolyline
 90
4
 70
1
 43
0.0
 10
489.194
 20
-1695.227
 10
921.922
 20
-1695.227
 10
921.922
 20
-1981.587
 10
489.194
 20
-1981.587
  0
TEXT
  5
114
100
AcDbEntity
  8
ANNOTATION
 62
7
100
AcDbText
 10
705.558
 20
-1848.739
 30
0.0
 40
25.829
  1
Campus Data Center
  7
STANDARD
 72
1
 11
705.558
 21
-1848.739
  0
HATCH
  5
115
100
AcDbEntity
  8
A-BLDG-OFFC
 62
3
100
AcDbHatch
 10
0.0
 20
0.0
 30
0.0
210
0.0
220
0.0
230
1.0
  2
SOLID
 70
1
 71
0
 91
1
 92
1
 93
4
 72
2
 73
1
 74
0
 93
4
 10
1142.990
 20
-1715.272
 10
1484.124
 20
-1715.272
 10
1484.124
 20
-1961.542
 10
1142.990
 20
-1961.542
 97
0
 75
0
 76
1
 52
0.0
 41
1.0
 73
0
 79
0
 98
1
 10
1313.557
 20
-1838.407
  0
LWPOLYLINE
  5
116
100
AcDbEntity
  8
A-BLDG-OFFC
 62
3
100
AcDbPolyline
 90
4
 70
1
 43
0.0
 10
1142.990
 20
-1715.272
 10
1484.124
 20
-1715.272
 10
1484.124
 20
-1961.542
 10
1142.990
 20
-1961.542
  0
TEXT
  5
117
100
AcDbEntity
  8
ANNOTATION
 62
7
100
AcDbText
 10
1313.557
 20
-1848.739
 30
0.0
 40
25.829
  1
Employee Services Hub
  7
STANDARD
 72
1
 11
1313.557
 21
-1848.739
  0
HATCH
  5
118
100
AcDbEntity
  8
A-BLDG-OFFC
 62
6
100
AcDbHatch
 10
0.0
 20
0.0
 30
0.0
210
0.0
220
0.0
230
1.0
  2
SOLID
 70
1
 71
0
 91
1
 92
1
 93
4
 72
2
 73
1
 74
0
 93
4
 10
-1684.506
 20
-1101.100
 10
-1181.335
 20
-1101.100
 10
-1181.335
 20
-1481.645
 10
-1684.506
 20
-1481.645
 97
0
 75
0
 76
1
 52
0.0
 41
1.0
 73
0
 79
0
 98
1
 10
-1432.920
 20
-1291.373
  0
LWPOLYLINE
  5
119
100
AcDbEntity
  8
A-BLDG-OFFC
 62
6
100
AcDbPolyline
 90
4
 70
1
 43
0.0
 10
-1684.506
 20
-1101.100
 10
-1181.335
 20
-1101.100
 10
-1181.335
 20
-1481.645
 10
-1684.506
 20
-1481.645
  0
TEXT
  5
11A
100
AcDbEntity
  8
ANNOTATION
 62
7
100
AcDbText
 10
-1432.920
 20
-1301.705
 30
0.0
 40
25.829
  1
Eng. HQ West
  7
STANDARD
 72
1
 11
-1432.920
 21
-1301.705
  0
HATCH
  5
11B
100
AcDbEntity
  8
A-BLDG-OFFC
 62
6
100
AcDbHatch
 10
0.0
 20
0.0
 30
0.0
210
0.0
220
0.0
230
1.0
  2
SOLID
 70
1
 71
0
 91
1
 92
1
 93
4
 72
2
 73
1
 74
0
 93
4
 10
-1097.473
 20
-1101.100
 10
-258.854
 20
-1101.100
 10
-258.854
 20
-1481.645
 10
-1097.473
 20
-1481.645
 97
0
 75
0
 76
1
 52
0.0
 41
1.0
 73
0
 79
0
 98
1
 10
-678.163
 20
-1291.373
  0
LWPOLYLINE
  5
11C
100
AcDbEntity
  8
A-BLDG-OFFC
 62
6
100
AcDbPolyline
 90
4
 70
1
 43
0.0
 10
-1097.473
 20
-1101.100
 10
-258.854
 20
-1101.100
 10
-258.854
 20
-1481.645
 10
-1097.473
 20
-1481.645
  0
TEXT
  5
11D
100
AcDbEntity
  8
ANNOTATION
 62
7
100
AcDbText
 10
-678.163
 20
-1301.705
 30
0.0
 40
25.829
  1
Eng. HQ Center
  7
STANDARD
 72
1
 11
-678.163
 21
-1301.705
  0
HATCH
  5
11E
100
AcDbEntity
  8
A-BLDG-OFFC
 62
6
100
AcDbHatch
 10
0.0
 20
0.0
 30
0.0
210
0.0
220
0.0
230
1.0
  2
SOLID
 70
1
 71
0
 91
1
 92
1
 93
4
 72
2
 73
1
 74
0
 93
4
 10
-174.992
 20
-1101.100
 10
328.180
 20
-1101.100
 10
328.180
 20
-1481.645
 10
-174.992
 20
-1481.645
 97
0
 75
0
 76
1
 52
0.0
 41
1.0
 73
0
 79
0
 98
1
 10
76.594
 20
-1291.373
  0
LWPOLYLINE
  5
11F
100
AcDbEntity
  8
A-BLDG-OFFC
 62
6
100
AcDbPolyline
 90
4
 70
1
 43
0.0
 10
-174.992
 20
-1101.100
 10
328.180
 20
-1101.100
 10
328.180
 20
-1481.645
 10
-174.992
 20
-1481.645
  0
TEXT
  5
120
100
AcDbEntity
  8
ANNOTATION
 62
7
100
AcDbText
 10
76.594
 20
-1301.705
 30
0.0
 40
25.829
  1
Eng. HQ East
  7
STANDARD
 72
1
 11
76.594
 21
-1301.705
  0
LWPOLYLINE
  5
121
100
AcDbEntity
  8
ROADS-MAIN
 62
7
100
AcDbPolyline
 90
2
 70
0
 43
0.0
 10
-49.199
 20
1943.264
 10
-49.199
 20
-2052.464
  0
LWPOLYLINE
  5
122
100
AcDbEntity
  8
ROADS-MAIN
 62
7
100
AcDbPolyline
 90
2
 70
0
 43
0.0
 10
-1726.437
 20
1420.014
 10
1628.039
 20
1420.014
  0
LWPOLYLINE
  5
123
100
AcDbEntity
  8
ROADS-MAIN
 62
7
100
AcDbPolyline
 90
2
 70
0
 43
0.0
 10
-1726.437
 20
516.218
 10
1628.039
 20
516.218
  0
LWPOLYLINE
  5
124
100
AcDbEntity
  8
ROADS-TRUCK
 62
2
100
AcDbPolyline
 90
2
 70
0
 43
0.0
 10
-1726.437
 20
-7.032
 10
1628.039
 20
-7.032
  0
LWPOLYLINE
  5
125
100
AcDbEntity
  8
ROADS-MAIN
 62
7
100
AcDbPolyline
 90
2
 70
0
 43
0.0
 10
-1726.437
 20
-910.827
 10
1628.039
 20
-910.827
  0
LWPOLYLINE
  5
126
100
AcDbEntity
  8
ROADS-MAIN
 62
7
100
AcDbPolyline
 90
2
 70
0
 43
0.0
 10
-1726.437
 20
-1624.350
 10
1628.039
 20
-1624.350
  0
LWPOLYLINE
  5
127
100
AcDbEntity
  8
ROADS-TRUCK
 62
2
100
AcDbPolyline
 90
2
 70
0
 43
0.0
 10
-1726.437
 20
1420.014
 10
-1726.437
 20
-7.032
  0
LWPOLYLINE
  5
128
100
AcDbEntity
  8
ROADS-TRUCK
 62
2
100
AcDbPolyline
 90
2
 70
0
 43
0.0
 10
1628.039
 20
1420.014
 10
1628.039
 20
-7.032
  0
LWPOLYLINE
  5
129
100
AcDbEntity
  8
ROADS-EMERG
 62
1
100
AcDbPolyline
 90
2
 70
0
 43
0.0
 10
-1684.506
 20
1943.264
 10
-1684.506
 20
-2052.464
  0
LWPOLYLINE
  5
12A
100
AcDbEntity
  8
ROADS-EMERG
 62
1
100
AcDbPolyline
 90
2
 70
0
 43
0.0
 10
1586.108
 20
1943.264
 10
1586.108
 20
-2052.464
  0
LWPOLYLINE
  5
12B
100
AcDbEntity
  8
ROADS-RAIL
 62
6
100
AcDbPolyline
 90
2
 70
0
 43
0.0
 10
-1600.644
 20
1943.264
 10
-1600.644
 20
516.218
  0
CIRCLE
  5
12C
100
AcDbEntity
  8
GATES
 62
3
100
AcDbCircle
 10
-49.199
 20
1943.264
 30
0.0
 40
33.209
  0
CIRCLE
  5
12D
100
AcDbEntity
  8
GATES
 62
3
100
AcDbCircle
 10
-49.199
 20
1943.264
 30
0.0
 40
18.265
  0
TEXT
  5
12E
100
AcDbEntity
  8
GATES
 62
3
100
AcDbText
 10
-49.199
 20
1996.399
 30
0.0
 40
23.985
  1
Main Gate North
  7
STANDARD
 72
1
 11
-49.199
 21
1996.399
  0
CIRCLE
  5
12F
100
AcDbEntity
  8
GATES
 62
3
100
AcDbCircle
 10
-1600.644
 20
1943.264
 30
0.0
 40
33.209
  0
CIRCLE
  5
130
100
AcDbEntity
  8
GATES
 62
3
100
AcDbCircle
 10
-1600.644
 20
1943.264
 30
0.0
 40
18.265
  0
TEXT
  5
131
100
AcDbEntity
  8
GATES
 62
3
100
AcDbText
 10
-1600.644
 20
1996.399
 30
0.0
 40
23.985
  1
BNSF Rail Gate
  7
STANDARD
 72
1
 11
-1600.644
 21
1996.399
  0
CIRCLE
  5
132
100
AcDbEntity
  8
GATES
 62
3
100
AcDbCircle
 10
-1726.437
 20
-7.032
 30
0.0
 40
33.209
  0
CIRCLE
  5
133
100
AcDbEntity
  8
GATES
 62
3
100
AcDbCircle
 10
-1726.437
 20
-7.032
 30
0.0
 40
18.265
  0
TEXT
  5
134
100
AcDbEntity
  8
GATES
 62
3
100
AcDbText
 10
-1726.437
 20
46.103
 30
0.0
 40
23.985
  1
Truck Gate West
  7
STANDARD
 72
1
 11
-1726.437
 21
46.103
  0
CIRCLE
  5
135
100
AcDbEntity
  8
GATES
 62
3
100
AcDbCircle
 10
1628.039
 20
-7.032
 30
0.0
 40
33.209
  0
CIRCLE
  5
136
100
AcDbEntity
  8
GATES
 62
3
100
AcDbCircle
 10
1628.039
 20
-7.032
 30
0.0
 40
18.265
  0
TEXT
  5
137
100
AcDbEntity
  8
GATES
 62
3
100
AcDbText
 10
1628.039
 20
46.103
 30
0.0
 40
23.985
  1
Truck Gate East
  7
STANDARD
 72
1
 11
1628.039
 21
46.103
  0
CIRCLE
  5
138
100
AcDbEntity
  8
GATES
 62
3
100
AcDbCircle
 10
-49.199
 20
-2052.464
 30
0.0
 40
33.209
  0
CIRCLE
  5
139
100
AcDbEntity
  8
GATES
 62
3
100
AcDbCircle
 10
-49.199
 20
-2052.464
 30
0.0
 40
18.265
  0
TEXT
  5
13A
100
AcDbEntity
  8
GATES
 62
3
100
AcDbText
 10
-49.199
 20
-1999.329
 30
0.0
 40
23.985
  1
Employee Gate South
  7
STANDARD
 72
1
 11
-49.199
 21
-1999.329
  0
LWPOLYLINE
  5
13B
100
AcDbEntity
  8
E-UTIL-POWR
 62
5
100
AcDbPolyline
 90
2
 70
0
 43
0.0
 10
-1810.299
 20
1943.264
 10
1711.901
 20
1943.264
  0
LWPOLYLINE
  5
13C
100
AcDbEntity
  8
T-RAIL
 62
5
100
AcDbPolyline
 90
2
 70
0
 43
0.0
 10
-1810.299
 20
1943.264
 10
1711.901
 20
1943.264
  0
LWPOLYLINE
  5
13D
100
AcDbEntity
  8
Z-ZONE-BATT
 62
5
100
AcDbPolyline
 90
2
 70
0
 43
0.0
 10
-1810.299
 20
1943.264
 10
1711.901
 20
1943.264
  0
LWPOLYLINE
  5
13E
100
AcDbEntity
  8
Z-SITE-SOLR
 62
5
100
AcDbPolyline
 90
2
 70
0
 43
0.0
 10
-1810.299
 20
1943.264
 10
1711.901
 20
1943.264
  0
LWPOLYLINE
  5
13F
100
AcDbEntity
  8
C-ROAD
 62
5
100
AcDbPolyline
 90
2
 70
0
 43
0.0
 10
-1810.299
 20
1943.264
 10
1711.901
 20
1943.264
  0
LWPOLYLINE
  5
140
100
AcDbEntity
  8
NORTH-ARROW
 62
7
100
AcDbPolyline
 90
2
 70
0
 43
0.0
 10
2017.158
 20
2038.400
 10
2017.158
 20
2415.140
  0
LWPOLYLINE
  5
141
100
AcDbEntity
  8
NORTH-ARROW
 62
7
100
AcDbPolyline
 90
4
 70
1
 43
0.0
 10
2017.158
 20
2415.140
 10
1941.810
 20
2245.607
 10
2017.158
 20
2302.118
 10
2092.506
 20
2245.607
  0
TEXT
  5
142
100
AcDbEntity
  8
NORTH-ARROW
 62
7
100
AcDbText
 10
2017.158
 20
2452.814
 30
0.0
 40
188.370
  1
N
  7
STANDARD
 72
1
 11
2017.158
 21
2452.814
  0
LWPOLYLINE
  5
143
100
AcDbEntity
  8
TITLE-BLOCK
 62
7
100
AcDbPolyline
 90
4
 70
1
 43
0.0
 10
-2336.952
 20
-2856.065
 10
2238.554
 20
-2856.065
 10
2238.554
 20
-2280.437
 10
-2336.952
 20
-2280.437
  0
LWPOLYLINE
  5
144
100
AcDbEntity
  8
TITLE-BLOCK
 62
8
100
AcDbPolyline
 90
2
 70
0
 43
0.0
 10
-2336.952
 20
-2479.693
 10
2238.554
 20
-2479.693
  0
LWPOLYLINE
  5
145
100
AcDbEntity
  8
TITLE-BLOCK
 62
8
100
AcDbPolyline
 90
2
 70
0
 43
0.0
 10
408.352
 20
-2856.065
 10
408.352
 20
-2280.437
  0
TEXT
  5
146
100
AcDbEntity
  8
TITLE-BLOCK
 62
7
100
AcDbText
 10
-2291.197
 20
-2391.135
 30
0.0
 40
82.359
  1
RENTON ADVANCED EV MANUFACTURING CAMPUS
  7
STANDARD
  0
TEXT
  5
147
100
AcDbEntity
  8
TITLE-BLOCK
 62
8
100
AcDbText
 10
-2291.197
 20
-2568.251
 30
0.0
 40
50.331
  1
285 ac - PSE 115kV - BNSF East Valley Connector - SR-167 - Cedar River
  7
STANDARD
  0
TEXT
  5
148
100
AcDbEntity
  8
TITLE-BLOCK
 62
8
100
AcDbText
 10
-2291.197
 20
-2687.805
 30
0.0
 40
36.604
  1
AREA: 285 ac   POWER: PSE 115kV   WORKERS: 3,800   CAPEX: $473M   READINESS: 90%
  7
STANDARD
  0
TEXT
  5
149
100
AcDbEntity
  8
TITLE-BLOCK
 62
7
100
AcDbText
 10
499.862
 20
-2391.135
 30
0.0
 40
50.331
  1
BLUEPRINT INTELLIGENCE
  7
STANDARD
  0
TEXT
  5
14A
100
AcDbEntity
  8
TITLE-BLOCK
 62
8
100
AcDbText
 10
499.862
 20
-2568.251
 30
0.0
 40
36.604
  1
Astrikos AI Platform
  7
STANDARD
  0
TEXT
  5
14B
100
AcDbEntity
  8
TITLE-BLOCK
 62
8
100
AcDbText
 10
499.862
 20
-2687.805
 30
0.0
 40
36.604
  1
Export: 2026-06-11   Units: Feet   CRS: WGS84
  7
STANDARD
  0
LWPOLYLINE
  5
14C
100
AcDbEntity
  8
TITLE-BLOCK
 62
7
100
AcDbPolyline
 90
2
 70
0
 43
0.0
 10
-2291.197
 20
-2802.930
 10
-1368.716
 20
-2802.930
  0
LWPOLYLINE
  5
14D
100
AcDbEntity
  8
TITLE-BLOCK
 62
7
100
AcDbPolyline
 90
2
 70
0
 43
0.0
 10
-2291.197
 20
-2821.380
 10
-2291.197
 20
-2784.481
  0
LWPOLYLINE
  5
14E
100
AcDbEntity
  8
TITLE-BLOCK
 62
7
100
AcDbPolyline
 90
2
 70
0
 43
0.0
 10
-1829.956
 20
-2821.380
 10
-1829.956
 20
-2784.481
  0
LWPOLYLINE
  5
14F
100
AcDbEntity
  8
TITLE-BLOCK
 62
7
100
AcDbPolyline
 90
2
 70
0
 43
0.0
 10
-1368.716
 20
-2821.380
 10
-1368.716
 20
-2784.481
  0
LWPOLYLINE
  5
150
100
AcDbEntity
  8
TITLE-BLOCK
 62
254
100
AcDbPolyline
 90
4
 70
1
 43
0.0
 10
-2291.197
 20
-2821.380
 10
-1829.956
 20
-2821.380
 10
-1829.956
 20
-2784.481
 10
-2291.197
 20
-2784.481
  0
TEXT
  5
151
100
AcDbEntity
  8
TITLE-BLOCK
 62
7
100
AcDbText
 10
-2291.197
 20
-2766.031
 30
0.0
 40
32.287
  1
0
  7
STANDARD
 72
1
 11
-2291.197
 21
-2766.031
  0
TEXT
  5
152
100
AcDbEntity
  8
TITLE-BLOCK
 62
7
100
AcDbText
 10
-1829.956
 20
-2766.031
 30
0.0
 40
32.287
  1
461 ft
  7
STANDARD
 72
1
 11
-1829.956
 21
-2766.031
  0
TEXT
  5
153
100
AcDbEntity
  8
TITLE-BLOCK
 62
7
100
AcDbText
 10
-1368.716
 20
-2766.031
 30
0.0
 40
32.287
  1
922 ft
  7
STANDARD
 72
1
 11
-1368.716
 21
-2766.031
  0
ENDSEC
  0
EOF
